<?xml version="1.0" encoding="UTF-8"?>
<svg id="_Слой_2" data-name="Слой 2" xmlns="http://www.w3.org/2000/svg" xmlns:xlink="http://www.w3.org/1999/xlink" viewBox="0 0 138 76">
  <defs>
    <style>
      .cls-1 {
        fill: url(#_Безымянный_градиент_119);
      }

      .cls-1, .cls-2, .cls-3, .cls-4 {
        stroke-width: 0px;
      }

      .cls-5, .cls-6 {
        fill: none;
        stroke: #fff;
      }

      .cls-5, .cls-6, .cls-7, .cls-8, .cls-9 {
        stroke-miterlimit: 10;
      }

      .cls-2 {
        fill: url(#_Безымянный_градиент_221);
      }

      .cls-2, .cls-4 {
        fill-rule: evenodd;
      }

      .cls-6, .cls-7, .cls-8 {
        stroke-width: .75px;
      }

      .cls-3, .cls-7, .cls-10 {
        fill: #fff;
      }

      .cls-7, .cls-8 {
        stroke: #16478e;
      }

      .cls-10 {
        filter: url(#drop-shadow-1);
        font-family: Tahoma-Bold, Tahoma;
        font-size: 9px;
        font-weight: 700;
        letter-spacing: 0em;
      }

      .cls-8 {
        fill: url(#_Безымянный_градиент_138);
      }

      .cls-4 {
        fill: url(#_Безымянный_градиент_240);
      }

      .cls-11 {
        font-family: Tahoma, Tahoma;
        font-size: 8px;
        letter-spacing: .01em;
      }

      .cls-9 {
        fill: url(#_Безымянный_градиент_7);
        stroke: #b42d08;
      }
    </style>
    <linearGradient id="_Безымянный_градиент_119" data-name="Безымянный градиент 119" x1="120.54" y1="92.86" x2="17.41" y2="-13.93" gradientUnits="userSpaceOnUse">
      <stop offset="0" stop-color="#001b9b"/>
      <stop offset=".22" stop-color="#0033be"/>
      <stop offset=".52" stop-color="#0058f3"/>
      <stop offset=".71" stop-color="#025af3"/>
      <stop offset=".81" stop-color="#0961f4"/>
      <stop offset=".88" stop-color="#176ff7"/>
      <stop offset=".95" stop-color="#2981fa"/>
      <stop offset="1" stop-color="#3f97ff"/>
    </linearGradient>
    <linearGradient id="_Безымянный_градиент_138" data-name="Безымянный градиент 138" x1="41.09" y1="65.1" x2="41.09" y2="49.52" gradientUnits="userSpaceOnUse">
      <stop offset="0" stop-color="#6982ee"/>
      <stop offset=".03" stop-color="#6f88ee"/>
      <stop offset=".14" stop-color="#87a0ef"/>
      <stop offset=".27" stop-color="#9ab3f0"/>
      <stop offset=".42" stop-color="#a7c1f1"/>
      <stop offset=".62" stop-color="#aec8f1"/>
      <stop offset="1" stop-color="#b1cbf2"/>
    </linearGradient>
    <filter id="drop-shadow-1" filterUnits="userSpaceOnUse">
      <feOffset dx="1" dy="1"/>
      <feGaussianBlur result="blur" stdDeviation="0"/>
      <feFlood flood-color="#000" flood-opacity=".75"/>
      <feComposite in2="blur" operator="in"/>
      <feComposite in="SourceGraphic"/>
    </filter>
    <linearGradient id="_Безымянный_градиент_7" data-name="Безымянный градиент 7" x1="126.29" y1="18.8" x2="126.29" y2="4.86" gradientUnits="userSpaceOnUse">
      <stop offset="0" stop-color="#c83004"/>
      <stop offset="1" stop-color="#e97b62"/>
    </linearGradient>
    <radialGradient id="_Безымянный_градиент_240" data-name="Безымянный градиент 240" cx="-4397.54" cy="-868.57" fx="-4397.54" fy="-868.57" r=".08" gradientTransform="translate(-323240.41 56724.43) rotate(-178.82) scale(73.23 -72.92)" gradientUnits="userSpaceOnUse">
      <stop offset="0" stop-color="#b4e0f9"/>
      <stop offset="0" stop-color="#b4e0f9"/>
      <stop offset=".33" stop-color="#2c89fc"/>
      <stop offset=".49" stop-color="#2c76f1"/>
      <stop offset=".78" stop-color="#2f4cd9"/>
      <stop offset=".89" stop-color="#2e51dd"/>
      <stop offset=".99" stop-color="#2e5de8"/>
    </radialGradient>
    <radialGradient id="_Безымянный_градиент_221" data-name="Безымянный градиент 221" cx="-4396.25" cy="-866.3" fx="-4396.25" fy="-866.3" r=".18" gradientTransform="translate(240811.09 -47442.23) scale(54.77 -54.77)" gradientUnits="userSpaceOnUse">
      <stop offset="0" stop-color="#b5d8bc"/>
      <stop offset=".21" stop-color="#8db894"/>
      <stop offset=".45" stop-color="#65976c"/>
      <stop offset=".67" stop-color="#47804f"/>
      <stop offset=".86" stop-color="#36723e"/>
      <stop offset="1" stop-color="#306d38"/>
    </radialGradient>
  </defs>
  <path class="cls-1" d="M5,0h127.99c2.76,0,5,2.24,5,5v71H0V5C0,2.24,2.24,0,5,0Z"/>
  <rect class="cls-3" x="2.35" y="21.85" width="133.55" height="51.68"/>
  <rect class="cls-8" x="14.25" y="49.52" width="53.68" height="15.58" rx="1.66" ry="1.66"/>
  <rect class="cls-7" x="72.76" y="49.82" width="54.44" height="15.02" rx="2.7" ry="2.7"/>
  <text class="cls-11" transform="translate(26.64 38.03)"><tspan x="0" y="0">Выйти из программы?</tspan></text>
  <text class="cls-10" transform="translate(18.12 15.54)"><tspan x="0" y="0">Подтверждение</tspan></text>
  <g>
    <g>
      <rect class="cls-9" x="119.32" y="4.86" width="13.94" height="13.94" rx="1.66" ry="1.66"/>
      <rect class="cls-6" x="118.79" y="4.33" width="15" height="15" rx="1.66" ry="1.66"/>
    </g>
    <line class="cls-5" x1="129.77" y1="8.35" x2="122.81" y2="15.31"/>
    <line class="cls-5" x1="129.77" y1="15.31" x2="122.81" y2="8.35"/>
  </g>
  <text class="cls-11" transform="translate(85.23 59.61)"><tspan x="0" y="0">Отмена</tspan></text>
  <rect class="cls-3" x="16.65" y="51.41" width="48.88" height="11.81"/>
  <text class="cls-11" transform="translate(34.94 60.29)"><tspan x="0" y="0">ОК</tspan></text>
  <g>
    <path class="cls-4" d="M9.71,17.3c-2.92,0-5.28-2.38-5.27-5.31,0-2.93,2.37-5.3,5.29-5.29,2.92,0,5.28,2.38,5.27,5.31,0,2.93-2.37,5.3-5.29,5.29"/>
    <path class="cls-2" d="M8.96,13.54s.01.14-.03.18c-.04.04-.04.08-.09.12-.06.06-.06.17-.11.21,0,0-.02,0-.03,0-.02,0-.03-.02,0,.03.02.04-.02.08.02.15.03.06-.01.07,0,.16.01.08-.04.05-.02.12.03.07-.05.04-.03.11.02.09-.07.07-.06.16,0,.06-.02.04-.05.07-.04.04-.05.04-.06.03h-.01s-.03,0-.05,0c-.02,0-.04,0-.05,0-.02.03-.05.03-.13.11-.08.08-.03.13-.03.14,0,.06.04.1,0,.13-.03.03.03.03-.05.08-.08.05-.02.07-.05.12-.03.04.02.1-.05.14-.07.04.03.04-.08.12-.04.06-.12.07-.15.04-.01-.01-.03-.01-.04,0-.01,0-.02,0-.03,0-.02-.02-.09.01-.11-.1-.02.07.04.07,0,.08-.03.01.14.04.13.1,0,.06.02.06.04.06h.01c.02.06,0,.05,0,.08-.03.08-.06.06-.1.08-.07.03-.11.03-.13.02,0,0-.02,0-.02,0-.01,0-.02,0-.02,0,0,0,0,0-.01,0,0,0-.02.03,0,.03.02,0,0,.02.02.03.02,0,0,.03,0,.03-.02,0-.01.04,0,.05.02,0-.05.06-.09.04-.04-.02-.06,0-.05-.02.01-.01-.05,0-.02.02.07.04,0,.09.06.08,0,0,0,.02.03,0,.03-.01-.03-.01,0-.02.04,0,.02.01.03.03,0,.02-.02.02-.02,0,0-.02-.05,0-.05,0,0,0,.05,0,.05.02,0,0-.03,0-.02.03,0,.03-.01.01,0,.05.02.03-.03.02,0,.05.02.03-.04.01-.05.03-.01.02-.03,0-.04.04,0,.05.02.04.04.06.02.03.03.03.05.02.01,0,.02,0,.04.02.01.02,0,.07,0,.07-.09-.05-.19-.09-.28-.14-.1-.06-.16-.09-.25-.15,0,0-.04-.03.01-.11.02-.03,0-.02-.01-.04-.02-.02,0-.03-.03-.04,0,0-.02,0-.02,0h-.01s-.01,0-.01,0h0s0-.04-.03-.09c-.04-.04.05-.02,0-.09-.03-.04-.02-.06-.03-.07-.01,0,.02,0-.02-.03-.03-.02-.04-.03-.03-.06,0-.02.01-.01,0,0,0,.01.04.02.02,0-.02-.04.01-.03,0-.04-.02-.03.01-.01,0-.05-.02-.04.03,0,.01-.06-.02-.06.01-.05,0-.09-.02-.04,0-.04-.04-.11-.03-.06-.06-.15-.06-.17,0-.01,0,0,0,0h.01s0,0,0-.02h.01s0,0,0,0c0-.02-.02,0-.02-.03,0-.03-.03.02-.02-.1,0-.06,0-.1,0-.14,0-.08.02-.07,0-.09-.03-.03,0-.02-.02-.06-.02-.04,0-.03-.03-.08-.02-.03.01,0,.01-.07,0-.03,0-.03-.01-.03,0,0,0,0,0-.02.01-.05,0-.03-.02-.07-.01-.03,0-.02,0-.02,0,0,0,0,0-.01-.01-.03,0-.07-.02-.09-.03-.04,0-.02-.02-.05-.02-.03-.02-.04-.02-.05-.03-.03-.05-.04-.06-.06-.02-.05-.15-.09-.16-.11-.05-.04-.09-.02-.11-.06-.03-.04-.06-.04-.08-.07-.02-.03-.06-.04-.07-.07,0-.02,0-.01,0,0h.01s-.06-.07-.04-.1c.01-.03-.01-.01-.02-.05,0-.04-.04-.03-.05-.09-.01-.06-.06-.11-.08-.18-.02-.07-.03-.04-.04-.06,0-.03-.04-.03-.05-.06-.01-.03-.01-.01-.08-.07-.04-.04-.02-.06-.02-.07-.02-.02.02-.02-.02-.06-.05-.05,0-.02,0-.04-.01-.03.02-.03,0-.04-.02,0,.03-.05.04-.05.02,0,.02-.01.05-.06.02-.03,0-.02,0-.04,0-.01-.02,0-.02,0,0,.03,0,.03-.02.01,0-.02-.03,0,0-.02.02-.01-.01,0,0-.02,0-.02-.02-.02,0-.03.02-.01-.01-.02.01-.02-.02,0,0-.02-.01-.02-.02,0,0-.03.02-.08.03-.05,0-.02.01-.06.01-.02,0-.02,0-.02,0,0,0,0,0,0,0-.02.02,0,.04-.02.01-.02.03,0,.04-.03,0,0,0,0,0,0,0,0-.01,0,0-.02.02-.02.03-.02.04-.02h.01s-.03-.03-.01-.05c.02-.03.07-.01.07-.04,0-.01.03-.06.06-.07-.02-.01.01-.02,0-.02-.01,0,0,.01-.03,0-.02,0-.01-.03,0-.04,0-.01,0-.05,0-.09,0-.02,0-.02-.01-.02h0s.03-.02.02-.04c-.01-.03-.01-.03-.01-.03h0s-.01-.03-.02-.04c0-.01,0-.01-.01-.01h0s-.01-.01,0-.03c0-.01-.02,0,0-.02,0-.01-.01-.03,0-.05,0,0,.01-.01.02,0,.01,0,0,0,0-.03,0,.02-.01.02-.04.03,0-.01.01-.03-.01-.03-.01,0-.01,0-.02-.01,0,0-.01-.01-.04-.01-.03,0-.05,0-.04.01,0,0-.01,0-.04.04-.02.02,0,.02,0,.03,0,.01.02,0,0,.03-.02.02-.04.02-.05,0,0-.02-.02-.03,0-.04-.02,0,0,.02-.02.02-.02,0,0-.01-.02-.02-.02-.01-.01-.03-.04-.03-.03,0-.01-.02-.02,0h-.01s0,0,0,0c0,.01,0,.01,0,0,0,0,0-.01-.01-.02-.02,0,.01-.01,0-.02-.01,0-.03,0-.01,0,.01,0,0,.01-.02,0-.01,0-.02,0,0-.02,0,0-.01-.01,0-.02-.03-.02-.04-.03-.07-.05-.03-.01.02,0-.02-.03-.03-.02-.02,0,0,0,0,0,.01.03-.02.01-.03-.02-.03-.02-.02-.04,0,0,0-.02,0-.03,0,0-.03-.01-.02-.02.01,0,.02,0,.01-.01-.03-.02,0-.02-.03-.05-.04-.03-.03-.09-.06-.11-.03-.03,0-.03.01-.02h0s0-.04-.03-.03c-.08.03-.08,0-.12,0-.04,0-.02,0-.05-.02-.07-.01-.07,0-.12-.07,0-.01,0-.02-.06-.07-.06-.05-.07-.03-.08-.04.02,0,.02-.02,0-.01,0,0-.01,0-.02,0h-.02s.03.01,0,.02c-.04,0-.02.02-.05.02-.04,0-.03.04-.08,0-.01.01-.05,0-.06-.01-.01-.02-.03,0-.05-.03-.01-.02-.05,0-.06-.01,0-.11.02-.23.04-.34.02-.11.04-.22.06-.33.03-.14.06-.25.08-.33.03-.11.06-.22.1-.32.04-.1.08-.22.13-.32.05-.1.09-.2.14-.3.05-.1.11-.2.17-.3.06-.1.12-.19.18-.29.07-.09.14-.19.21-.28.07-.09.15-.19.23-.27.08-.09.19-.18.26-.27.08-.08.13-.12.22-.2l.04-.03s.12,0,.15.02c.02.01.02,0,.03,0,0,0,.01,0,.02,0,.01,0,.02,0,.02,0,0,0,0-.02.02,0,.02.03.03.03.03.01,0-.02-.02,0-.04-.03.02,0,.03,0,.03,0,0,0,0,0,.01,0,.02.02.05,0,.02.02-.03.02.01.01-.03.04.06-.01.02-.02.06-.04.01,0,.02,0,.03,0,0,0,.02,0,.04,0,.05,0,.08-.01.06-.02,0,0-.01,0-.01,0,0,0,0,0-.02,0-.02,0,.03-.03.05-.02.01,0,.06-.02.05-.02,0,0-.02,0-.04,0-.02,0-.04.01-.05,0,0,0-.01,0-.02,0,0,0-.01,0-.03-.01-.03-.04.07-.03.05-.05,0-.01.02-.02.04-.03.01,0,.02,0,.02,0,0,0,0,0,.02,0,.03-.01-.05,0,.03-.03.03,0,.07,0,.06.02-.02.03.04.03.01.05-.02,0-.02,0-.02,0,0,0,0,0-.02,0-.03,0,.03.01-.02.04.03,0,.06,0,.02.04.02,0,.05,0,.07-.02.02-.02.07.01.04.03-.03.02,0,.03-.01.06.07-.06.11-.05.13-.06.02-.02.03-.02.05-.03-.04,0,.02-.05.06-.04.04.01.06,0,.08.01.02.01.06.03.03.03-.02,0,0,.02-.04.02-.03,0,0,.01-.02.02-.03.03.03.02-.02.05-.03.02-.04.02-.06.01,0,0-.02,0-.03,0-.02,0-.03,0-.04,0,0,0-.01,0-.03,0-.02.01-.03-.02-.06-.02-.01,0-.02,0-.01,0h.01s.01,0,.02.02c.01.02.01.02,0,.02,0,0-.01,0-.03,0-.02,0-.03,0-.03,0,0,0,0-.02-.05,0-.05.02.08.01-.04.04-.07.02-.05.03-.1.02-.05,0,0-.04-.09-.03.06,0,.03.03.07.04.02,0,.03,0,.04,0,.02,0,.02,0,0,.01-.04.02-.07.05-.1.04,0,0-.02,0-.03,0-.02,0-.03,0-.04-.01,0,.03-.01.01-.04.02-.01,0-.02,0-.03,0-.02,0-.05,0-.11,0,.05,0,.06,0,.03.01.05-.02.07-.01.07,0,0,.01,0,.03-.05.02-.09,0,0,.01-.04.02-.07.01-.05.03-.08.03-.03,0-.08.04-.1.04-.03,0,.02,0-.07.04-.03.01.01.01-.03.02-.04,0,.01,0-.03.03-.04.02-.01.04-.06.07.02,0,.02,0,.02.02.01-.02.02-.01.04-.02.02,0,.03.02.02.03,0,0,.01.03,0,.04-.02.02-.03.02-.03.01,0,0-.01,0-.03.01.01,0,.01,0,.02,0,0,0,0,0,.02,0,.03,0,.1-.04.11-.01,0,.03.09.02.1.04,0,.01,0,.01.01.01,0,0,.01,0,.02,0,.04.02.06,0,.05.03,0,.01.02,0,.05,0,.02,0,.05,0,.05,0,0,0,.02,0,.03,0,.01,0,.02,0,0,.01-.04.03,0,.02-.01.04,0,.01-.01.01-.02,0h-.01s-.02,0-.05,0c.02.03.06,0,.05.03,0,.03,0,.02-.04.03.07,0,.02.06.05.07.02,0-.01,0-.03.03,0,0,.02,0,.04-.02.01,0,.01,0,.01.02,0,.01,0,.02,0,.02h.02s.02,0,0,0c0-.01.02-.01.05-.02.02-.01,0,.02.03.04-.03-.02,0-.03.01-.03-.02-.01-.02,0-.02-.03,0-.02.07,0,.07-.06,0-.03,0-.02.01-.04,0-.05,0-.05,0-.05h0s-.03-.01-.01-.03c0-.01.14,0,.24-.1.12-.12-.02-.13.01-.15.02-.01-.03-.02.05-.04.05-.01,0,0,.04-.02.04-.01-.02-.01.02-.04.06-.04-.03,0,.03-.05.03-.02.02-.06.05-.08.04-.02.09,0,.12.01.03.01.05,0,.06,0,.02-.01.03-.02.08.02,0,.04.02.03.03.04.01.01.02,0,.02,0,0,0,0,0,.02,0,.02,0-.01.01,0,.02,0,0,.02,0,.02,0h.02s.01.01-.03.02c-.06.01.05.03-.05.04,0,0,.03,0,.03,0,0,.03-.07.03-.06.06.05-.03.08-.01.06.01-.03.03-.05.02-.04,0-.01.02,0,.02-.03.03.02,0,.04,0,.03.02.04-.04.1-.06.09-.04,0,.01,0,.01,0,.01h.01s.05-.02.07-.05c.01-.01.01,0,.01,0,0,0,0,.02,0,.01,0,0,0-.03.04-.04.04-.01,0-.03.03-.05.03-.01.04-.06.05-.04.01.02.03.01.03.03,0,.01.01.01,0,.03,0,.02.02.01.01.03,0,.02.03.02.01.05.04.01.02.05-.04.05.01,0,.03,0,.06,0,.03,0-.03.03,0,.04.03.02-.01.07.02.05.02,0,.01,0,.01,0,0,0,0,.01.01,0,.02,0,.02,0,.02,0,0,0,0,0,.01,0,.01,0,.01,0,.02,0,0,0,0,0,.01,0,.02,0,.07,0,.03.01-.05,0-.07.02-.12.02-.07,0,.01,0-.06.03.04,0,.09,0,.12-.02.03-.01.05-.02.07,0,.02.01-.01.01,0,.02.01,0,0,0,.03,0,.03,0,.04.03.01.03-.02,0,.02.02,0,.02-.02,0,.05.02-.02.05-.03.02-.04.01-.04.01,0,0,0,0-.05.02-.03.02-.05.01-.04.02h0s-.01,0-.03.02h0s0,0-.07.03c-.06.02-.06.02-.07.01,0,0-.02,0-.06,0-.03,0-.03,0-.04,0,0,0-.03,0-.11,0-.12.01-.15.02-.15.03,0,.02-.03.02-.07.03-.04,0-.03.03-.06.02,0,0,0,.01-.03.02-.05,0-.12.09-.15.09-.03,0-.02.02-.06.05.02,0,.03,0,.07-.04.05-.03.23-.11.3-.12.07-.01.1,0,.1.02,0,0,0,0,0,0h0s.02,0,0,.01c-.02.01-.02,0-.06.02-.02.01-.03.01-.03.01,0,0-.01,0-.03,0,.02,0,.02,0,.03,0h.01s.02,0,.02,0c0,0,0,.03-.04.04.02,0,.03.03.04.07.04,0,.01.03.07.03.05,0,0,.03.04,0,.03-.01.02,0,.02,0,0,0,0,0,.01,0,.02,0,.02,0,.02,0,0,0,0,.03-.04.03-.03,0-.05.04-.08.03-.01,0-.01,0-.01,0,0,0,0,.01-.02,0-.04-.01-.02.01-.05.01-.04,0,0,.02-.02.03-.03,0-.06.04-.07.03,0,0,0,.01-.01.02-.02,0,0-.02-.01-.03-.02-.01,0-.03.05-.07.03-.03.06-.02.08-.02h0s.01,0,.06-.01c-.02,0-.04,0-.06,0,0,0-.02,0-.03,0-.01,0-.02,0-.02,0,0,0,.07-.03.03-.05,0,.02,0,.02-.04.04-.03.01-.04.01-.05.01,0,0-.01,0-.02,0,.01.01-.08.05-.08.05,0,0-.04-.02-.05.01,0,.02-.01.01-.01,0,0,0,0-.02,0,0-.02.04-.02.03-.03.03,0,0-.01,0-.02,0-.02.02-.05,0-.07.04-.02.03-.02.02-.04.04-.02.02-.03.03-.02.05,0,.01.01,0,.02,0,0,0,.01,0,0,.02,0-.02-.06,0-.06,0,0,0-.03.03-.05.03-.03-.01,0,0-.05,0-.05,0-.05.03-.08.04-.01,0-.01.01-.02.01-.02.01.02,0,0,.03-.02.01-.02.01-.04.03-.01.02-.02,0-.04,0,0,0,0,.01.02.02-.01,0-.02,0-.02,0,0,0,0,0-.01,0-.01.02-.01,0-.04.03-.01.01-.02.03-.02.01,0-.02-.02-.01-.03-.04,0,.02-.01.02,0,.03.02.01,0,.01.01.03.02.01-.01.06-.03.07,0,0,0,0,.01-.02,0-.01.01-.03,0-.02-.02.02-.03.06-.05.07-.02,0-.02,0,0-.02.02-.02-.02-.03,0-.04.01-.02-.02-.01,0-.03.01-.02-.01,0,.01-.03.03-.02,0-.01-.03,0-.02.01-.01.05-.02.03.02.03,0,.02-.02.02.03.02.01.02.03.04h-.01s0,0-.02,0c0,.01.04.02,0,.04.03-.02.01.03.02.05,0,.02,0,.06-.01.06h-.02s-.02,0-.03,0c0,.01-.02.02.01.02.01,0,.01,0,.02,0,0,0,0,0,0,0,.01-.01.02,0,0,.02-.02.01,0,.02-.04,0-.04-.01.01,0,0,.02-.02.01,0,0,0,0h0s0,.03-.04.03c-.04,0-.05.04-.06.03,0,0-.02,0-.03.02-.01.01-.03.03-.04.02-.02,0-.06.02-.06.03-.02.04-.02.02-.04.03-.03.03-.04.03-.05.02h0s-.03.01-.03,0c0,0-.01,0,0,0,.02.02,0,.02,0,.03,0,.02,0,0-.03.03-.08.1-.05.1-.06.11-.01.02,0,.08,0,.12,0,.02,0,.02,0,.01,0,0,0,0,0,0,0,.03.01.08,0,.08,0,0,0-.01,0-.02,0-.02,0-.04,0-.01,0,.04.02.07.02.08.02.01,0,.06-.02.1-.02.04,0,.02-.01.03,0,0-.01,0-.01,0h0s0,0-.01,0c0,0,0,0-.01,0-.02,0-.03,0-.03,0,0,0,0-.01,0,0,.02,0,0,0,.02-.01.02,0-.02,0-.02-.03,0-.02-.03,0-.03-.04,0-.02,0-.02,0-.04.01-.01,0-.01-.01,0-.03-.07,0-.06,0-.08-.01-.02.05-.08.03-.1-.03-.02-.01-.04-.03-.04-.02,0-.01-.04-.06-.01-.03.02-.03.01-.04.01h-.01s-.03,0-.02,0c.02,0,0-.01-.07-.03-.06-.02.04-.01.03-.02-.02,0-.08,0-.06,0,.02,0-.05.02-.06,0,0,0,0,0-.03.02-.03.01-.02-.02-.02-.02,0,0,0,0,0,.02,0,.01-.01.01-.03,0,0,0-.02,0-.02,0-.02,0-.03,0-.04,0-.01,0-.02-.01-.02,0-.01.03.06,0,.04.04,0,0,.02.01.01.02-.01,0,.03.02,0,.02-.03,0-.02,0-.03,0h-.01s0,.01-.02,0c-.01-.01-.05,0-.06-.02h0s0,0-.01,0c-.02-.02,0,0-.03,0-.02,0-.03,0-.04,0-.02-.01-.04-.02-.08,0-.03.02-.06.05-.05.03.01-.02,0-.02.01-.04-.05.02-.02.02-.03.03-.01,0,.03.01-.02.03-.03,0-.04.04-.05.03h-.01s-.01,0-.01,0c0,0-.01,0-.01,0h0s0,.02,0,.02c0,0,0,.02-.02,0,0,.01,0,.03-.03.04,0,0-.02.03-.03.03-.02,0,0,0-.02,0-.02,0,0,0-.01.03,0,.03-.03.03-.02.04,0,.01,0,.01,0,.05,0,.02,0,.03-.03.07-.04.05-.02.15-.06.19-.03.05.02.07,0,.1-.02.03.02.08.03.12.02.04,0,.04.02.05.02,0-.01.04.03.04.02,0,.02,0,.03.01.01,0,.03.03.06,0,.03-.02.05,0,.09-.03.03-.02.04,0,.06-.02.02-.01.04,0,.02,0-.02,0-.02.02.01,0,.04-.02-.02-.01.03-.03.02,0,0-.05.03-.06.01,0,0-.04,0-.08,0-.04.1-.05.11-.05,0,0,.02,0,.03,0,.01,0,.03,0,.05,0,.02,0,.03,0,.03,0,0,0,0,0,.02,0,0,.01.01.01.01.01,0,0,0,0,0,.01.01.03-.02.04-.03.06-.01.02,0,.04-.03.04h0s0,0,0,0c0,0,.02,0,0,.03-.03.03-.03.08-.04.09-.01,0,0,.04-.02.05,0-.04,0-.03,0-.06,0,.02-.02.02-.02.03.04,0,0,.05,0,.07,0,.03-.02.05-.03.07-.02.02-.03.01-.03.04,0,0,0,0,0,0,0,0,0,0,.02,0,.02.02.01,0,.04,0,0,0,0-.02.03,0,.02,0,.04,0,.07,0,.03,0,.05,0,.07,0,0,0,.01,0,.01,0h0s0,0,0,0c0,0,.02,0,.04,0,.04.02.01,0,0,.01,0,0-.01,0,0,0,0,0,.02,0,.03,0,.02.01.02,0,.01,0,0,0,0-.01.01,0,.04.02.03.03.04.04.01,0-.03.02,0,.03.02,0,0,.06-.02.06.01,0,0,.02,0,.05,0,.03,0,.04,0,.05,0,.01-.02.03-.01.02,0,0,0,0,0,.01,0,.01,0,.03,0,.02,0,0,0,0,0,.01h0s.01.04,0,.05c-.02.01,0,.05,0,.07,0,0,0,0,0,.02,0,.02.03.06.04.07.01.01.03.01.02.02-.01,0,0,0,0,0,0,0-.02.01,0,.02.02,0,0,0,0-.02,0,0,.02.02.03.02,0,0,.06,0,.07,0,.02-.01.04,0,.05-.02,0-.01.02,0,0,.01h0s0,0,.02,0c.03,0,0,0,0-.02,0-.01,0-.02.02-.03,0,0,.03,0,.04,0,0,0,0,0,.01,0,0,0,0,0,.03.02.04.03,0,0,.02.02.01.02.01,0,.03.03.01.02.02,0,.05.05,0-.02,0-.02,0-.02,0,0,0,0,.01,0,0-.02-.02-.01-.01-.02,0,0,.02,0,.04-.04.01-.03.03-.03.03-.02h0s0-.02,0-.04c.02-.03,0-.05,0-.06.02-.01.02-.03.06-.04.06-.02,0,.01.03.02,0,0,.02-.04.04-.04.03,0,.03,0,.09-.04.07-.03,0-.04.04-.04s0-.01.04,0c.03,0,.03.02,0,.04,0,0,.01,0-.02.02-.04.02,0,.05.01.05.01.02,0,.02,0,.02,0,0-.01,0,0,.01.02.03-.04.02-.05.05,0,.03.04.03.03.04,0,.03.05,0,.05,0,0-.05-.01-.06-.01-.06,0,0-.02,0,0-.02.01-.01,0-.01.02-.04.02-.03.03-.03.06-.04.03,0,.01-.02.03-.02,0,0,.01,0,.01,0,0,0,0-.01-.02,0-.02,0-.02,0-.02-.02,0-.02.04-.02.04,0,0,.03,0,.02.04.03.02,0,.02,0,.02,0,0,0,0,0,.01,0,.02,0,.04.03.02.04-.02,0,0,.03.07.02.06,0,.12,0,.1.01-.01.01.01.03.08.02.07,0,.02-.03.07-.03-.06,0-.03-.02,0,0,.02,0,.02,0,.03,0,0,0,.01,0,.03,0,.02,0,.03,0,.04,0h0s-.03.01-.06.01-.03.01,0,0c.02,0,0,0,.04.05,0-.01.03,0,.04.01,0,.01.05.02.05.05,0,.02.02,0,.01.01-.01,0,.01,0,.01.01s.01.03-.04.02c.02.01.04,0,.04,0,0,0,.01,0,.04.02.03-.02.04,0,.08.04.05.04.05.04.02.08.02,0,0-.02.04,0,.03.03,0,.04.03.04.03,0-.02.07-.02.07,0,0,.01,0,.03-.04.01-.02.03,0,.05,0,.01,0,.03.01.04,0,.01,0,.02,0,.03,0h.01s.02,0,.03,0h.02s.06,0,.06.02c0,0,.02-.01.03,0,0,.02.04,0,.06.04.01.01.01.01.02,0,0,0,0,0,.01,0,.01.03.02,0,.02.03,0,.02.01,0,.02.04,0,0,0-.01.03.03.01.02.01.01.01,0,0,0,0-.01,0,.01.01.05.05.16.05.16.04,0,.05.05.02.07-.03.02-.01.04-.05.06-.03.02-.03.05-.04.1,0,.02-.02.04-.03.05h-.01s0,.01.01,0c.02,0,.04.06.04.06,0,0,0-.02,0-.05,0-.03.04-.02.05-.05.01-.03-.01-.02.02-.06.02-.03.02-.02.04-.02,0,0,.02,0,.03,0,.05,0,.1,0,.08.02-.02.03.01.02-.03.05-.04.03,0,.03-.02.05-.01,0-.02,0-.03,0,0,0-.02,0-.03.01-.02,0-.02,0-.02,0,0,0-.01,0-.04,0,.01,0,.02,0,.02,0,0,0,.01.01.04,0,.05-.03-.01.01.03.06-.02-.06.02-.08.04-.08.02,0,0-.05.06-.07.06-.02.06.02.15.06.09.04.07.05.05.06-.02,0,.03,0,.01.05.03-.03.03-.03.07,0,.06.04.14.05.15.05.05-.02.08,0,.13.04.05.04.1.06.14.09.01.02.04.01.06.01.03,0,.06,0,.07.03.02.04.05.09.04.14M10.17,7.9s.07,0,.05-.02c-.01,0,.06-.02.04-.02,0,0,0,0-.01,0,0,0-.01,0-.02,0-.04,0-.08-.02-.1-.01-.01.01-.04.02-.06.02,0,0,0,0,.01,0,0,0,.01,0-.01,0-.05,0-.02-.01.01-.03.03-.01.07,0,.04-.02-.03-.02-.1-.01-.06-.02.04,0,.05,0,.08.01.03,0,.06,0,.08.02.02.02.07.04.08.02,0-.02.03,0,.03-.03,0-.03-.01-.04-.02-.03h-.01s-.01-.02-.02,0c-.02.02-.02,0-.03,0-.02,0-.01-.02-.03,0,0,0,0,0-.01,0,0,0,0-.01-.02-.01-.03,0-.03-.01,0-.02.04,0,.02-.02.07,0,.02,0,.03,0,.04,0,0,0,.02,0,.03,0,.03,0,.09,0,.08-.02,0-.01,0,0,0,0,0,0,.02,0,.03,0,.02-.02.03,0,0-.02-.03-.02.05-.02.02-.04-.03-.02-.04-.03,0-.03.01,0,.02,0,.02,0,0,0,0,0,.03,0,.04-.01.09-.03.05-.02-.02,0-.03,0-.03,0-.01,0-.02,0-.03,0-.02.01-.02,0,.02-.02.02,0,.02,0,.03,0,0,0,.01.01.03,0,.03-.02-.01-.02.01-.03.03-.01-.02-.01.02-.03.04-.02,0-.02-.03-.02-.01,0-.02,0-.03,0-.02,0-.04,0-.06.01-.03.03,0,.03-.02.05-.02.02-.07.04-.04.02.03-.02.05-.04.03-.05-.03,0-.06.01-.06.01,0,0,0-.02.04-.03.03,0,.01,0,0-.02-.01,0-.04,0-.05,0-.01,0,0,.03-.02.02,0,0-.02-.02-.06-.01-.02,0-.03,0-.04,0-.02,0-.03,0-.06,0-.02.01-.03,0-.04,0,0,0-.02-.01-.05,0-.03,0-.04,0-.05,0-.01,0-.02,0-.05,0-.02,0-.03,0-.04,0-.01,0-.03-.02-.07,0-.08.03-.08.03-.06.01.02-.02-.03-.02-.1,0-.04,0-.04,0-.05,0,0,0,0,0-.02,0-.02,0-.03,0-.04,0,0,0-.01,0-.03,0-.02,0-.03,0-.04,0-.01,0-.02,0-.04,0-.03,0-.06.03-.1.01-.04-.02-.07-.01-.06,0,0,0-.01,0-.03,0-.02,0-.05,0-.07,0-.03,0-.04,0-.05,0,0,0-.02,0-.03,0-.02,0-.03,0-.04,0-.01,0-.03,0-.05,0-.02,0-.04,0-.05,0-.01,0-.02,0-.04,0-.01,0-.02,0-.03,0-.01,0-.02,0-.04,0-.02,0-.03,0-.05,0-.01,0-.02,0-.05,0-.03,0-.04,0-.06,0-.02,0-.04,0-.07,0-.07,0,0,.02-.05.03-.05,0-.02.02-.05.03-.02,0-.02,0-.03,0,0,0-.01,0-.03,0-.01,0-.02,0-.03,0-.02,0-.04,0-.08.01-.06.02,0,.01.02.02.02,0,.07,0,.11,0,.04,0-.03,0,.03.01.05,0,.04,0-.03,0-.07,0-.04,0-.08.02-.05.02-.06,0-.01.02.04.02.03,0,.06-.01.01,0,.02,0,.03,0,0,0,.02,0,.03,0,.02,0,.02,0,.03,0,0,0,.02,0,.03,0,.02,0,.04,0,.06,0,.02,0,.03,0,.05,0,.02,0,.02,0,.02,0,0,0,0,0,.02,0,.03,0,.06.01.04.02-.02.01.04,0,.02.02-.02.01.04.01.02.02-.02,0,.01.02,0,.03-.02,0-.01.02-.04.03-.03,0-.02,0-.02.02,0,.01,0,.02.03.02.01,0,.02,0,.03-.01h0s0,0,0,0c0,0,.02.02.04,0,.02-.01.05-.02.02,0-.02.01,0,0,.02,0,.01,0,.02,0,.01,0-.02,0,.03,0,.01.01-.01,0-.03,0-.05,0-.01,0-.03,0-.04,0,0,0-.01,0-.02,0,0,0-.01,0-.03,0-.03,0-.01.02,0,.02.02,0,.04.02.05.01.01,0,.04-.01.05,0,.01,0-.02.02,0,.03.01,0-.03,0-.03.02,0,0,0,0-.02,0-.02,0-.03,0-.05,0-.02.02.05.01.03.02-.01,0-.02,0-.03,0,0,0-.02-.01-.03,0-.03.01-.07.01-.04.03.02.01-.06,0-.03.03.03.02-.04,0,0,.03.03.02.02.02,0,.02-.02,0-.04,0-.01.03.03.02,0,.07.02.06.03-.01.05-.03.06-.02-.02,0-.03,0-.03.02,0,.01-.03,0-.02.02,0,.02-.01.04.02.05.03,0,0,.02.03.03.03,0-.01.04.03.04.04,0,0,.03.04.04.04,0,.02.02.04.01.02,0,.02-.01.05-.02.02,0-.02.01.02.02.04,0,0,.02.03.02.02,0-.01.02.03.02.01,0,.02,0,.03,0,.02,0,.03,0,.02-.02-.01-.04.06-.03.04-.04-.03-.01.06-.02.03-.03-.02-.01.05-.02.02-.04-.03-.03.04-.03.03-.04-.01-.01.06-.01.05-.02-.01,0,.05-.02.04-.03-.02-.01.06,0,.04-.03-.03-.02-.03-.04,0-.03.03,0,.07,0,.05,0-.02-.01,0-.03.03-.03,0,0,.02,0,.03,0,.02,0,.05,0,.04-.01-.01-.02.04-.02.05,0h0s.07.02.06,0c-.02-.02.03-.03.06-.02.01,0,.02,0,.03-.01,0,0,.02-.02.04-.01.02,0,.02,0,.03-.02,0-.01.01-.03.03-.02.02,0,.02,0,.02-.01,0,0,0-.02,0-.01.02,0,.02.04.05.03.02,0,.03,0,.04,0,.01,0,.02,0,.03,0,.01,0,.02,0,.03,0,0,0,.01,0,.03,0,.02,0,.04,0,.05,0,.02,0,.02,0,.02,0,0-.01.07,0,.06-.02,0,0,.01,0,.03,0,.02,0,.04,0,.03,0M5.78,11.12h0s0,0,0,0h-.01s-.01,0-.01,0h0s0,.01,0,.01h0s0,0,0,0h0s0,0,0,0c0,0,0,.01.02.01,0,0,.01,0,.02,0h0s0-.01,0-.01h0M8.8,7.91s.02,0,.04,0c.02,0,.02-.02,0-.02,0,0-.02-.01-.03,0-.01,0-.02,0-.03,0,0,0-.01,0-.03,0,0,0-.01,0-.02,0,0,0,0,.01,0,.02h0s.02,0,.02,0c0,0,.01,0,.03.01M6.23,11.25s.03,0,.04,0h0s.01,0,.01,0c.01,0,.02-.01.03-.01.02,0,.02,0,.03,0,0,0,0,0,0-.01,0,0-.01,0-.02-.01h0s0,0,0,0h-.02s-.01,0-.01,0h0s0,0,0,0h0s-.02,0-.01,0c.01,0,.02,0,.01-.01,0,0,.01-.01,0-.02h-.01s-.02,0-.02,0h-.02s-.02-.01-.03-.01c-.01,0-.04-.03-.05-.03h0s0,0,0,0c-.01,0,.01,0,0,0-.01,0,0-.01-.02-.02h0s0,0,0,0c0,0,0,0-.02,0-.03-.01-.02-.02-.03-.02-.01,0-.01-.02-.03-.02-.02,0-.02,0-.03-.02,0,0,0,0-.02-.01-.01,0-.02,0-.03,0,0,0,0,0-.01,0h0s0,0-.03-.01c-.04,0-.05,0-.06,0h0s-.01,0-.04,0c-.04,0-.02,0-.03.01-.01,0-.05,0-.05.02h0s-.01,0-.01,0c-.01.01-.02.01-.02.02,0,.01.02.01.01.02h-.01s0,0,0,0c0,0-.02.01-.03.01,0,0,0,.01.02,0,0,0,.03-.02.02,0,0,.01,0,0,0,0h.02s0-.02,0-.02c0,0,0,0,.02-.01h.01s.01,0,.02,0c.01,0,.01,0,.02-.01,0,0,0-.01.01-.01.01,0,.07,0,.08,0,0,0,.02.01,0,.01-.01,0-.01,0-.02,0,0,0-.02,0-.03,0h.01s.02.02.03.02c0,0,.01,0,.02,0,.01,0,.02,0,.03,0h0s.01,0,.01,0c0,0,0,0,0,.02.02,0,0,0,.03.01.02,0,.03.02.04.02h.01s.01,0,.01,0h0s0,0,0,.01c0,.01,0,.02,0,.03,0,0,0,0,.01.02,0,0,.01.01.02,0h0s.01,0,.01,0c0,0,.02,0,.02,0,0,0,0,.01,0,.01.01,0,.01,0,0,0-.01,0-.01,0-.02.01,0,0-.01,0-.02.01-.01,0-.02.01.01.01.03,0,.02,0,.03,0h.02s.02,0,.02,0c.02,0,.02,0,.02,0,0,0,0,0,.02,0M6.79,11.41h.01s.01,0,.01,0h.02s.02,0,.02,0c0,0,.02,0,.03,0,0,0,0-.01.01-.01.02,0,0-.01,0-.02h-.01s0,0-.02,0c-.02,0,0,0-.05,0-.02,0,0,0-.02.01,0,0,0,0,0,0,0,0-.01.02,0,.02M6.12,11.42s.02,0,.03,0c.01,0,.02,0,.02,0,0,0,0-.01-.02-.02-.01,0-.02-.02-.03-.02,0,0-.02,0-.04,0-.02,0-.02,0-.03,0h0s-.01,0-.03,0c-.01,0,0,.01.01.01.01,0,.01,0,.02.01,0,0,0,.02.02.02.01,0,.01,0,.02.02h0s0,0,0,0c0,0,.01,0,.01,0,0,0,0,0,.01,0M6.71,11.37s.03-.02.01-.03c-.01,0-.03-.02-.04-.03-.01,0-.03-.01-.05-.01h-.01s0,0,0,0c.01,0,.02,0,.03,0,0,0,.02,0,.01-.01,0,0-.02,0-.03,0h-.01s0-.01,0-.02h-.01s-.02,0-.02,0c-.01,0,0-.01-.02-.01,0,0-.02-.01-.03,0-.01,0-.02,0-.02,0,0,0-.01,0-.02,0h-.01s0,0,0,0h-.01s0,0-.02,0c0,0-.02,0-.02,0h0s0,0-.01,0h-.03s0,.02,0,.02c.01,0,.03,0,.02.01,0,0,0,.01,0,.01,0,0-.01,0,0,.02.01,0,0,.01.01.02.01,0,.02.01.02.01,0,0-.02,0-.03,0-.01,0-.01,0-.03,0h-.01s0,0,0,0h-.02s-.01,0-.01,0c0,0-.03,0-.03,0,0,.01-.01.02,0,.02.01,0,.02,0,.02.01h.01s.01,0,.03,0c.01,0,.02.01.04,0,.02,0,.03,0,.05,0,0,0,.01,0,.02,0h0s-.01.03,0,.03c0,0,.02,0,.02,0,0,0,.01,0,.02,0,0,0,.01-.01.02-.02,0,0,.02-.01,0-.01h0s.02,0,.02,0c0-.01,0,0,.01,0s.02,0,.02-.01h.01s.01,0,.01,0c.01,0,.02-.01.03,0,.01,0,.02.01.03.02,0,0,0,0,.02,0,0,0,0,0,.01,0M10.83,8.81s.02,0,.02,0h-.01s-.01,0-.03.01c-.01,0,0,0,0,0h0s0,0,.01,0c.01,0,.02,0,.02,0,0,0-.02,0-.03.01-.01,0,0,0,0,0h.01s.01,0,.01,0h0s-.01,0-.01,0h0s0,0,0,0c0,0,.02,0,.03,0h.01s.02,0,.02,0h0s0,0,0,0h.01s.01,0,.01,0h0s0,0,0,0h0s0,0,0,0c0,0,0,0,.01,0,.01,0,.02,0,.02,0v-.02s0,.02,0,.02h0s.01,0,.01,0h.01s0,0,0,0c0,0,0,0,0-.01,0,0,0,0,.01-.01,0,0,0,0,0-.01h0s0-.03,0-.03c0,0-.01-.01,0-.01,0,0,0,0,0,0h0s0-.02,0-.02c0,0,0,0,0,0h0s0,0,0,0h.01s0-.01,0-.01h.01s0-.02,0-.02h-.01s0,0,0,0h0s0-.01,0-.01h0s0-.01,0-.01h0s0-.01,0-.01h-.01s-.01,0-.02,0h-.02s0,0,.01,0c0,0,0,0,0,0,0,0,0,0-.01,0,0,0,0,0,0,.02v-.02s0,0,0,0h0s0,0,0,0h0s0,0,0,.01c0,0,0,0,0,0,0,0,0,0-.01,0-.01,0,0,0,0,0,0,0,.01,0,.02,0,.01,0,0,0,0,0,0,0,0,0-.02,0,0,0,0,.01,0,.01,0,0,0,0-.02,0h0s-.01,0-.01,0h-.03s0,0,0,0h0s0,.02,0,.02c0,0-.01,0-.02,0h0s0,0,.02,0c0,0,.01,0,0,0s0,0,0,.01h0s-.01,0-.01,0c0,0,0,0,0,0,0,0,0,0,0,0h0s0,0,0,0h0s.02,0,.03,0c.01,0,.01,0,0,0-.01,0-.01,0-.02,0h0s0,.02,0,.02c0,0,0,0-.01,0-.01,0-.01,0,0,0s.01,0,.02,0c0,0,.02,0,.02,0h0s0,0,.01,0c0,0-.01,0-.02,0,0,0-.02,0-.03,0-.02,0,0,0-.02,0-.01,0,0,0,0,0h0s-.02,0-.02,0h0s0,0,0,0c0,0-.02.01,0,0h.02M11.02,8.7h0s0,0,0,0M7.67,9.21s0,0-.02,0c-.02,0-.03,0-.04,0h0s0,0,0,0c0,0-.02,0-.03-.02,0-.01-.01,0-.01.02,0,.02,0,0,0,0h0s0,.02.01.01c.01,0,0,0,0,0h0s.01,0,.01,0c.01,0,.01,0,.01,0h0s.01,0,.01,0h0s0,.01.02,0c.02-.01-.01-.01,0-.01.01,0,0,0,.02-.01M10.23,8.16h0s.04.01.06.02h.01s.04,0,.06,0c.01,0,.03,0,.04,0,0,0,0,0,.02-.01.01,0,.03,0,.04,0h.02s0,0,0,0c0,0,.02,0,.03-.01.01,0,.02,0,.04,0h0s.01,0,.02,0h0s0-.02.01-.02h0s0,0,0,0h0s0-.01,0-.01c0,0,0,0,0-.01h0s-.01,0-.01,0h.01s-.02-.02-.02-.02h-.01s-.01,0-.01,0h0s.02-.01.01-.01h-.01s0,0,.01-.01h0s0,0,0,0c-.01,0-.02,0-.03,0h-.02s0,0,0,0h0s-.02,0-.02-.01h-.02s0,0,0,0h0s0,.01,0,.01h-.02s0,0,0,0c-.01,0,0,.01-.02.01-.01,0-.02,0-.04,0,0,0,.02.01.01.01,0,0-.01,0-.02-.01h0s-.01-.01-.01-.01c0,0-.02,0-.03,0h0s0,.01,0,.01c0,0-.01,0-.01-.01h0s-.01,0-.02,0h0s0,.02,0,.02h0s0,.01,0,.01h0s0,0-.02,0h0s0,.01,0,.01h0s-.02-.02-.02-.02h.01s0,0,0,0c0,0,.01,0,0-.01h0s-.02-.01-.02-.01h0s0-.01-.02-.01c0,0-.02,0-.03,0h0s.01,0,.01,0h0s0,0,0,0h0s.01,0,.01,0c0,0,.01,0,0,.01-.01,0-.02-.01-.03-.02h-.01s0,0,0,0h0s-.01,0-.01,0h0s-.01,0-.01,0c0,0,.01,0,.02,0h0s-.01,0-.01,0h-.01s0,0,0,0h0s0,0,0,0c-.01,0-.02,0-.02,0h0s0,0,0,0c.01,0,.02,0,.03,0,.01,0,.02,0,.04,0h0s.01,0,.01,0c.01,0,.02,0,.03,0h0s-.03,0-.03.02h.01s0,0,0,0h.01s0,0,0,0c0,0-.02,0-.03,0,0,0-.02,0-.02,0-.02,0-.04,0-.06,0h0s0,0,0,0h0s.03,0,.05,0h0s0,.01,0,.01h.01s0,0,0,0h0s.02,0,.02,0h0s-.01,0-.01,0c0,.01-.03.01-.05.02h0s0,.01,0,.01h.02s.02,0,.02,0h.01M6.48,7.96s-.02.02-.03.03c.03,0,.04-.01.05-.02,0,0,0,0-.02,0M7.13,7.73s.05,0,.07-.01c0,0,.02-.03-.01-.03-.04,0-.05,0-.07.02,0,0,0,0,.02,0h.02s-.03,0-.06.01c-.04,0,0,.02.03.01M7.21,7.68s.04.01.06,0c.02,0,.02.02,0,.02-.02,0-.03.04.03.03.04,0,.05-.02.06-.02,0,0,.01.01.04.01.03,0,.05-.02.07-.02,0,0,0,0,0,0,0,0,0,0,0,0,.06,0,.05-.01.07-.01.03,0,.05,0,.08,0,.02,0,.03,0,.03,0,0,0,.01,0,.02,0,.02,0-.02-.04.02-.02.03.02.02.02.05,0,.03,0,.08,0,.05-.02-.03-.01-.02-.04-.06-.03-.04,0-.03.01-.04,0,0,0-.02,0-.04,0-.01,0-.03,0-.04,0-.01,0-.02,0-.03,0-.01,0-.03,0-.05,0-.02,0-.04,0-.06,0-.01,0-.03,0-.03,0,0,0-.02,0-.03,0-.01,0-.03,0-.03,0,0,0-.01,0-.02,0,0,0-.02,0-.02,0,0,0-.06,0-.03,0,.03,0,.06-.03.02-.03-.02,0-.02,0-.03,0,0,0,0,0-.03,0-.03,0-.06,0-.08.01-.02,0,.02.02.01.03M7.11,7.59s-.03.02-.01.02c.03,0,.05-.02.07-.02.02,0,.06,0,.05-.02,0-.01.02-.03-.03-.01-.06.01-.11.02-.1.03h.02s0,0,0,0M7.72,7.77s.04,0,.06-.01c.02,0,.03,0,.05,0,.02,0-.02-.01-.04-.02-.02-.01-.04,0-.06,0-.03,0-.03.01-.02.02,0,0,0,.02.02.02M7.42,7.61s.02,0,.02,0c0,0,0,0,.03,0,.02,0,.04,0,.03-.02,0,0,.02,0,.04,0,.01,0,.02,0,.03,0,.03,0,.06-.02.09-.03.03,0,.06,0,.04-.01-.02,0,0,0,.02-.02,0-.02-.02-.01-.05,0-.02,0-.04,0-.03,0,.03-.03-.01-.01-.04,0-.03,0-.05,0-.07.02-.02.01-.05,0-.09.02-.04.01.02.03-.02.04-.05,0-.01,0-.04.01-.03,0-.01.01.02.02M8.25,9.11s-.01,0-.02,0c0,0,0-.01.02-.02.01,0,0-.01,0,0,0,0-.02.01-.03.02h0s-.01,0-.01,0c0,0,0,.01,0,.02-.01.01,0,.02,0,.04,0,.01.02,0,.02,0,0-.01.02-.03.01-.02,0,.01,0,.02,0,.03,0,0,0,0,.01,0h0s.02-.02.02-.02c0,0,0-.02,0-.03,0,0,0-.02,0-.03M8.25,9.05s0-.01,0,0c0,0-.01,0-.02,0h-.02s0,0,0,0c.01,0,.02,0,.02-.01h0s0,0,0,0c0,0,.01,0,0-.01,0-.01-.02,0-.04,0h-.01s0,0,0,0c-.01,0-.03,0-.02,0h0s0,0,0,0c0,0-.02,0-.01-.01,0,0,0,0-.02,0,0,0,.03,0,.04-.01,0,0,0,0,0,0h0s0,0,0,0h0s0,0,0,0c0,0-.03.02-.04.03,0,0,.02-.02.03-.03,0,0,0-.01,0,0h0s0-.01,0-.01h.01s0-.01,0-.01v-.02s.01-.01,0,0c0,0,0,0,0,0,0,0,.02,0,.02-.01,0,0,0,0-.01,0h0s0,0,0,0c0,0-.01,0-.03,0-.01,0,0,.01-.02.02-.01,0-.02,0-.02,0,0,0,0,.01-.02.02l-.05.05s0,.02-.02.03c-.02,0,0,.01-.02.02-.01,0-.02.01-.01.01,0,0,0,0,0,0-.02,0-.02,0-.04.01-.02.01,0,.01-.02.02-.01,0-.01,0-.01,0h0s.02,0,.03,0c.01,0,0,0-.01.01-.01,0-.02.01-.04.02-.01,0,0,.01,0,.02,0,0,0,.01,0,.01,0,0,.02,0,.04,0,.01,0,.02,0,.02,0,0,0,0,0,.02,0,.01,0,.02,0,.03,0h.01s.02,0,.02,0h.01s0,0,0,0h.01s0,0,.02,0c0,0,0,0,0,0h0s0,0,.01,0c0,0,0,0,.02,0,.01,0,.03,0,.02,0,0,0-.02.01-.02.02,0,0-.02.01-.03.02,0,0,0,.01,0,.01,0,0,0,0,.02,0,0,0,.02,0,.03-.01,0,0,0-.01.02-.01,0,0,0,0,.01-.02h.01s0,0,0,0c.01,0,.02,0,.02-.02,0-.01.01-.01.01,0,0,0,.01,0,.03-.01.02,0-.03-.01-.02-.01,0,0,.02,0,.03,0,0,0,0,0,.01-.01M7.06,7.79s.07.02.08,0c.01-.02.05-.03.07-.04.02,0-.02-.01-.04,0,0,0-.02,0-.03,0-.03,0-.06,0-.07,0-.02,0-.05,0-.05.03,0,.01-.03.02-.02.03.01,0,.02.02.03.01,0,0,.03-.01.02-.02-.01,0-.04-.02,0-.01M7.14,8.2s0,0,.03,0c.02,0,.02.02.04,0,.03-.02-.02,0,0-.02.01,0,0-.02-.02-.02-.02,0-.03,0-.02-.02,0-.02-.04-.01-.04-.02,0-.01-.03,0-.04,0-.01.01,0-.01,0-.02,0,0,0-.02-.02,0-.02,0-.04.02-.06.04-.02.02-.06.03-.05.05-.06.01-.07.02-.08.03,0,0,.03,0,.05,0,.02,0,.02,0,0,.01-.02,0-.02.01,0,.02.02,0,.03,0,.05,0,.02,0,.02-.03.04-.03.02,0,.04,0,.05-.02,0-.01,0,0,.02,0,0,0,.01,0,.02,0,.02-.01.02,0,0,0,0,0,0,0,.01,0,.02,0,.04,0,.01.01M8.36,7.98s0-.03-.04-.02c-.03.02-.03.02-.03,0,0-.01,0-.02-.02-.01,0,0,0,0-.01,0,0,0,0,0-.01,0-.01,0-.01,0-.01,0,0,0,0,0,0,0,0,0,0,0,0,0,0,0,0-.01-.02,0-.02,0-.02,0-.03,0,0,0,0,0-.02,0,.02-.01.06,0,.04-.02,0,0-.03,0-.05,0-.02,0-.03,0-.04,0-.02,0,.1-.02.08-.03-.02-.01,0-.02-.02-.03-.02-.01-.03,0-.06.01-.03.01-.03.01,0,0,.02-.01.06-.02.04-.03-.02,0-.02,0-.05,0-.01,0-.01,0-.01-.01,0-.01,0-.02,0-.01,0,0-.01,0-.02,0,0,0-.02-.01-.04,0,0,0-.02,0-.03,0,0,0-.02,0-.03,0,0,0-.01,0-.02-.02,0,0-.02-.02-.04-.02-.05,0-.09,0-.05.03.03.02-.03,0,0,.03.01,0,.02.02,0,0h0s-.03-.03-.04-.02c0,0,0,0,0-.01,0-.01,0-.02-.02,0-.01.02-.02.01-.02,0,0,0,0,0-.02,0-.02.02-.06.04-.04.02.02-.02.03-.03,0-.03-.02,0,0-.01,0-.02-.01,0,0-.03-.02-.02-.02,0-.06,0-.1.01-.04.01-.03,0-.06.02-.03.01-.09.01-.04.02.02,0-.1.01-.04.04.04.01-.08,0-.07.04-.02-.01-.01-.04,0-.05.03,0,.02-.03.04-.04.02-.01.04-.03,0-.03-.05,0-.07,0-.1.01-.01,0-.03.01-.05.02-.03.02-.02.02-.06.04-.05.02.01.03-.02.03-.06,0,0,.06.05.04.05-.01.03,0,.06-.01.03-.01.02,0,.04,0,.02,0,.03.01.05,0t.03-.01s-.02.02,0,.02c0,0,.01,0,.01,0,0,0,0,0,.01,0,0,0,.01,0,.02,0,0,0,.01.01.02,0,.02-.01,0-.04.01-.02.02.01.02.03.04.02.03,0-.04-.02-.02-.03,0,0,.02,0,.02,0,0,0,.02,0,.03,0,.02,0,0-.04,0-.04,0,0,.04.03.05.02,0-.01,0,0,0,0,0,0,0,0,.02,0,.01,0,.02,0,.02,0,0,0,0,.01.02,0,.01,0,.01,0,.01,0,0,0,0,0,.01,0,.02,0,.05,0,.02.01-.02,0-.04.02-.01.02.01,0,.02,0,.02,0,0,0,0,0,0,0h.01s.02,0,.03,0c0,.01.03,0,.03.02,0,.02.03.03,0,.04-.03,0-.03,0-.06.02-.02.01-.07.02-.04.03.03,0,.04.02.07,0,.02-.01.05-.04.04-.02,0,.02,0,.03.03.03.03,0,.01,0-.02.01-.01,0-.02,0-.02,0,0,0-.01,0-.03.01-.03.02-.04.03-.04.01,0-.01,0-.01.01-.02.01-.01.01-.02,0-.02-.02,0-.05-.02-.06-.01-.01,0-.04,0-.05.02,0,.01.04.02.04.03-.03-.01-.07-.02-.06,0,0,0-.01,0-.03,0-.01,0-.03,0-.02,0,0,0,0,0-.03,0-.02,0-.04,0-.03,0,.01,0-.01,0-.04,0-.03,0-.07,0-.05,0,.02.01,0,.01-.03,0-.02,0-.04,0-.02,0,.04.02,0,0-.02.04,0,.03.01.01,0,.02,0,.01.01.01.03.01h.01s.03,0,.02,0c-.01-.01.02,0,.01-.01,0,0,0,0,.01,0,.01,0,.02,0,.02,0-.01,0,0,0,.03,0,.02,0,.04.01.03,0-.01-.02-.03-.04-.02-.03.01.01.03.03.05.02.02,0-.03.02,0,.02.03,0,.06,0,.07.02.01.01.03.02.04,0,.01-.01-.01.02.02.02.03,0,.06.02.06,0,.01-.04,0,0,.02,0h.01s.02,0,.02,0c0,0,.07.03.08.02,0,0,.02,0,.03,0,0,0,.02,0,.03,0,.02-.01-.02-.02,0-.02.02,0,.02-.01-.01-.01-.03,0,0-.02-.04-.02-.01,0,0-.02-.04-.03.05,0,.07.02.08,0,0,0,.01,0,.02,0,0,0,.02.01.02,0,0,0,.01,0,.02,0,0,0,.02,0,.02,0,0-.01.01,0,0-.02-.01,0,.02-.02,0-.02-.03,0,.03-.01,0-.02-.03,0-.01-.03-.04-.02-.03,0-.03,0-.02-.01.02,0-.02-.03,0-.02.03.01.03,0,.02-.01,0,0-.01-.02,0-.01.02.01.01.01.03,0,.02,0,.03,0,.04.01,0,.01,0,0,.01,0h0s.02,0,.03-.02c.01-.01-.02.03,0,.03.02,0,0,.02.02.01,0,0,0,0,.01.01,0,0,0,.02.02.01.02,0,.01-.02,0-.03h0s.02,0,0,0h0s.02,0,.01-.01c0-.02,0-.01.01,0,.01,0,.02,0,.02,0,0-.01.01-.01.02-.01.01,0,.02,0,.01,0,0-.01,0,0,.02,0,.01,0,.03,0,.02,0,0-.01.01,0,.03,0,.02,0,.03,0,.02,0-.01-.02.05-.01.02-.02M6.55,7.9h0s-.02.02-.03.03h0s.07-.02.04-.03M7.77,9.2h0s0,0,0,0c0,0-.04.03-.05.04-.01,0,0,.01-.01.03,0,0,0,0,.01,0h.01s.01,0,.01,0h.02s.02,0,.03-.01c.01,0,0-.01,0-.02,0,0,0,0-.02,0,.01,0,.01-.03,0-.02M7.22,7.6s.03,0,.04,0c0,0,.01,0,.02,0,.01,0,0-.02,0-.03,0-.01-.06,0-.09.03-.03.02,0,0,.04,0M7.69,7.56s-.06.01-.04.02c0,0,.03,0,.05,0,.01,0,.02,0,.03,0,.02,0-.03,0-.06.01-.03,0,.07.01.05.02-.03,0-.04,0-.07,0-.03,0-.05,0-.08,0-.03,0,0,.02-.03.02-.02,0-.05,0-.07.01-.03,0-.02.02,0,.02.02,0,.03,0,.04,0,.01,0,.02,0,.04,0,.04,0,.06.02.09,0,.03,0,.04-.02.06-.02.02,0,.05.02.07.01.01,0,.02,0,.03,0,0,0,.02,0,.03,0,.03,0,.04-.02.06-.02.02,0,.08,0,.05-.01-.02-.02-.04-.02,0-.02.04,0,.06,0,.05-.01-.01-.02-.01-.01.02,0,.02,0,.03,0,.04,0,0,0,.02,0,.02,0,.02,0,.08.02.1,0,.02-.02.04-.02.05,0,.01,0,.04.01.06,0,.02-.01.04,0,.05,0,.02,0,.04,0,.07,0,.08-.02.11-.02.16-.04.05-.02.09-.03.13-.03.04,0,.12-.04.02-.03-.05,0-.06,0-.08,0-.02,0-.02,0-.06,0-.08,0-.11.03-.17.02-.04,0-.06,0-.09,0-.02,0-.03,0-.04,0-.01,0-.02,0-.04,0-.03,0-.06,0-.1,0-.02,0-.04,0-.06,0-.01,0-.02,0-.03,0-.02,0-.05,0-.07,0-.01,0-.02,0-.03,0,0,0-.02,0-.03,0-.02,0-.05,0-.06,0,0,0-.08.01-.1.03,0,0,0,0,.03,0,.02,0,.04,0,.05,0,.02,0,.03,0,.05,0,0,0,.01,0,.02,0h.01s.03,0,.05,0c.01,0,.03,0,.04,0,.01,0,.02,0,.01,0-.02,0-.05,0-.07,0-.02,0-.04.02-.07.02-.03,0,0,.04-.02.04h-.02s-.01,0-.01-.01c0-.01-.04,0-.06,0-.08,0,.04.01-.09.02M6.72,7.83s.03,0,.04.01c.01,0,.02,0,.03,0h.01s.04,0,.06,0c0,.01.02.01.03,0,.02-.01.01-.01.03-.02.04-.02,0-.02,0-.02,0,0,.03,0,.05-.02.02-.02,0-.01-.01-.01,0,0-.01,0-.01,0,0,0,.04,0,.03-.01,0,0-.02,0-.04,0-.01,0-.02,0-.03,0,0,0-.01,0-.02,0,0,0-.02,0-.03,0,0,0-.01,0-.02,0,0,0-.01,0-.02,0-.01,0-.04,0-.03.01.01,0,.04.01.04.02,0,0,0,0-.03,0-.03,0-.08,0-.1,0,0,0,.02.03.03.03M6.86,7.7s.03,0,.05,0c.02,0,.03,0,.03,0,0,.02.02.02.05,0,0,0,.01,0,.02,0,0,0,.02.01.04,0,.02,0,.02-.01.03-.04.01-.03.04,0,.07-.03.03-.02-.05-.01-.09,0-.04,0-.04.02-.06.03-.02.02,0-.02.02-.04.02-.02-.03,0-.07,0-.04,0-.02.03-.02.04,0,.01,0,0,0,0h-.01s-.01-.01-.02-.01c0,0-.02,0-.04,0h-.02s.02.02.03.02c.02.01-.03,0,0,.03M14.88,11.25s-.03-.01-.04-.05c0-.02,0-.02,0-.02,0,0,0,0-.01-.01,0-.01,0-.01-.01,0,0,0-.01,0-.03-.01-.02-.02-.08-.04-.08-.05,0-.02-.03-.02-.05-.05-.03-.03,0-.06-.02-.06-.02,0,.02-.04-.01-.04-.03,0,0,.01-.04.03-.03.02,0,.03-.07.08-.03.02,0,.03-.02.03,0,0,0,0-.01,0,0,0,0,0-.01,0-.01,0,0,0-.01,0,0,0,0,0-.02,0-.01,0-.01,0-.01,0,0,0,0,0-.02,0-.05,0-.06,0-.06,0-.03-.01-.02-.05-.03-.04-.01,0-.02,0,0,0h0s0,0,0-.01c.01-.01-.02-.04,0-.05.02-.01-.02-.04-.03-.05-.01-.01-.02.01-.03.02h0s0,0,0,0c0,0-.01,0,.01.06-.02-.02-.03-.03-.04-.05,0-.02-.02-.03-.02-.05,0-.03-.01-.03-.01-.04,0-.02-.01,0-.04-.03-.03-.03-.04-.02-.03-.03.01,0-.01-.02-.03,0,0-.02,0-.02-.03-.08-.04-.06-.04-.06-.06-.05-.01-.04.04-.04.03-.05,0,0,.01-.02-.02-.03,0,0,0-.02.02,0,.03.03.01.01.03,0,.02,0,0-.01.01-.03,0,.01,0,.01.02.03.01,0,.02,0,.03,0,0,0,.02,0,.04.03.03.05.05.02.05.04,0,.02.04.02.04.06,0,.04,0,.02.03.03.02.01.03,0,.03.02,0,.01.01.01.01.01,0,0,0,0,.01,0,.02.03.02,0,.05.04.02.02.03.02.04.02,0,0,.02,0,.03,0,.02,0,.03,0,.05,0,0,0,.02,0,.03,0,.01,0,.02,0,.03-.01.01,0,.02-.02.06-.01.06.01.03.04.05.06.02.03.02.06.05.05,0,0,.02,0,.03,0,.01,0,.03.01.05,0,.03,0,.05,0,.06,0,.01,0,.02.01.02,0,0,0,.02,0,.03,0-.03-.11-.04-.22-.07-.32-.03-.1-.05-.21-.09-.31-.04-.1-.06-.21-.11-.31-.05-.1-.07-.2-.13-.29-.05-.1-.1-.21-.16-.31-.06-.1-.1-.19-.17-.28-.06-.09-.12-.19-.19-.28-.07-.09-.14-.18-.21-.27-.07-.09-.14-.16-.21-.24-.08-.08-.18-.17-.26-.25-.02,0-.16.02-.17.03h-.01s0,0,0,.01c.01.03,0,0,0,.03,0,.01,0,0,0,0h-.01s-.01,0-.02,0h-.01s-.02,0-.02,0h-.01s-.03-.02-.04-.02c-.02,0-.05-.03-.01-.02.04,0,.01-.01-.01-.02-.02,0,0-.01-.02-.02-.06-.01-.09-.03-.09-.02,0,0,.02.01.04.04.03.03,0,.04.02.04.03,0,.02,0,.02.01,0,.01.02.05,0,.03,0,0-.02,0-.02,0,0,0-.01,0,0,0,.02-.02-.02-.01-.04-.01,0,0,0,0-.01,0,0,0,0,0-.05,0-.03,0-.04,0-.05.02-.02.02-.02,0-.03.02-.01.02.09.03.08.05h-.01s-.02,0-.03,0c-.01,0-.02,0-.03,0-.01,0-.03,0-.06,0-.02,0,0,0,0,0,0,0,0,0-.02,0-.01,0-.02,0-.03,0,0,0-.01,0-.02,0,0,0-.02,0-.01.01.02,0-.02.01.05.02.03,0,.05.02.04.02-.01,0,0,.02-.02.01-.02-.01-.07,0-.08-.02-.01-.01-.02,0-.05-.01-.06-.01,0,0-.02-.02-.02-.01,0-.01-.02-.02-.03,0,0-.01-.01-.02,0,0,0,0,0-.02,0,0,0,0,0,0,0,0,0,0-.02,0-.01,0-.02,0-.03,0,0,0-.02,0-.03,0-.04-.02.02,0-.02-.02-.03,0-.01,0-.01,0,0,0-.06,0-.06-.02,0,0,0,0,0,0h.02s.02,0,.02,0h.01s.01,0,.01,0c0,0,0,0,.01,0h.01s0,.01.02,0c.02-.02-.02.02.13.03.12,0,.13.02.14.02.04-.01.05-.03.06-.03.01,0,0,0,0-.01.01,0-.03-.03-.04-.03h0s-.01,0-.01,0c0,0-.02,0-.03-.01-.02,0-.04-.02-.06-.01-.01,0-.04,0-.07-.01-.03,0-.05-.02-.06-.01-.01,0-.04,0-.07-.01-.02,0-.05-.02-.06-.01-.02,0-.04,0-.04,0h-.01s-.01,0-.02,0h0s-.04-.01-.05-.02c0,0,0,0,.01,0,.01,0,.03,0,.02,0,0,0-.06-.03-.05,0,0,.01,0,0-.01,0,0,0-.02,0-.03,0-.03,0-.02,0-.05-.01,0,0,.07.01.05,0-.02-.02-.03-.02-.05-.02h-.01s0-.02-.02,0h-.01s-.01,0-.01,0c-.01,0,.02-.02,0-.02-.03,0,0,.02-.02.02,0,0-.01,0-.01-.01,0,0,0-.02,0-.01-.01,0,0,.02-.04.04-.02,0,0,0,0-.02,0-.01.01-.03,0-.02-.01,0-.01,0-.02,0,0,0,0,0-.03,0-.04.03.02,0,0,.04-.02-.04-.03-.03-.04,0-.01-.02-.02-.01-.03,0,0,0-.01,0-.03,0,0,0-.02,0-.02,0,0,0-.02,0-.02,0-.01,0-.01,0-.02,0,0,0,0,0-.02,0-.01,0-.01,0-.01,0,0,0,0,0-.02,0-.01,0-.02,0-.03,0,0,0,0,0-.02,0-.01,0-.02,0-.02,0h-.02s-.02,0-.03,0c-.01,0-.02,0-.03,0-.02,0,0,.02-.02.02-.02,0,0,.01-.03.02-.02,0-.01.02-.03.02-.01,0,0,.02-.03.02-.03,0-.02.01-.03.01-.01,0-.01.01-.03.02-.02,0,0,.02-.02.02-.01,0,0,.01-.02.02-.02,0-.01.02-.04.03-.02,0,0,.02-.03.03-.02.01-.01.02-.03.02-.02,0,0,.01-.03.02-.03,0,0,0-.01.01.02.01.02,0,.06,0-.01.01-.02,0,0,.02-.02,0-.02,0-.03,0,0,0,0,0-.02,0-.03-.01-.01-.01-.02,0,0-.01-.04,0-.03,0-.01,0-.04,0-.04.01,0,0-.01,0-.03,0-.02,0-.02,0,0,.02-.02-.01-.02,0-.04,0-.01,0-.03,0-.05.02h-.01s-.01,0-.01,0c-.01,0-.01.01.02.02-.04,0-.03.02-.01.02h.02s.01,0,.03,0c.01,0,.01,0,.01,0,0,0,0,0,.02,0,.03,0,.03,0,.03,0,0,0,0,.02-.02.01-.02,0-.02,0-.02,0,0,0,0,0-.02,0-.01,0-.02,0-.02,0,0,0-.01,0-.03,0-.03,0,0,0,0,.01,0,0,0,.01.02,0-.01.01-.03,0-.02.01,0,.02.01.02.02.01h0s0,0,0,0c0,0,0,0,0,0,0,.01,0,0,0,0h.01s0,.02-.02,0c-.01-.01-.02.01-.01.04.02-.02.01-.02.01-.01h0s0,0,.04-.02c-.03.03-.03.02-.01.05h-.01s-.01-.01-.02,0c-.02.02.02.02.02.03,0,.01.02.02.05.01-.03.01,0,.01.02.02-.01.01-.01,0,0,0,0,0,.02,0,.03,0,.02.01.02,0,.05,0,.03,0,.03-.02.04-.02.02,0,.03-.02.02-.04.01.02.02.01.04.01.02,0,.02-.02,0-.04.01.01,0,0,.01-.02,0,.01,0,.02,0,.04,0,.01,0,0,.02,0h.02s0,0,0,.03c0,.03.02,0,.02.02,0,.01,0,0,0,0,0,0,0,0,0,0,0,.02,0,.01,0,.01,0,0,0,0,0,0,0,.02.01.04.03.05.02.01,0,0,.02.02.02,0,.01.02-.01.01,0,.01,0,.01.02.03.02.02.01.05.05.03.01,0,.02,0,.03,0,.01,0,.02,0,.02,0,0-.01-.01,0,0-.03,0-.02,0-.01.01-.01h0s.02,0,.05,0c.03,0,.03-.03.03-.03,0-.03,0-.04,0-.05.02-.02-.02-.03,0-.04.02-.01,0-.01,0-.02,0,0,0-.01-.03-.02,0,0,.01,0,.02,0,.02,0,.04,0,.03-.01.01.01.02.02.03,0h0s.01,0,.03-.03c-.04.01-.02,0-.07-.01.01,0,.02,0,.04,0,.01.01.02,0,.03,0,.01,0,0-.01-.02-.02-.03,0-.01-.01-.03-.02,0,0,0,0,0,0,0,0,0,.01-.02,0-.04-.03-.01-.04-.02-.06,0-.02,0-.02,0-.05,0-.01,0,0,0,0,0,0,.01,0,.02,0,0,0,0,0,0,0,0,0,0,0,.01,0,0,0,.02,0,.02,0,0,0,.01,0,.02,0h.01s0,0,.01-.01c0,0,.01,0,.02,0,0,0,.01,0,.02-.01.01-.02.01,0,.03-.03.02-.02-.02-.02,0-.04,0-.01.02,0,.02,0h0s0,0,0,0c0,0,0,0,.02,0,0,0,.02,0,.02,0,0,0,.02.01.02,0h0s.01,0,.01,0c0,0,0,0,.02.01.01.01.06,0,.07.03,0,.02.02.02,0,.02h-.01s-.01,0-.01,0c-.01.01,0,.01-.02.02-.02,0-.01.01-.03.01h0s0,0,0,0h0s-.01,0-.01,0c0,0,0,0-.01,0h0s-.01.01-.01.02h-.01s0,0-.01,0c0,0-.02,0,0,0,.01,0,0,.01,0,0,0,0-.02.01,0,.01.02,0,0,0,0,.01.01,0,0,0,0,.01,0,0,0,0,0,.02,0,0,0,0,.01.01,0,0,0,.01,0,.02.01.01,0,.03.02.02,0,0,0,0,0,0,0,0,0,.02.03,0,0,0,0,.03.01.02.02,0,0,.02,0,.02h.02s.01-.01.02-.01c.02,0,0,0,.03-.01.01,0,.02,0,.03,0,0,0,.01,0,.02,0h.01s.01,0,.03,0c0,0,.01,0,.02,0,.01,0,.03,0,.05,0,0,0,.01,0,.02,0,0,0,.02,0,.05,0,.04-.02.03,0,.02,0,0,0,.02.01.03.01.01,0,.02,0,.02,0,0,0,.01.01.03,0,.01,0,.02,0,.02,0h.02s-.02.02-.02.02c-.02,0-.04-.01-.05,0,0,.01-.01,0-.02,0,0,0-.01,0-.01,0,0,.01,0,0,0,0h-.01s0,0,0,.01c0,0-.01,0-.03,0-.01,0-.02,0-.03,0,0,0-.02,0-.03,0-.01-.01-.02,0-.02,0h-.01s-.01,0-.01,0h-.01s-.01,0-.01,0c0,0,0,0-.01,0,0,0,0,0-.01,0h0s0,.01-.03.01c-.02,0,0,0,0,.01-.01.01.02.02.02.02h-.01s.02.02.02.03c0,.01.02.01.02,0,0,0,.02,0,.01.02,0,.01.01.03,0,.04,0,.02-.02.01-.03.02,0,0-.02,0-.03,0-.01,0,0-.02-.02-.02-.01,0-.02-.02-.03-.02,0,0,0-.01-.02,0-.03.02-.02,0-.04.03-.02.02.01.03,0,.04-.02.01,0,.03,0,.05,0,.04.01.03,0,.04-.01.02-.02.01-.02,0,0,0,0-.02,0,0,0,0-.02.02-.03.02h0s-.01,0-.01,0c-.01,0,0,0-.01,0h0s.01,0,.01,0h0s-.01,0-.02,0v.02s-.02,0-.02,0h0v-.02s0,0,0,0h-.01s-.02.02-.02.01c0,0,0-.01,0-.02,0-.02.01,0,.01,0h0s-.01-.02-.02-.02c-.01,0-.04,0-.06,0-.03,0-.03.01-.05.02-.01,0-.02,0-.03,0,0,0-.01,0-.02,0-.02,0-.04,0-.05.01-.03,0-.01.02-.03.02h-.01s-.01-.01-.02-.01c-.02-.01,0-.01-.01-.02,0,0-.01,0-.01,0h0s-.01,0-.02,0c0,0-.01,0-.02,0-.01,0,0,0,0,0h0s0,0,0,0c0,0,0,0,0,0,0,0-.01.01-.03.01-.01,0-.02,0-.03,0,0,0-.02,0-.02,0,0,0-.02,0-.03,0h-.01s-.01,0-.01,0c-.02-.01.03,0,0-.02h-.01s0,0,0,0c0,0-.01,0-.02,0,0-.01,0-.01-.02,0,0,0,0-.01,0-.01h0s0-.01-.01-.01c0,0,0-.02,0-.02.01,0,0-.01,0-.01.01,0,0-.02.01-.02h0s0-.01,0-.01c0,0,.02,0,.01,0,0,0-.02,0-.03,0h0s-.01,0,0,0c0,0,0,0,0-.02,0-.01,0,0-.02-.01h0s0,0,0,0c-.01,0,0,0,0,.02,0,.01,0,0,0-.01,0,0,0-.01,0,0,0,0,0,0,0,.01,0,0,0,0-.01,0,0,0-.01-.01-.02,0,0,0,0,.02,0,.02h0s0,.02,0,.03h0s0,0,0,0c0,.01.01.01,0,.02,0,0,0,0,0,0h.01s0,.02,0,.02h0s.02.03.02.03h0s0,0,0,0c0,0,.02,0,.01,0,0,0,0,0,0,0h0s0,.02.01.02c.01,0,.02.01.03.02-.01,0-.01,0-.02-.01h-.01s-.01,0-.01,0c0,0,0,0-.01.01,0,0,0,0,0,.01h-.01s0,0,0,0h0s0-.01,0-.01c0,0-.01,0-.02,0h0s0,0-.02.01c0,0,0,0,0,0h0s0,0,0,0c0,0-.01,0-.02,0h-.01s-.02,0-.02,0h-.01s0,.02,0,.02c0,0,0,.01,0,.01,0,0,0,0,0,.01-.01,0,0,0-.01.01h-.01s0,0,0,0h0s0-.01,0-.01h0s0,0,0,0c0,0,0,0,0-.01h0s0,0,0,0c0,0,0,0,0,0,0,0,0,.01-.01.03,0,.02-.01.02-.02.03,0,.01,0,0,.02.01,0,0,0,0-.01,0h.01s0,0,0,.02h-.01s0,0,0,0h-.01s0,0,0,0c0,0,0,0-.02,0-.02,0-.03.02-.04.02-.01,0-.01,0-.03,0-.02,0-.01,0-.03,0-.02,0-.01.01-.01.02h0s0,.01,0,.03c0,.02-.02.02-.04.02-.02,0-.02,0-.03,0,0,0-.01,0-.02,0,0,0-.01,0,0,.01.01,0,0,0-.01,0h-.02s-.01.01-.01.01c0,0-.01,0-.02,0h-.01s-.01-.02-.01-.03h-.01s0,0,0,0c0,0-.02,0-.01,0,0,0,0,.01,0,.02,0,0,0,.01,0,.02,0,0,0,0,0,.02,0,0,.01.01,0,.01-.01,0-.02,0-.03,0h-.01s0,0,0,0h-.02s0,0,0,0c0,0-.01,0-.02,0-.01,0-.02,0-.02,0,0,0-.01,0-.03,0h-.01s-.01,0-.01,0h0s.03.02.02.02c0,0,.01,0,0,0,0,0-.02,0-.01,0,0,0,0,.01.02.02h.02s.02,0,.02,0c0,0,.02,0,.03.01.01.02,0,0,.03,0h0s0,.01,0,.01c0,0,.02,0,.02.01,0,0,0,.01.01.01.01,0,0,0,0,0h0s0,.02.01.04c0,0,.01,0,.03.02.02,0,.01.02.03.01.01,0-.01.01,0,.02.01,0,0,0,0,.02-.01.02.02.01.02.05,0-.01-.02-.03-.03-.01,0,.02,0,.05-.01.06,0,.01-.01.05-.02.06,0,0,0,.01-.02.01h0s-.01,0-.02,0c0,0-.03,0-.03,0,0,0-.02,0-.03,0h-.01s0,0,0,0c-.01,0-.01,0-.02,0,0,0-.01,0-.02,0,0,0-.02,0-.03,0-.02,0-.06,0-.07,0-.01,0-.02,0-.01,0,0,0,0,0-.01,0,0,0-.04,0-.06,0-.01,0-.04,0-.03-.01h0s-.02,0-.02,0c0,0-.01,0,0,0,0,0,0,0,0,0h0s-.01,0-.01,0c0,0-.01,0-.02.01-.01,0,0,0,0,.01,0,0,.02,0,.01.02,0,0,0,0,0,.01,0,.01,0,.02,0,.02.01,0,0,0,0,0v.02s0,.01,0,.01c0,0,0,.01,0,.02,0,0,0,0,0,.03,0,.02,0,.03,0,.05,0,.02,0,.02-.02.04,0,.02,0,0,0,.03,0,.02-.01.02-.01.02h0s0,.02,0,.04c0,.01,0,.02,0,.02,0,0,0,0,0,0,0,0,0,0,0,.02,0,0,.02,0,.03,0,0,0,0,0,0,.01,0,0,0,.02,0,.04h0s0,0,0,0c0,.01,0,.01-.01.02,0,0,0,.01-.01.02-.01,0,0,0,0,0h.01s.01,0,.01,0h0s.01,0,.01,0c0,0,.01,0,.03,0s.02,0,.02-.01c0,0,0,0,.02,0h.02s.02,0,.02,0h0s0,0,0,0c0,0,.02,0,.03.02,0,0,0,0,.01,0,0,0,0,0,0,.01h0s0,.03,0,.03c0,0,0,.01.02,0h0s0,0,0,0c.02,0,0-.01.03-.02.02,0,.05-.02.05-.01,0,0,0,0,.03,0,.02,0,.02,0,.04-.01.02,0,.02,0,.03,0h.02s.02-.02.02-.04c0-.01.02-.02.03-.02,0,0,.01-.01.02-.01.01,0,.01,0,.02,0h0s0-.02,0-.02c.01,0,0-.02,0-.02,0,0,0-.02.01-.03,0,0,.02-.01.01-.02-.01,0-.02,0-.02-.01,0,0-.02-.02,0-.05,0-.01.01-.02.02-.02.03-.02.04-.04.03-.03,0,0,0,0,.01,0,0-.01,0-.01,0-.02,0,0,.06-.03.07-.03.01,0,.01,0,.02-.01,0,0,.02-.01.03-.01h.01s0-.01,0-.01c0,0,0,0,0-.01,0,0,0-.02,0-.01,0,0-.02,0,0,0,.01,0,0-.01,0-.01h0s0,0,0,0c0,0,0,0,0-.02,0,0,0,0,.02-.02.02-.01.03-.03.04-.03,0,0,0,0,.02,0,.01,0,.02-.01.03-.01.01,0,0,0,.02.01.01,0,.02,0,.03.01,0,0,.02.02.02,0,0,0,.02,0,.03,0,0-.01,0-.02.01-.02,0,0,0,0,.01-.01.01,0,.01,0,.02,0h0s0,0,0,0c.01,0,.04-.01.05-.03.01-.01.04-.02.08,0,.04.01.03.04.05.05.02.01,0,.02.02.03.01,0,.03.03.04.04,0,.01.01.01.02.01.01,0,.01.01.02.02,0,0,.02.01.02.02s0,.01.01.02c0,0,.03.02.04.03,0,0,.03,0,.04,0,.01,0,.02.03.04.02h0s0,.02,0,.02c0,0,.03,0,.03.01,0,0,0,.01.02.02.01,0,.01.01.03,0,.01,0,.01,0,.01.02,0,.02.02.04.03.05,0,.01.02,0,0,.03-.01.01.01.02,0,.04,0,.01,0,.02.01.02.01,0,.03,0,.03-.03,0-.02.02-.02.03-.03,0-.01,0-.02,0-.03h0s0,0,0,0c0,0-.01-.01-.01-.02,0,0,0-.02-.02-.02-.01,0,0,0,0-.01v-.02s0-.01.01-.02c0,0,0,0,.02,0h.02s.01,0,.01,0c.02,0,.02.02.03.03,0,0,0-.01,0-.01,0,0,0-.01-.01-.02-.01-.01-.03-.01-.04-.02,0,0-.01-.01-.03-.03-.02-.01-.04-.01-.06-.02-.02-.01,0-.01,0-.02,0,0,0,0,0-.02h-.02s-.02,0-.02,0c-.01,0-.02,0-.04-.01-.02-.01-.02-.01-.04-.03-.02-.02-.02-.04-.04-.06-.01-.01-.02-.03-.03-.04-.02-.01-.03,0-.04-.02-.01-.01,0-.03-.01-.04,0,0,0-.02,0-.02,0,0,0-.01,0-.02,0-.01.01-.01.03-.02.02,0,.02,0,.02-.02h0s0,0,0,0c.01,0,.01,0,0,.01-.01,0,0,.03.01.04,0,.02.01,0,.02,0v-.03s.03,0,.03.04c0,.01.02.02.04.03.02.01.03,0,0,0-.02,0,0,.02.03.03.03.02.01,0,.04.03.01,0,.01,0,.02,0h0s.03.02.04.03c.01,0,0,0,0,0,.01,0,.02,0,.05.01.01,0,.01,0,.02,0h.01s-.02,0-.01,0c.01,0,.02.02.03.02.01,0,.01,0,.02.01h.02s0,.02,0,.02c0,0,.01.01.01.02,0,0,0,.02,0,.02,0,0,0,0,0,.01,0,0,0,.01,0,.02,0,.01,0,0,.02.02.01,0,0,0-.01,0-.01-.01,0,0,0,0,0,0,0,0,.01.02.02.02.02,0,.03.02,0,.01.03.02.03.02h0s.02,0,.03.02c0,.01.01,0,.02.02,0,.01.02.01.02.02,0,0,.01,0,0,0h0s0,0,0,0c0,0,0,0,0,0,0,0,.01,0,0,0-.01,0-.02,0-.02,0,0,0,.01.01.02.02,0,0,0,0,.01,0h.01s0,.01.02,0c0,0,.01,0,.03,0,.02.01,0,0,.02,0,.01,0-.01,0,0,.02,0,0,0,0-.02-.01h-.01s0,0-.02,0c-.01,0-.02,0-.02,0h-.01s-.01,0-.01,0h0s-.01.01,0,.02c0,0,.01.01.01.02,0-.01.04.02.02.03-.02,0,.02.02.03.03,0,0,.02.02.02,0,0-.01.01,0,.01.01,0,.01.01,0,.01,0,0-.01,0,0,.02,0,.01.01,0,0,0-.01,0,0,0,0,0-.02,0,0,0-.02,0-.02,0,0-.02-.02,0-.02,0,0,.01,0,.01,0,0,0,0,0,.02,0,0,0,0,0,0-.01,0,0,0-.01,0-.02-.01,0,0,0,.02,0,.01,0,.01,0,.02,0,0,0,.02.02.02,0,0-.02,0-.01,0-.03-.01-.01-.01-.02-.03-.02-.01,0-.02,0-.02-.01,0,0-.02-.01-.03,0-.01,0,0-.02,0-.02,0,0,0-.01-.01-.01,0,0-.01,0,0,0,0,0,0,0,0-.01,0-.01,0-.02,0-.01v.02s0,0,.01,0c0,0,0-.01-.01-.03-.01-.02,0,0-.02-.02-.01,0,0-.02,0-.02,0,0,0-.02,0-.02.01,0,.02,0,.02.01h.01s.01,0,.01,0c0,0,0,0,0,.01.01,0,.01,0,0,0,0,0,0,0,.01,0,0,0,0,0,0,0,0,0,0,0,.01,0,.01,0,0,0,0,0,0,0,0,0,0-.02,0,0,.02,0,.02-.01h.01s.01,0,.01,0c0,0,.02,0,.02,0h0s.02,0,.02,0c0,0,.02,0,.03,0,0,0,.02,0,.01,0,0,0,.01,0,.02,0,0,0,0,.02.02.02.01,0,.02,0,.03-.02.02,0,.02,0,0,0-.01,0-.02.01-.03.02-.01,0,0,0,.02,0,.01,0,.02-.02.04-.02.02,0,0-.01.01-.02.01,0,0-.02.02-.02h.02s.01,0,.01,0h.01s.02,0,.02-.01c0,0,0,0-.03-.01-.02-.01-.05-.03-.06-.04,0,0,0,0,0,0,0,0,0,0,0-.01,0-.01-.02-.02-.02-.02h0s0-.02.01-.02h0s0,0,0-.01c0-.02.01-.02.01-.03,0-.01,0,0,.01,0,0,0,.01,0,.01-.02,0-.01,0,0,0-.02,0,0,0-.01,0-.02,0-.01,0-.01,0-.02,0,0,0,0,0-.01,0,0-.01,0,0-.01.01,0,0,0,0,.01h0s.01-.01.01-.01v-.02s0,0,0,0c.03-.02,0,0,0-.02,0-.02.02-.01.02-.02,0,0,.01,0,0-.02-.01-.01,0-.01,0,0,0,0,0,.02.01.01.03-.01.02-.02.05-.02.02,0,0-.01.05,0,.04,0,.03,0,.03,0,0,0-.03,0-.04,0-.01,0-.02,0,0,0,.03.01-.03,0,0,.02h0s0,0,.02,0c.01,0,.02,0,.03,0h.01s.02,0,.02,0c0,0,0,0,.02.01-.03.01-.03.02-.04.03,0,0,0,.02,0,.02.05-.02.02.02.05.02.03,0,0,.03,0,.03.07.03.04-.01.07-.02.01,0,.02,0,.02,0,0,0,0,0,.01-.01,0,0,.02,0,.03,0,.01,0,.02,0,.02,0h0s0,0,0,0c0,0,.03,0,0-.01-.02,0-.03-.01-.05,0-.01,0-.02,0-.03,0,0,0-.01,0-.03,0,.02-.01-.03-.03-.03-.03,0,0,0,0-.02,0-.01,0-.02,0-.02-.01h0s0,0,.03,0c.02,0,.03,0,.02,0-.01,0-.04,0-.02,0,.02,0,.02,0,.03,0,0,0,.02-.01.03,0,.03,0,.02.01.04,0,.01-.01.02-.01.02,0,0,0,0,0,.02,0,.01-.01.02-.01.02,0,0,0,0,0,.02,0h.02c.08-.03.08-.02.06,0-.03.03-.05.02-.06.02,0,0,0,0,.02.02.03.03.02.03.01.02-.01,0-.03,0-.03.02,0,.03-.02.03-.03.03,0,0-.01,0,0,.01.01.03.09.02.16.09.03.02.02,0,.09.04.04.03.05.01.06.04.01.02.02,0,.03.04,0,.02,0,.03,0,.03-.05.06-.08.05-.11.04-.02,0-.03,0-.04,0-.03.01-.06,0-.08,0,0,0-.02,0-.02,0-.03,0,0-.02-.04-.02-.05,0-.02-.03-.06-.02-.02,0-.03,0-.03-.01-.01,0-.02-.02-.03,0-.01,0-.03,0-.05,0-.02,0-.05,0-.07,0-.04.02-.07,0-.1.04-.01.02-.04,0-.07,0-.03,0-.05-.02-.06,0-.02.03.03.01.07.03-.02,0-.09,0-.06.01.02,0-.06.01-.07,0h-.02s-.01,0-.01,0c0-.01-.03.01-.05.02-.02,0-.03,0-.02.02.02.03-.03.03.03.03-.04.01.01.02,0,.03,0,0,.02.01,0,.02-.01,0,.02.03,0,.02h0s0,.01-.01,0c0-.01-.03,0,0,.01.02.01,0,.05,0,.03.02-.01.02,0,.04,0,.04.02,0,.04.02.04.02,0,.02.02.03.01,0,0,.01,0,.01,0,0,0,0,.01-.01,0-.02,0,0,.01,0,.01h.05s-.06,0-.04.02h.02s.02,0,.02,0h.04s.05,0,.03,0c-.02.01.04.05.04.03,0,0,.06,0,.05-.03,0-.02.02-.02.05,0,.03.02.04,0,.08.05.01.01.07,0,.07,0,0,0,0-.01.03-.04.04-.03.03,0,.07.01h.01s.01-.02.02,0c.02.04-.02.01,0,.04,0,.01-.03.01,0,.03.04.02-.02,0,.03.09,0,.03-.02.02-.03.04,0,.02-.02.03-.02.06s-.01.02-.01.05c0,.03-.01.02-.02.06-.03.04-.06.03-.08.03-.01,0-.02,0-.03,0-.03,0-.05,0-.09-.02-.02,0-.02,0-.03,0,0,0-.01,0-.02,0,0,0-.07,0-.06.02,0,.01-.02,0-.05.03-.02.02-.02-.01-.04-.02-.04,0,0-.03-.03,0,0,0-.03,0-.05-.02-.03-.02-.09-.02-.1-.01-.03.02-.05-.01-.06-.02,0,.02,0,.08,0,.08,0,0,0-.06,0-.08-.01,0,0-.02-.03-.02-.03,0-.02,0-.03,0,0,0,0-.01-.03,0-.06,0,.02-.01-.05-.03-.05-.02-.05-.01-.05,0h0s.02,0-.03,0c-.06,0-.06.02-.09.03-.04.02-.03.05-.01.06.03,0,0,.09-.04.09-.04,0-.02,0-.08-.04-.06-.04-.09-.02-.12-.04,0,0-.02,0-.03,0-.02,0-.04,0-.05-.05,0-.03-.01-.03-.02-.03,0,0-.02,0-.03-.01-.02-.02-.03-.01-.04-.01-.01,0-.02,0-.04,0-.02-.01-.03,0-.04,0-.01,0-.03,0-.05,0-.03-.01-.03-.01-.06-.03-.02-.01-.02-.02-.03-.02-.03-.01.03,0,0-.02-.03-.02,0,0-.01,0-.01.01-.06,0-.05-.04.01-.03.03,0,.06-.04.03-.04,0-.04,0-.06,0-.02-.03-.02-.03-.05,0-.04.01-.01.01-.04,0-.02,0,0,0-.02,0-.02-.01,0-.04,0-.04.01,0,0-.02,0-.03,0,.02-.02,0-.02-.02,0,0-.03-.04,0-.03.02-.02,0-.07.03-.03,0-.03,0-.03,0,0,0,0,0,0,0-.04-.02,0,0-.03,0h-.01s0-.02-.02,0c0,.01-.02,0-.04.02-.01.01-.01,0-.02,0,0,0,0-.01-.02,0-.02,0-.03,0-.04,0-.01,0-.02,0-.03,0-.01,0-.02,0-.02,0,0,0,0,0-.02,0-.02.01-.01,0-.02,0,0,0-.02,0-.04,0-.07,0-.04.01-.07.02-.03,0-.05.04-.07.04-.02,0-.02.05-.05.02-.02-.01-.01,0-.02,0,0,0,0,.01-.02.01-.02,0-.02,0-.02.01,0,0,0,.02-.01.01-.02,0-.02,0-.02,0,0,0,0,0-.02,0h-.02s-.02-.01-.02-.02c0,0,0-.02,0,0-.02.03-.03.02-.03.02h-.01s-.03,0-.04-.01c0,0-.02,0-.03,0-.02,0-.03-.02-.03-.02,0,0-.02-.02-.03,0-.02.03-.03.02-.06.08-.07.14-.14.08-.15.14-.02.08-.03.04-.07.13-.02.05.04.05.03.08-.02.06-.1.08-.12.12-.02.05-.1,0-.13.06-.02.04-.02.02-.03.07-.03.1-.04,0-.08.12-.03.09-.09.11-.11.2-.02.09-.04.08-.06.14-.01.03,0,.03,0,.02,0,0,.01,0,0,0,0,.03,0,.05,0,.05.02,0,.02.04.02.05,0,.02,0,.02-.01.04,0,.02-.01.03,0,.02.01,0-.01.02-.01.02.05.06.02.11.03.14,0,.06-.04.05-.02.11-.02.03-.01.03-.04.08-.03.05-.03.04-.04.06-.01.02-.04.02,0,.02.03,0,0,0,.02.02.03.01,0,0,.01.02,0,0,.01,0,.02,0,0,0,.01,0,.03,0-.02,0-.03,0-.02.02.02.02-.01,0,0,.03.02.03,0,.03.02.03.02,0-.02-.02.06-.02-.07.01-.03.02-.05.03-.01,0-.02,0-.02,0,0,0,0,0,0,.01,0,.01,0,.04,0,.03.01-.01.02-.01.02,0h0s.02,0,.02,0c0,0,0,0,.01,0,.01,0,.02,0,.02,0,0,0,0,0,.02,0h0s-.01,0-.01,0c-.01-.01-.02,0-.02,0h-.01s-.02,0-.02,0c0,0,0,0-.01,0-.03,0,0,0-.03,0s-.01.02,0,.02c0,0,0,0,.03,0-.02,0-.03,0,0,.02.01,0,.02,0,.02,0h0s-.01,0,0,0c0,0,.01,0,.03,0,.01,0,.03,0,.03,0,0,0-.02,0-.05.02.01,0,0,.02.02.02.01,0,0-.02.03-.02-.02.01,0,.03,0,.02-.01,0-.01.02-.01.02.01,0-.01.01.02.02-.01.02.01.05.03.05,0,.01.03.02.02.03-.01.02,0,.04.03.04-.02,0,.02.05.04.05,0,.01-.03.02,0,.02,0,0,.02.01,0,.02-.01,0,.02.02,0,.02h0s0,.01,0,0c-.02,0,0,.02.01.02v.02s0,0,.02.02c.01,0,.02,0,.02,0h0s0,0,.01,0h0s.02.02-.01.01c0,0,0,0,.02.02.02,0,.04.02.05.02.05.03,0,.01.02.03.03.02.02.03.05.03,0,0-.01.02.04.05.05.02.03.04.05.05.03,0,0,0,.02.02.06.02.03.04.08.03,0,0,0,.02.03.02.05-.02.08-.03.08-.07.02.05.04.01.12,0,.02,0,.04,0,.06,0,0,0,.01,0,.01,0,0,0-.01,0-.02,0,0,0-.02,0-.02,0,0,0,0,0,.02,0h.01s.02,0,.02,0c0,0,.01,0,.03,0,0,0,.03.01.05.01.05,0,.03.02.05.02s0,0,.05-.01c.05,0,.05-.01.07-.02.02-.01.03-.01.01-.02h.01s.01.02.03-.02c.02,0,.04,0,.06-.01.02,0,.03,0,.02,0-.01,0,.02,0,.02,0h0s0,0,.02,0c.03,0,.03,0,.03,0,0,0,0,0,.03,0-.03,0,.02.02.03.01.03,0,.08.03.07.04,0,.02.02,0,.02,0,0,0-.02.01-.01.02,0,0,0,.02,0,.02.01,0,0-.02.02-.01-.02,0,0,.01-.02.02-.01,0-.02,0,0,.02.02.01,0,0,.02.02.03.02.05.03.06.03,0,0,0,0,.01,0,0,0,0,0,.01,0,0,0,0,0,.01,0h.01s0-.01.02-.02c.01.03.03.02.03,0,.02.01.04,0,.03-.01,0,0,.02,0,.03.02h0s0,0,0,0c0-.02,0,.02.03.03.01,0,.02,0,.02,0h0s.01,0,.01,0c0,0,.01,0,0,0-.02.01.03.02,0,.02s.01,0,0,.02c0,.01.02.02,0,.05-.01.02,0,.03,0,.07,0,0-.02.02-.02.03,0,.02-.03.03-.02.05,0,.01,0,.01.02,0,0,0,.02,0,.03,0-.05.02,0,.05-.04.04-.02,0,.01.03.03.03.01,0,0,.02,0,.02-.04-.01-.03-.03-.04-.02,0,0,0,.04-.01.05-.01.02,0,.04-.04.02,0,0,0,.02.01.04,0,.02.02.04.02.04.02,0,0,.02,0,.02-.01,0,0,.03.02.04.02.01,0,0,0,0,0,0,.06.05.06.06,0,.02.05.04.04.05-.02.02.02.01,0,.02-.01,0,.01,0,.05.07,0,.02.01.02.03.02h.01s0,.01-.01,0c-.04,0,.01.03,0,.04,0,0,.01.03,0,.03-.01,0,0,.02,0,.02,0,0,.01.03.03.01,0,0,.01,0,.02,0,0,0,0,0,.02,0,0,.01-.04.02-.06.03-.02,0,.02.02.03.07,0,.04.04.09.03.14-.02.07,0,.03,0,.07-.01.05.05.09.03.18-.02.09-.03.03-.05.08-.03.06-.02,0-.06.08-.04.09,0,.22-.04.24-.03.02,0-.02-.01.12,0,.1.06.15.06.2,0,.08.12.24.11.26-.02.05,0,.02,0,.07-.01.05.05.23.04.25,0,.01.01.07.04.11,0,.01.02.02.03.03.02.01,0,.16.06.21.05.03,0,.06.02.09.01.04,0,.03-.02.05.03.03,0,.04.02.06.03.03-.02.05.04.07,0,0-.02-.02,0-.03,0,0,.02,0,.04.02.02.02.04.03.08,0,.02-.01.03-.01.04-.01,0,0,.01,0,.02,0,.02-.01.03,0,.05-.02,0-.01.02,0,.04,0,0,0,.02,0,.02,0,.02,0,.05,0,.07,0,.02.01.03,0,.03,0,0,0,0-.01.02,0,.05.01.03-.03.07-.03.1-.01.12-.09.15-.11.03-.02.06-.1.09-.11.07-.02.12-.21.18-.22.05,0,.04-.02.08-.16.01-.05-.05-.05.07-.1.1-.04.12-.11.12-.12,0-.04.04-.05.03-.09,0-.04,0-.06,0-.08-.02-.05,0-.08-.02-.08-.03-.01,0-.09.06-.12.04-.02.11-.13.17-.14.05,0,.04-.04.05-.03.04,0,.1-.05.12-.09.03-.05.02,0,.05-.06.04-.07.04-.05.02-.13-.02-.07.02-.09,0-.14-.01-.05.02-.06.01-.09,0-.03.01-.06,0-.09-.02-.03-.03-.03-.03-.06,0-.08-.05-.08-.02-.13.03-.04,0-.03.02-.06.04-.06-.09-.05-.03-.13.05-.07.02-.07.05-.11.01-.01.01,0,.02-.03,0-.03.02-.03.03-.07,0-.06.01-.03.01-.07,0-.06.04-.05.1-.11.01-.01.02-.01.04-.07.03-.06.08-.07.12-.13.04-.07.08-.06.14-.13.06-.08.12-.12.13-.18,0-.04.09-.06.09-.16,0-.07.07-.14.07-.19,0-.02,0,.01.03-.07.02-.04,0-.04,0-.04,0,0,0,0,0,0,.02-.04,0-.07,0-.06.02,0-.02-.01-.01-.07,0-.03-.03-.02-.05-.02,0,0-.07.05-.11.05-.02,0-.03,0-.03,0,0,0-.01,0-.04,0-.03,0-.04,0-.05.01-.01,0-.02.02-.06.01-.05,0-.05,0-.09.03-.04.02-.11-.06-.13-.08h0s0,0-.04,0c-.03,0,0,0,.01-.01.01,0,.04,0,.05-.03,0-.04-.03-.05-.05-.09,0,0,0,0-.01,0-.01,0,0-.02-.04-.05-.04-.03-.06-.09-.09-.09-.02,0-.01-.02-.05-.02-.03,0-.03-.06-.04-.04,0,.01-.02.01-.04-.07-.02-.09-.03-.08-.08-.16-.01-.03-.02-.04-.03-.03,0,0,0,0-.01,0,0,0-.01-.02-.02-.01-.02,0-.02-.03-.03-.05,0-.01-.01-.1,0-.11.02-.01-.04-.07-.04-.1,0-.03-.01,0-.06-.07-.03-.04.01,0-.03-.05-.04-.06.04-.01,0-.05-.04-.04-.06-.04-.07-.09-.01-.05-.04-.04-.1-.14-.03-.05.03,0-.01-.05-.04-.04,0,0-.03-.04-.03-.04-.03-.05-.05-.07-.03-.03.01-.03-.03-.07-.02-.03,0-.03-.02-.08.01.03.02.06.04.08.02.02.02.04.04.06.03.03.03.05.06.08.03.03.03.04.05,0,.02-.03,0-.03,0-.07.01-.04,0-.05,0-.08.03,0,.07.05.07.05,0,0-.04-.05-.07-.05,0,.01.02.01,0,.04-.01.02.01.02,0,.06-.01.03.02,0,.03.04.01.05.06.06.05.07-.01.01.02.03.09.14.05.08,0,.01.04.09.01.02.05.01.07.04.01.02.03.02.03.04,0,.04.04.11.06.16.03.05-.03.01,0,.05.02.02-.01.02.05.07.11.08.07.11.12.16.05.05.05.05.08.1.03.05,0,.04.03.06.02.02-.01.01,0,.03.02.13.03.11.03.12,0,.05.03.08.02.1-.01.02.01.04.02.06,0,.01.1.02.1,0,0-.01,0-.01.01-.01,0,0,.01,0,.03-.01.03-.03.1,0,.12-.04.02-.03.09,0,.12-.05.02-.04.14-.05.15-.07.02-.02.09-.02.07-.04-.04-.03.03-.06.05-.07.03-.01.02,0,.05-.02.02-.02.06,0,.09-.03.03-.03,0-.03.01-.04.01-.02.09,0,.08-.05,0-.02.02-.07.06-.06.04.01.02,0,0-.04-.02-.05.01-.12.03-.1.02.03.04-.1.05-.11.01,0,0-.03,0-.02M14.19,14.09s-.01,0,0-.01c0-.02,0-.03-.04,0-.02.02-.02.02-.01.04,0,.01-.03.03-.04.07,0,.02,0,.01-.01,0,0,0,0-.01-.02,0-.02.02.02.05,0,.05-.02,0,0,0-.03.05-.02.03-.03.02-.03.01,0,0,0,0,0,0-.02.02-.03.02-.04.06,0,.02-.02.01-.04.01-.02,0-.05,0-.06.02,0,.01-.01.01-.02.01-.01,0-.02,0-.03.03-.01.05-.04.05-.04.12,0,.07-.01.07,0,.12,0,.05-.01.04-.03.09-.02.06-.04.02-.07.11-.03.09.02.09.01.17-.01.09.11.12.16.08.02-.01.07-.02.12-.12.04-.08.05-.12.06-.17.01-.05.03-.1.08-.19.05-.09.02-.13.08-.2.02-.02-.03-.05,0-.09h.02s.02.01.02,0c.02-.01-.02-.25-.03-.25M10.48,8.68h0s0,0,0,0h0s0,0,0,0c.02,0,0,0,0,0-.01,0,0,.01,0,.02,0,.01,0,0,0,.01,0,0,0,.01,0,.03,0,.01,0,.02,0,0,0-.01.01-.02.01-.02h0s.02,0,.03-.02c0,.01.01.01.01.01,0,0-.02,0-.02,0,0,.01.02.02.01.02,0,0,0,0-.02.02,0,0,0,.01,0,.02h0s.01.02.01.02h0s.01-.01.02,0h0s0-.01.01,0h0s0,0,0,0h0s0,0,0,0h.02s-.01,0-.02.01c0,0-.01.01,0,.03.01.02,0,0,0,0h0s.01,0,.01,0c.01,0,0,0,0,.02,0,.01,0,0,0,0,0,0-.01,0-.01.01,0,0,.01.01.02,0,0,0-.01,0-.01,0h0s0,0,0,0c0,0,0,0-.01,0h-.02s-.02,0-.02,0c0,0,0-.02-.02,0-.02.01.03,0,.02.01-.01,0,0,.01-.02.01-.01,0-.02.01-.01.01h0s0,0,0,0c0,0,0,0,.02,0-.01,0,0,0,0,0h0s0,.01,0,.01c0,.01-.02.02-.03.02-.01,0-.02,0-.03,0-.01,0,0,0,0,.02h0s0,0,0,0c0,0,.01,0,.02,0h0s0,0,0,0h0s0,.01,0,.01c0,0,.01,0,.01,0,0,0,0,.02.02.02.02,0,.01,0,.02,0,.01,0,0,0,.03-.01-.01,0-.01.02-.02.01h-.02s-.02.02-.03.01c0,0,0,0-.03,0,0,0,0,.01-.01.01-.01,0,0,0-.01.02-.01,0-.02,0-.03.02,0,0-.02.01-.03.01-.01,0,0,0,0,0h.01s0,0,0,0c0,0,0-.01,0-.01.01,0,.01-.01.02,0h.02s0,0,0,0h.01s.02.01.02.01v-.02s.02,0,.03,0c0,0,.02,0,.03,0h0s.01,0,.01,0c.01,0,.02,0,.01,0,0,0,.01,0,.02,0,0,0,.01,0,0-.01,0,0,0,0,0,0h.01s0,0,0,0c0,0,0,0,.01,0,0,0,.02,0,.04,0,.01,0,.02,0,.03,0h.01s0,0,.03-.01c.01,0,0-.01,0-.02,0,0,0,0-.01,0h-.02s-.03,0-.03,0h.01s.01,0,.02,0c0,0-.01,0,0-.01h0s0,0,.01,0c0,0,0-.01,0-.01,0,0,0,0,.02,0,.01,0,0,0,0-.02.01-.02-.02-.04-.03-.04-.01,0-.03,0-.03,0,0,.01,0,.01-.02,0-.01,0-.01,0,0-.01.01,0,.01-.02,0-.03-.01,0-.02,0-.03-.02.01,0,.02.01.03.01,0,0,0-.01-.02-.02-.01-.01.02,0,0-.01,0,0-.01-.02-.04-.02,0,0-.01,0-.01-.01,0-.02,0-.01-.01-.04,0-.02,0-.01-.02-.02h0s0,0-.01-.01c-.02-.01,0,0-.03,0-.01,0-.02,0-.03,0h0s.02,0,.03,0h0s0,0,0,0c0,0,0,0,0,0,0,0-.02,0-.02,0,0,0,0,0,.02,0,.01,0,.02,0,.02-.02,0-.01.02-.01.01-.02,0-.01.01-.01.01-.02,0-.01,0-.01-.01-.01h-.01s-.01,0-.01,0c0,0,0,0-.02,0-.02,0-.03,0-.04,0,0,0-.02,0-.01,0,0,0,0,0,0,0,0,0,0,0,.01,0h-.02s.01-.01.01-.01c0,0,.02-.01.03-.02.01,0,0,0,0-.02h-.01s-.02,0-.03,0c0,0-.02,0-.02,0h0s0,0,0,0c0,0,0-.01-.01,0-.02,0,0,.02,0,.01h0s0,0,0,0c0,0,0,.01,0,.01,0,0,.02.02.02.02h-.01s0,0-.02,0c-.01,0,.01.01,0,.02,0,0,.01.01,0,.02-.01,0,.02.01,0,.01s0,0-.01,0c0,0,0,0-.02.01,0,0,0,0,0,0,0,0,.02,0,.01,0M10.22,8.94s.02,0,.02,0h-.01s-.01,0-.03.01c-.01,0,0,0,0,0h0s.01,0,.01,0c.01,0,.02,0,.02,0,0,0-.02,0-.03.01-.01,0,0,0,0,0h.01s.01,0,.01,0h0s-.01,0-.01,0h0s0,0,0,0c0,0,.02,0,.03,0h.01s.02,0,.02,0h0s0,0,0,0c.01,0,0-.01.02,0h0s0,0,0,0h0s0,0,0,0c0,0,0,0,.01,0,.01,0,.02,0,.02,0v-.02s0,.02,0,.02h0s.01,0,.01,0h.01s0,0,0,0c0,0,0,0,0-.01,0,0,0,0,.01-.01,0,0,0,0,0-.01h0s0-.03,0-.03c0,0-.01-.01,0-.01,0,0,0,0,0,0h0s0-.02,0-.02c0,0,0-.01,0,0h0s0,0,0,0h.01s0-.01,0-.01h.01s0-.02,0-.02h-.01s0,0,0,0h0s0-.01,0-.01h0s0-.02,0-.02h0s0-.01,0-.01h-.01s-.02,0-.02,0h-.02s0,0,.01,0c0,0,0,0,0,0-.01,0,0,0-.02,0,0,0,0,0,0,.02v-.02s0,0,0,0h0s0,0,0,0h0s0,0-.01.01c0,0,0,0,0,.01,0,0,0,0-.01,0-.01,0,0,0,0,0,0,0,.01,0,.02,0,.01,0,0,0,0,0,0,0,0,0-.02,0,0,0,0,.01,0,.01,0,0,0,0-.02,0h0s-.01,0-.01,0h-.03s0,0,0,0h0s0,.02,0,.02c0,0-.01,0-.02,0h0s0,0,.02,0c0,0,0,0,0,0s0,0,0,.01h0s-.01,0-.01,0c0,0,0,0,0,0,0,0,0,0,0,0h0s0,0,0,0h0s.02,0,.03,0c.01,0,.01,0,0,0-.01,0-.01,0-.02,0h0s-.01.02-.01.02c0,0,0,0-.01,0-.01,0-.01,0,0,0s.01,0,.02,0c0,0,.02,0,.02,0h0s0,0,0,0h0s-.01,0-.02,0c0,0-.02,0-.03,0-.02,0,0,0-.02,0-.01,0,0,0,0,0h0s-.02,0-.02,0h0s0,0,0,0c0,0-.02.01,0,0h.02M10.41,8.83h0s0,0,0,0M11.78,9.94h0s0,0,0,0h0s0,0-.02,0c0,0-.01,0-.02,0h-.01s-.02,0-.02,0h-.02s-.01,0-.02,0h-.02s-.01,0-.02,0c-.01,0-.02,0-.03.01-.01.01,0,.02.02.02.01,0,.02.01.03.02.01,0,.01.02.04.02.02,0,.03,0,.04.02h.01s.01,0,.02,0c0,0,0,0,.01-.02,0-.01,0-.02,0-.03,0,0,0-.01,0-.02.01,0,.01-.02.02-.04M11.31,8.64s0,0-.02,0c-.01,0-.02,0-.03.02h-.01s0,0,0,0h0s0,0,0,0h-.01s0,.02,0,.02c0,0,0,0,.01-.02h.01s.01,0,.01,0c0,0,0,0,.02,0,0,0,.02,0,.02.02,0,.01,0,0,0,0,0,0,.01-.01,0-.02,0,0,0-.01,0-.01M11.33,8.78s-.01,0-.02,0h-.02s0,.01,0,.01h.02s.03.02.04,0c0,0,0,0,0-.02h0s0,0,0,0M11.36,8.76s0,.02,0,.03c0,0,.01,0,.02,0h.01s-.02,0,0,0c.02,0,.04.01.03,0,0,0,0-.01,0-.02.02,0-.01-.02,0-.02.01,0,0-.01,0-.02,0-.01,0-.01,0-.01-.01,0-.01,0-.02,0h0s.01,0,0,.01c0,0,0,0,0,0,0,0,0,0,0,0,0,.01,0,0-.01,0,0,0-.02,0-.01,0,0,0,0,0,0,0-.01,0-.03,0-.03.01M11.31,9.77s.01.02,0,.03c0,0,.01.02,0,.02,0,0,0,.02,0,.04,0,.01.02.02.02.02h0s.01,0,.01,0c.01,0,0-.02,0-.02h0s.01.01.01.01c0,0,0-.02,0-.03v-.02s0-.02,0-.02c0,0,.01,0,0-.02v-.03s-.01-.01-.02-.02c0,0,0,0-.02,0-.01,0,0,.01-.02.01,0,0-.02,0-.02,0h0s0,.01,0,.01v.02M11.3,9.64s0,.02,0,.02c0,0,0,.02,0,.02h0s0,.02.01.02h.01s0,.02,0,.02c0-.02,0-.02,0-.03,0-.01,0-.03,0-.04,0,0,0-.02,0-.03,0-.02,0-.02,0,0h-.01s0,0-.01.01c0,0-.02,0-.01,0,0,0-.01.01,0,.01"/>
  </g>
</svg>