<?xml version="1.0" encoding="UTF-8"?>
<svg id="_Слой_1" data-name="Слой 1" xmlns="http://www.w3.org/2000/svg" xmlns:xlink="http://www.w3.org/1999/xlink" viewBox="0 0 312.51 126.98">
  <defs>
    <style>
      .cls-1 {
        fill: url(#_Безымянный_градиент_119);
      }

      .cls-1, .cls-2, .cls-3, .cls-4, .cls-5 {
        stroke-width: 0px;
      }

      .cls-2 {
        fill: url(#_Безымянный_градиент_221);
      }

      .cls-2, .cls-5 {
        fill-rule: evenodd;
      }

      .cls-6, .cls-7 {
        fill: none;
      }

      .cls-6, .cls-7, .cls-8, .cls-9, .cls-10, .cls-11 {
        stroke-miterlimit: 10;
      }

      .cls-6, .cls-7, .cls-9, .cls-10 {
        stroke: #fff;
      }

      .cls-6, .cls-8 {
        stroke-width: .75px;
      }

      .cls-12 {
        font-size: 12.15px;
        letter-spacing: 0em;
      }

      .cls-12, .cls-13 {
        font-family: Tahoma, Tahoma;
      }

      .cls-7, .cls-9, .cls-10 {
        stroke-width: 2px;
      }

      .cls-13 {
        font-size: 12.67px;
        letter-spacing: .01em;
      }

      .cls-3 {
        fill: url(#_Безымянный_градиент_5);
        filter: url(#drop-shadow-2);
      }

      .cls-4, .cls-14 {
        fill: #fff;
      }

      .cls-8 {
        fill: url(#_Безымянный_градиент_138);
        stroke: #16478e;
      }

      .cls-14 {
        filter: url(#drop-shadow-1);
        font-family: Tahoma-Bold, Tahoma;
        font-size: 14.25px;
        font-weight: 700;
        letter-spacing: 0em;
      }

      .cls-5 {
        fill: url(#_Безымянный_градиент_240);
      }

      .cls-9 {
        fill: url(#_Безымянный_градиент_5-3);
      }

      .cls-10 {
        fill: url(#_Безымянный_градиент_5-2);
      }

      .cls-11 {
        fill: url(#_Безымянный_градиент_7);
        stroke: #b42d08;
      }
    </style>
    <linearGradient id="_Безымянный_градиент_119" data-name="Безымянный градиент 119" x1="262.64" y1="175.14" x2="49.82" y2="-45.23" gradientUnits="userSpaceOnUse">
      <stop offset="0" stop-color="#001b9b"/>
      <stop offset=".22" stop-color="#0033be"/>
      <stop offset=".52" stop-color="#0058f3"/>
      <stop offset=".71" stop-color="#025af3"/>
      <stop offset=".81" stop-color="#0961f4"/>
      <stop offset=".88" stop-color="#176ff7"/>
      <stop offset=".95" stop-color="#2981fa"/>
      <stop offset="1" stop-color="#3f97ff"/>
    </linearGradient>
    <filter id="drop-shadow-1" filterUnits="userSpaceOnUse">
      <feOffset dx="1" dy="1"/>
      <feGaussianBlur result="blur" stdDeviation="0"/>
      <feFlood flood-color="#000" flood-opacity=".75"/>
      <feComposite in2="blur" operator="in"/>
      <feComposite in="SourceGraphic"/>
    </filter>
    <linearGradient id="_Безымянный_градиент_138" data-name="Безымянный градиент 138" x1="152.91" y1="110.81" x2="152.91" y2="86.13" gradientUnits="userSpaceOnUse">
      <stop offset="0" stop-color="#6982ee"/>
      <stop offset=".03" stop-color="#6f88ee"/>
      <stop offset=".14" stop-color="#87a0ef"/>
      <stop offset=".27" stop-color="#9ab3f0"/>
      <stop offset=".42" stop-color="#a7c1f1"/>
      <stop offset=".62" stop-color="#aec8f1"/>
      <stop offset="1" stop-color="#b1cbf2"/>
    </linearGradient>
    <linearGradient id="_Безымянный_градиент_7" data-name="Безымянный градиент 7" x1="297.07" y1="27.55" x2="297.07" y2="5.49" gradientUnits="userSpaceOnUse">
      <stop offset="0" stop-color="#c83004"/>
      <stop offset="1" stop-color="#e97b62"/>
    </linearGradient>
    <radialGradient id="_Безымянный_градиент_240" data-name="Безымянный градиент 240" cx="-3774.69" cy="-1158.73" fx="-3774.69" fy="-1158.73" r=".12" gradientTransform="translate(-278073.5 87037.78) rotate(-178.7) scale(73.23 -80.53) skewX(-.26)" gradientUnits="userSpaceOnUse">
      <stop offset="0" stop-color="#b4e0f9"/>
      <stop offset="0" stop-color="#b4e0f9"/>
      <stop offset=".33" stop-color="#2c89fc"/>
      <stop offset=".49" stop-color="#2c76f1"/>
      <stop offset=".78" stop-color="#2f4cd9"/>
      <stop offset=".89" stop-color="#2e51dd"/>
      <stop offset=".99" stop-color="#2e5de8"/>
    </radialGradient>
    <radialGradient id="_Безымянный_градиент_221" data-name="Безымянный градиент 221" cx="9.3" cy="43.81" fx="9.3" fy="43.81" r="14.24" gradientTransform="translate(0 -28.47) scale(1 1.1)" gradientUnits="userSpaceOnUse">
      <stop offset="0" stop-color="#b5d8bc"/>
      <stop offset=".21" stop-color="#8db894"/>
      <stop offset=".45" stop-color="#65976c"/>
      <stop offset=".67" stop-color="#47804f"/>
      <stop offset=".86" stop-color="#36723e"/>
      <stop offset="1" stop-color="#306d38"/>
    </radialGradient>
    <linearGradient id="_Безымянный_градиент_5" data-name="Безымянный градиент 5" x1="28.58" y1="45.98" x2="28.58" y2="77.98" gradientUnits="userSpaceOnUse">
      <stop offset="0" stop-color="#f92126"/>
      <stop offset="1" stop-color="#900103"/>
    </linearGradient>
    <filter id="drop-shadow-2" filterUnits="userSpaceOnUse">
      <feOffset dx="1" dy="1"/>
      <feGaussianBlur result="blur-2" stdDeviation="1"/>
      <feFlood flood-color="#000" flood-opacity=".75"/>
      <feComposite in2="blur-2" operator="in"/>
      <feComposite in="SourceGraphic"/>
    </filter>
    <linearGradient id="_Безымянный_градиент_5-2" data-name="Безымянный градиент 5" x1="28.9" y1="55.04" x2="28.9" y2="68.25" xlink:href="#_Безымянный_градиент_5"/>
    <linearGradient id="_Безымянный_градиент_5-3" data-name="Безымянный градиент 5" x1="28.49" y1="55.04" x2="28.49" y2="68.84" xlink:href="#_Безымянный_градиент_5"/>
  </defs>
  <g>
    <path class="cls-1" d="M5,0h302.5c2.76,0,5,2.24,5,5v121.97H0V5C0,2.24,2.24,0,5,0Z"/>
    <rect class="cls-4" x="5.33" y="31.98" width="302.43" height="90.86"/>
    <text class="cls-14" transform="translate(22.97 23.5) scale(.91 1)"><tspan x="0" y="0">Ошибка</tspan></text>
    <g>
      <rect class="cls-8" x="114.43" y="86.13" width="76.96" height="24.68" rx="1.66" ry="1.66"/>
      <rect class="cls-4" x="117.87" y="89.13" width="70.09" height="18.69"/>
      <text class="cls-13" transform="translate(144.1 103.19) scale(.91 1)"><tspan x="0" y="0">ОК</tspan></text>
    </g>
    <text id="_Пароль_успешно_изменен_и_сохранен" data-name="Пароль успешно изменен и сохранен" class="cls-12" transform="translate(59.2 53.5) scale(.91 1)"><tspan x="0" y="0">Уточнение координат не выполнено.</tspan><tspan x="0" y="21">Не получено решение навигационной задачи</tspan></text>
    <g>
      <g>
        <rect class="cls-11" x="287.08" y="5.49" width="19.98" height="22.06" rx="1.66" ry="1.66"/>
        <rect class="cls-6" x="286.32" y="4.65" width="21.51" height="23.75" rx="1.66" ry="1.66"/>
      </g>
      <line class="cls-7" x1="302.07" y1="11.01" x2="292.08" y2="22.04"/>
      <line class="cls-7" x1="302.07" y1="22.04" x2="292.08" y2="11.01"/>
    </g>
    <g>
      <path class="cls-5" d="M12.92,24.07c-4.18,0-7.57-3.77-7.56-8.41,0-4.64,3.4-8.39,7.58-8.38,4.18,0,7.57,3.77,7.56,8.41,0,4.64-3.4,8.39-7.58,8.38"/>
      <path class="cls-2" d="M11.85,18.12c0,.08.02.22-.04.29-.05.07-.06.12-.14.2-.09.09-.08.26-.16.33-.01,0-.03,0-.04,0-.02-.02-.04-.03,0,.04.02.06-.02.12.02.24.04.09-.02.12,0,.25.02.13-.06.07-.02.18.04.11-.07.06-.04.18.03.15-.11.11-.09.25.01.1-.03.06-.07.11-.05.07-.07.06-.09.05h-.02s-.05,0-.07,0c-.03,0-.05-.01-.07.01-.03.05-.07.05-.19.17-.11.13-.04.2-.04.23-.01.1.06.16,0,.2-.05.05.05.04-.07.13-.12.08-.03.11-.07.18-.04.07.02.15-.07.22-.1.06.04.07-.12.19-.05.09-.17.11-.22.06-.02-.02-.04-.02-.05-.01-.01,0-.03,0-.04,0-.03-.03-.14.02-.15-.15-.03.12.06.11.01.13-.05.02.2.06.19.16,0,.09.03.09.06.09h.02c.03.1,0,.08-.01.13-.04.13-.09.1-.15.13-.1.05-.16.04-.19.03-.01,0-.02,0-.02,0-.02,0-.02,0-.02,0,0,0,0-.01-.02-.01,0,0-.03.04,0,.05.03,0,0,.04.03.04.03,0,.01.04,0,.04-.02,0-.01.07.01.08.03.01-.08.09-.13.06-.06-.03-.08,0-.07-.03.02-.02-.08,0-.03.03.1.06-.01.14.09.13,0,0,0,.02.04,0,.04-.02-.04-.02.01-.03.06,0,.03.02.04.05.01.03-.02.04-.03.01,0-.02-.08,0-.08,0,0,0,.06.01.07.02,0,.01-.04,0-.03.04.01.05-.02.02,0,.07.03.05-.04.03-.01.08.02.04-.05.02-.06.04-.01.03-.04,0-.05.07-.01.08.03.06.06.1.03.04.05.04.07.04.02,0,.03,0,.05.03.02.04,0,.11-.01.12-.13-.08-.27-.14-.4-.22-.14-.09-.23-.14-.37-.24,0,0-.06-.04.02-.17.03-.05,0-.04-.02-.06-.02-.03-.01-.04-.04-.07-.01-.01-.02,0-.03,0h-.02s-.02,0-.02,0h0c-.04-.06.01-.07-.04-.14-.06-.07.07-.03-.01-.15-.04-.06-.02-.1-.04-.11-.02-.01.03,0-.03-.05-.04-.03-.05-.05-.04-.09,0-.04.01-.02.01,0,0,.02.05.04.03-.02-.03-.06.02-.04,0-.07-.03-.06.02-.02,0-.08-.03-.06.04,0,.02-.09-.02-.09.02-.08,0-.15-.03-.07,0-.07-.05-.17-.05-.1-.08-.23-.09-.27,0-.02,0-.01.01,0h.02s-.01-.01,0-.03h.02s.01,0,.01,0c0-.03-.03,0-.03-.05,0-.05-.05.03-.03-.15,0-.1,0-.16,0-.23,0-.12.02-.11,0-.14-.04-.05,0-.03-.02-.09-.03-.06,0-.05-.04-.12-.03-.04.02.01.02-.11,0-.05-.01-.05-.02-.05,0,0,0,0,0-.03.02-.07,0-.04-.03-.11-.02-.04,0-.04,0-.03,0,0,.01,0,0-.02-.02-.06,0-.11-.03-.14-.04-.06,0-.03-.03-.08-.03-.05-.02-.06-.03-.07-.05-.04-.07-.06-.09-.09-.03-.07-.21-.15-.23-.17-.07-.06-.12-.04-.16-.1-.04-.06-.08-.06-.12-.11-.04-.05-.08-.07-.1-.11-.01-.02,0-.02.01-.01h.02s-.08-.11-.06-.15c.02-.04-.02-.02-.03-.08,0-.07-.05-.05-.07-.15-.02-.09-.08-.18-.11-.29-.03-.11-.05-.06-.06-.1-.01-.04-.05-.05-.07-.1-.02-.05-.02-.02-.11-.12-.05-.06-.03-.1-.03-.11-.03-.04.02-.03-.03-.09-.07-.07,0-.03,0-.06-.02-.04.02-.04,0-.06-.02-.02.05-.08.06-.07.03.01.02-.02.07-.09.03-.04,0-.04,0-.06,0-.02-.03,0-.03,0,0,.04-.01.05-.02.02-.01-.03-.04,0-.01-.03.02-.02-.02-.01-.01-.03.01-.03-.03-.03,0-.05.02-.02-.02-.03.02-.03-.03,0,0-.03-.02-.03-.03,0,0-.05.03-.13.04-.08,0-.03.02-.09.01-.03,0-.03,0-.03,0,0-.01,0,0-.01,0-.03.03,0,.05-.03.02-.02.05-.01.06-.04,0-.01,0-.01,0-.01,0,0-.02,0,0-.03.02-.04.04-.03.05-.03h.02s-.04-.05-.02-.08c.03-.05.1-.02.1-.06,0-.02.05-.09.08-.11-.03-.02.02-.03,0-.03-.02,0,0,.02-.04,0-.03-.01-.02-.04,0-.06.01-.02,0-.09,0-.14,0-.03-.01-.03-.02-.03h0s.05-.03.03-.07c-.02-.04-.02-.04-.02-.04h0c0-.07-.02-.05-.02-.06,0-.02-.01-.02-.02-.02h0s-.01-.02-.01-.04c0-.02-.02,0-.01-.04,0-.02-.02-.05,0-.07.01-.01.02-.02.03-.01.02,0,0,0,0-.05,0,.03-.02.03-.05.05,0-.02.01-.05-.02-.04-.02,0-.02,0-.02-.02,0,0-.01-.02-.05-.02-.04,0-.06,0-.05.02.01,0-.02.01-.06.07-.02.03.01.03,0,.04,0,.02.03.01.01.04-.02.03-.06.03-.07,0,0-.03-.02-.04,0-.06-.03,0,0,.03-.03.03-.02,0,0-.02-.03-.04-.03-.02-.01-.04-.06-.05-.04,0-.02-.03-.03-.01h-.02s-.01,0-.01,0c0,.02,0,.02-.01.01,0,0,0-.02-.02-.03-.03,0,.02-.02,0-.03-.02-.01-.04,0-.02,0,.02.01,0,.02-.02,0-.02,0-.02-.01,0-.03,0,0-.02-.02,0-.03-.04-.04-.06-.06-.1-.08-.04-.02.02-.01-.02-.04-.05-.03-.03,0-.01,0,.01,0,.01.04-.02.02-.04-.03-.05-.03-.03-.06,0,0-.01-.03,0-.05,0-.02-.04-.02-.02-.03.02,0,.04,0,.02-.02-.04-.04.01-.03-.05-.08-.06-.04-.05-.14-.09-.18-.04-.04.01-.04.02-.03v-.02s0-.05-.05-.03c-.12.05-.11,0-.17-.01-.06,0-.03-.01-.08-.02-.09-.02-.1,0-.17-.12-.01-.02,0-.03-.08-.11-.08-.08-.1-.05-.12-.07.03,0,.03-.04,0-.02-.01,0-.02,0-.02,0h-.02s.05.02,0,.03c-.05,0-.02.03-.08.03-.05,0-.05.06-.12,0-.02.02-.07,0-.09-.02-.02-.03-.04,0-.07-.05-.02-.02-.07-.02-.09-.02.01-.18.03-.36.05-.53.03-.18.05-.35.09-.52.05-.22.08-.39.12-.51.05-.17.09-.35.15-.51.06-.16.11-.34.18-.5.07-.16.13-.32.21-.47.08-.16.15-.32.24-.47.09-.15.17-.31.26-.45.09-.15.19-.3.3-.44.1-.14.22-.29.33-.43.11-.14.27-.29.38-.42.12-.13.19-.19.31-.32l.05-.04c.07,0,.17,0,.21.03.03.02.03.01.04,0,0,0,.02,0,.04,0,.02,0,.03,0,.04-.01,0-.01,0-.03.02,0,.03.04.05.05.05.02,0-.03-.03,0-.05-.05.03.01.04,0,.05,0,0,0,0-.01.02,0,.03.03.07,0,.03.03-.04.03.01.02-.05.06.08-.02.03-.03.08-.07.02-.01.03,0,.05,0,.01,0,.03,0,.06,0,.07,0,.11-.02.09-.03-.01,0-.01,0-.02,0,0,0-.01.01-.02,0-.03-.01.04-.05.07-.04.01,0,.08-.03.07-.04,0,0-.03,0-.05.01-.03,0-.06.02-.07,0-.01,0-.02,0-.02,0,0,0-.02,0-.05-.02-.05-.06.1-.05.08-.08-.01-.02.03-.03.06-.05.02-.01.02-.01.03,0,0,0,0,0,.03,0,.04-.02-.07,0,.04-.04.05-.01.1.01.09.04-.03.04.05.05.02.07-.03.01-.03,0-.03,0,0,0,0-.01-.02,0-.04.02.05.02-.03.06.04,0,.09,0,.03.06.03,0,.07,0,.1-.04.03-.04.1.02.05.05-.05.03,0,.05-.02.09.1-.09.16-.07.19-.1.03-.03.04-.04.07-.04-.06-.01.03-.08.08-.06.05.02.09,0,.12.02.03.02.08.04.05.05-.03,0,0,.03-.06.02-.04,0-.01.02-.02.03-.04.04.04.04-.03.09-.05.03-.06.02-.08.02-.01,0-.03,0-.05,0-.03.01-.04.01-.05.01-.01,0-.02,0-.04,0-.03.02-.05-.03-.08-.04-.01,0-.03,0-.02,0h.02s.02.01.03.03c.02.03.02.03,0,.03,0,0-.02,0-.04,0-.03,0-.04,0-.04-.01,0-.01-.01-.03-.08,0-.07.03.12.02-.06.07-.11.03-.07.04-.15.04-.07,0,0-.06-.12-.05.08.01.04.05.1.06.02,0,.04,0,.06,0,.02,0,.03,0,0,.02-.06.03-.1.07-.14.07-.01,0-.03,0-.04,0-.02,0-.04,0-.06-.02,0,.04-.02.02-.06.04-.02,0-.03,0-.05,0-.03,0-.07-.01-.16,0,.07,0,.08,0,.04.02.08-.03.1-.02.11,0,0,.02.01.04-.08.04-.13-.01,0,.02-.05.03-.1.02-.07.04-.11.05-.04,0-.11.07-.14.07-.05,0,.03.01-.1.06-.05.02.02.02-.04.03-.06.01.02,0-.04.04-.06.04-.02.07-.09.11.03,0,.03,0,.03.03.02-.03.03-.02.06-.02.03-.01.04.04.03.05,0,.01.01.05,0,.07-.03.02-.04.02-.05.02,0,0-.02,0-.04.02.02-.01.02-.01.03,0,0,0,.01,0,.03,0,.04,0,.14-.06.15-.02.01.05.13.02.14.06,0,.02,0,.02.02.02,0,0,.02,0,.03,0,.05.04.09,0,.07.05,0,.02.03.01.07.01.03,0,.07,0,.07,0,0,0,.03,0,.04,0,.02,0,.03,0,0,.02-.05.04,0,.03-.02.06-.01.02-.02.02-.02.01h-.02s-.02,0-.06,0c.02.04.08,0,.08.05,0,.05,0,.03-.05.04.1.02.03.1.06.12.03.01-.02.01-.04.05.01,0,.03-.01.06-.03.02-.01.02,0,.02.03,0,.02,0,.04,0,.03h.02s.02.01.01,0c-.01-.02.03-.02.07-.03.03-.02,0,.04.05.07-.04-.03,0-.04.02-.04-.03-.02-.03-.01-.03-.05,0-.03.1,0,.1-.09,0-.04.01-.04.01-.06,0-.09,0-.09,0-.08h0s-.04-.02-.02-.05c.01-.02.21,0,.35-.16.17-.19-.03-.2.01-.23.02-.02-.04-.03.07-.06.07-.02,0-.01.05-.03.06-.02-.03-.02.04-.06.09-.06-.04-.01.04-.07.05-.03.02-.1.07-.13.05-.03.13,0,.18.02.05.02.07,0,.09,0,.03-.02.05-.03.12.03-.01.06.02.04.04.06.02.02.03.01.03,0,0,0,.01-.01.02,0,.02.01-.02.02,0,.04,0,0,.02,0,.03,0h.03s.02.02-.04.03c-.09.02.06.04-.07.06,0,0,.04,0,.04.02,0,.05-.1.05-.09.09.08-.04.12-.02.08.02-.04.05-.07.04-.06,0-.02.03-.01.03-.05.04.02,0,.05,0,.04.03.06-.07.15-.09.13-.06,0,.02,0,.02.01.02h.02s.07-.04.1-.08c.02-.02.02,0,.02.01,0,.01,0,.03,0,.02.01,0,0-.04.05-.06.06-.02,0-.05.04-.07.05-.02.06-.09.08-.06.02.04.04.02.04.05,0,.02.02.02.01.04,0,.02.03.02.02.05-.01.03.05.03.02.08.06.02.03.07-.05.08.02,0,.04,0,.09,0,.05-.01-.04.04,0,.07.04.03-.02.11.03.08.03-.01.02,0,.02,0,0,0,0,.02.02.02.02,0,.03,0,.02,0,0,0,0,.01.01,0,.02,0,.02,0,.02.01,0,0,0,.02.02.01.03,0,.1.01.04.02-.07.01-.1.03-.17.03-.1,0,.01,0-.08.05.05,0,.13-.01.18-.04.05-.02.07-.03.1-.01.03.02-.02.02,0,.03.02.01.01,0,.05,0,.04,0,.05.04.02.05-.03.02.03.04,0,.04-.02,0,.07.03-.03.08-.05.02-.05.02-.06.02,0,0-.01,0-.07.03-.04.03-.07.02-.06.04h0s-.02,0-.04.03v.02s-.02,0-.11.03c-.08.03-.09.03-.1.02-.01,0-.03-.01-.08,0-.05.01-.04,0-.06,0-.01,0-.04-.01-.16,0-.17.02-.22.03-.21.05,0,.03-.04.03-.1.05-.06.01-.05.05-.08.04-.01,0,0,.02-.05.03-.07.01-.17.14-.22.15-.05.01-.02.03-.09.08.03-.01.04,0,.11-.06.07-.05.33-.17.43-.19.1-.02.15,0,.14.03,0,.01,0,.01,0,0h-.01s.02.02.01.02c-.03.02-.03,0-.09.04-.03.02-.04.02-.05.02,0,0-.02,0-.05.01.03,0,.03,0,.04,0h.02s.03,0,.03,0c0,.01,0,.04-.05.06.02,0,.05.05.06.11.06,0,.02.04.09.04.07,0,0,.05.06.01.04-.02.03-.01.03,0,0,0,0,.02.02,0,.03-.01.03,0,.03,0,0,0-.01.04-.05.05-.04,0-.07.07-.11.05-.02,0-.02,0-.02,0,0,0,0,.02-.04,0-.06-.02-.02.02-.08.02-.05,0,0,.03-.03.04-.04.01-.09.06-.1.04-.01-.01,0,.02-.02.03-.03-.01-.01-.04-.02-.04-.02-.02,0-.05.07-.11.05-.04.09-.04.11-.04h.01s.02,0,.09-.02c-.03,0-.06.01-.09,0-.01,0-.03,0-.05,0-.01,0-.03,0-.03,0-.01,0,.1-.04.04-.08.01.03.01.03-.06.07-.04.02-.06.02-.08.02-.01,0-.02,0-.03.01.02.02-.11.07-.11.07,0,0-.05-.04-.07.02-.01.04-.02.02-.02,0,0-.01,0-.02-.01-.01-.03.06-.03.05-.05.05,0,0-.01,0-.03,0-.03.03-.07,0-.11.06-.04.06-.03.03-.05.06-.03.04-.04.04-.02.08,0,.02.02.01.03.01.01,0,.02,0,0,.03-.01-.03-.08,0-.08,0,0,0-.04.05-.07.04-.04-.02,0,.01-.07.01-.08,0-.08.05-.11.06-.02,0-.01.02-.02.02-.03.02.03,0-.01.04-.03.02-.03.02-.05.05-.02.02-.03.01-.05-.01,0,.01,0,.02.03.04-.02.01-.02,0-.03,0,0,0,0,0-.02.01-.02.03-.02,0-.06.05-.02.02-.02.05-.03.02,0-.03-.03-.02-.04-.06,0,.02-.02.03.01.04.03.02,0,.02.02.04.03.02-.02.09-.04.11,0,0,0-.01.02-.03.01-.02.02-.04,0-.03-.03.03-.04.1-.08.11-.03.02-.02,0,0-.04.03-.03-.03-.04,0-.07.02-.02-.02-.02,0-.05.02-.03-.02-.01.02-.04.04-.03,0-.02-.04,0-.03.02-.02.08-.03.05.02.04,0,.04-.02.03.04.03.01.03.04.06h-.02s0,0-.03,0c0,.02.05.03.01.06.04-.03.02.05.03.08.01.04.01.09-.01.09h-.02s-.03,0-.04-.01c0,.02-.02.03.02.03.02,0,.02,0,.02,0,0,0,0,.01,0,0,.02-.02.03,0,0,.03-.02.02,0,.03-.06.01-.06-.02.01,0-.01.03-.02.02,0,.01,0,.01h.01s0,.05-.06.05c-.05,0-.07.06-.08.05,0,0-.03.02-.05.04-.02.02-.04.04-.05.04-.04-.01-.08.03-.09.05-.03.06-.03.03-.05.05-.05.05-.06.04-.07.03h0s-.04.02-.05,0c-.01,0-.02-.02,0,0,.02.04-.01.03,0,.04,0,.03-.01,0-.05.04-.12.16-.07.15-.09.18-.02.03,0,.12,0,.18,0,.03,0,.03,0,.02,0,0,0,0,0,.01,0,.04.02.12,0,.12,0,0,0-.02,0-.04,0-.03,0-.06,0-.02,0,.07.03.11.03.13.02.02,0,.09-.03.16-.03.06,0,.03-.02.05-.01.01-.02.01-.02,0h0s-.01.02-.02.01c0,0-.01,0-.02,0-.02.01-.04,0-.04,0,0,0,0-.02,0-.01.03.01,0-.01.02-.02.02,0-.02-.01-.03-.04,0-.03-.04,0-.04-.06,0-.03-.01-.04,0-.06.02-.02,0-.02-.02,0-.04-.11,0-.1-.01-.13-.01-.03.08-.13.04-.16-.04-.02-.01-.06-.05-.07-.03,0-.02-.06-.08-.02-.04.03-.05.02-.06.02h-.02s-.04,0-.02,0c.02-.01,0-.02-.1-.04-.09-.02.06-.02.04-.03-.02,0-.11,0-.09,0,.02.01-.07.02-.09,0,0,.01,0,.01-.04.03-.04.02-.03-.03-.03-.03,0,0,0,0,0,.03,0,.02-.02.02-.04.01-.01,0-.02,0-.03,0-.03.01-.05,0-.06,0-.02-.01-.02-.02-.03,0-.02.05.08,0,.05.06,0,.02.03.02.02.03-.01.01.05.03,0,.04-.04.01-.03,0-.04-.01h-.02s-.01.02-.03,0c-.02-.02-.08,0-.09-.02h0s0,0-.02-.01c-.02-.03-.01,0-.04,0-.03,0-.04,0-.06-.01-.03-.02-.06-.03-.12,0-.05.03-.09.07-.07.04.02-.03-.01-.02.02-.06-.07.03-.03.04-.04.05-.02.02.04.02-.03.04-.04.01-.06.06-.07.04h-.02s-.02,0-.02,0c-.01,0-.02,0-.02,0h0s0,.03,0,.03c0,.02,0,.03-.03,0,0,.02-.01.05-.04.06-.01,0-.03.05-.04.04-.03-.02,0,0-.02.01-.03,0,0,0-.02.05-.01.05-.04.05-.03.07.01.02,0,.02-.01.08,0,.03,0,.05-.04.11-.06.08-.03.23-.08.3-.05.07.03.12,0,.16-.03.05.02.13.05.19.02.06,0,.06.03.08.03.01-.02.07.04.06.03,0,.03.01.05.02.02,0,.04.05.09,0,.05-.04.08-.01.13-.04.05-.03.06,0,.09-.03.03-.02.05,0,.02,0-.03,0-.03.03.02,0,.06-.04-.03-.02.04-.05.03-.01,0-.08.05-.09.02,0,.01-.06.01-.12,0-.06.15-.08.16-.07.01,0,.03,0,.05,0,.02,0,.04-.01.07,0,.02,0,.04,0,.04,0,.01,0,.01-.01.03.01.01.02.02.02.02.02,0,0,0,0,.01.02.02.04-.03.06-.05.09-.02.03,0,.06-.04.06h-.01s.01.01.01.01c0,0,.03,0,0,.04-.04.04-.04.12-.06.14-.02.01,0,.07-.02.08.01-.06-.01-.04,0-.1-.01.03-.03.03-.03.04.06-.01-.01.07,0,.11,0,.04-.02.08-.05.12-.03.04-.05.02-.04.07,0,.01,0,.01,0,0,0,0,.01,0,.03,0,.03.03.02,0,.05,0,0,0,0-.03.04,0,.02.01.06,0,.1,0,.04,0,.08-.02.1,0,.01,0,.01,0,.01,0h0s.01,0,.01,0c0,0,.02,0,.06.01.06.02.02,0,0,.02-.01,0-.02,0-.01,0,0,0,.02,0,.04.01.03.02.02,0,.02,0,0,0,0-.02.02,0,.05.03.04.05.05.06.02,0-.05.04-.01.05.02,0,0,.09-.03.09.02,0,0,.02,0,.08-.01.05,0,.06,0,.08,0,.02-.03.04-.02.03.01-.01.01,0,0,.02,0,.02,0,.05,0,.03,0,0,0,0-.01.02v.02s.03.04,0,.05c-.03.02,0,.09,0,.11,0,0,.01,0,.01.03,0,.04.04.09.06.12.02.02.04.02.03.03-.02.02,0,0,0,.02,0,0-.03.02,0,.03.03.01,0-.01.01-.03,0,0,.03.03.04.04,0,.01.08.01.1,0,.03-.02.06,0,.08-.03.01-.02.03-.01.01.02v.02s0,0,.02-.01c.05,0,0,0,0-.03-.01-.02.01-.04.03-.05.01,0,.04-.01.05,0,.01,0,.01,0,.02,0,0,0,.01,0,.05.02.06.04,0,0,.03.04.02.03.02,0,.05.04.01.03.03,0,.07.08-.01-.03-.01-.03-.01-.02,0,0,0,0,.01-.01.01-.03-.03-.02-.02-.03,0-.01.03,0,.05-.06.02-.04.04-.04.05-.04h0s0-.03.01-.06c.02-.04,0-.08.01-.09.03-.02.03-.05.08-.07.08-.03-.01.02.04.03-.01,0,.03-.07.06-.07.04,0,.04-.01.13-.06.09-.05,0-.07.05-.07s.01-.02.06,0c.05.01.04.04,0,.07,0,0,.02,0-.03.03-.05.02.01.07.02.09.02.04,0,.03,0,.03,0,0-.02,0,0,.02.02.04-.05.04-.07.09-.01.05.05.04.05.07,0,.04.08,0,.08,0,0-.08-.02-.1-.02-.1,0,0-.03-.01-.01-.03.02-.02,0-.02.02-.06.03-.04.04-.04.09-.06.04-.01.02-.04.04-.03.01,0,.02,0,.02-.01,0,0,0-.02-.02,0-.03.01-.03,0-.02-.03,0-.03.05-.04.05.01,0,.05,0,.03.05.04.02,0,.03,0,.04,0,0,0,0,0,.02,0,.02.01.06.05.03.06-.03.01,0,.05.09.04.09-.01.17,0,.15.02-.02.02.02.04.12.03.1-.01.03-.04.1-.05-.08-.01-.04-.02.01-.02.03,0,.04,0,.04,0,0,0,.02,0,.04,0,.03,0,.05,0,.06,0h.01s-.04.02-.09.02-.04.02-.01.01c.02,0,0,0,.05.08.01-.02.05,0,.06.02.01.02.07.04.06.08,0,.03.03.01.02.02-.02.01.02,0,.02.02s.02.04-.05.04c.04.02.05.01.06,0,.01,0,.02-.01.05.03.04-.02.06,0,.12.06.07.06.07.06.03.13.02-.01.01-.03.06.01.05.04,0,.06.05.06.04,0-.02.11-.02.11,0,0,.01-.01.04-.06.02-.02.04-.01.07,0,.02,0,.04.02.06,0,.02-.01.03,0,.04,0h.01s.03,0,.04,0h.02s.08,0,.08.03c0,0,.02-.02.04,0,.01.03.05.01.08.06.01.02.02.02.02.01,0,0,0,0,.02.01.02.04.03.01.03.04,0,.03.02.01.03.06,0,0,.01-.02.04.04.01.03.02.02.02.01,0,0,0-.02,0,.02.02.08.07.26.07.26.06.01.07.08.03.12-.04.04-.02.06-.07.09-.05.03-.04.08-.05.15,0,.03-.03.06-.05.08h-.02s0,.02.02,0c.03,0,.05.09.05.09,0,0,0-.04-.01-.08,0-.04.06-.03.08-.08.02-.05-.02-.04.02-.1.03-.04.04-.03.06-.03.01,0,.03,0,.05,0,.07,0,.15-.01.12.03-.03.04.02.03-.04.09-.06.05,0,.05-.03.08-.02.01-.03.01-.04.01-.01,0-.02,0-.05.02-.02.01-.03.01-.04,0,0,0-.02,0-.05.01.02,0,.03,0,.04,0,.01.01.02.02.06,0,.08-.05-.02.02.05.1-.02-.1.03-.13.05-.13.03,0,0-.08.09-.11.09-.03.09.03.22.1.13.07.1.08.07.09-.03.02.05.01.02.09.05-.05.04-.05.1-.01.08.06.2.08.21.08.07-.03.11,0,.19.06.08.07.15.09.2.15.02.02.05.02.09.02.04,0,.09,0,.11.05.02.07.07.15.06.22M13.58,9.19s.1-.01.07-.03c-.02-.01.08-.02.06-.04-.01,0,0,0-.02,0,0,0-.02,0-.03,0-.06,0-.12-.04-.14-.02-.02.02-.06.03-.08.04-.01,0,0,0,.01-.01.01,0,.02-.01-.02-.01-.07,0-.02-.02.02-.04.04-.02.1,0,.06-.03-.04-.03-.14-.02-.08-.03.06,0,.08,0,.11.02.04.01.09,0,.11.03.02.03.11.07.11.03,0-.03.04,0,.04-.04,0-.04-.02-.07-.03-.05h-.02s-.02-.03-.03-.01c-.03.02-.02.01-.05.01-.02,0-.02-.03-.05-.01-.01,0-.01,0-.01-.01,0,0,0-.02-.03-.02-.04,0-.05-.02,0-.03.05,0,.04-.02.1,0,.03.01.05,0,.06,0,.01,0,.03,0,.05,0,.05.01.14,0,.11-.03-.01-.02,0-.01,0,0,.01,0,.03.01.04,0,.03-.02.04-.01,0-.04-.04-.03.07-.03.03-.06-.04-.03-.05-.04-.01-.06.02,0,.02,0,.03,0,0,0,.01.01.04,0,.06-.02.13-.04.07-.04-.02,0-.04,0-.05,0-.02,0-.03-.01-.05,0-.03.02-.02,0,.02-.04.02-.02.03,0,.04,0,0,0,.02.02.04,0,.04-.04-.02-.03.02-.05.04-.02-.03-.02.02-.05.06-.03,0-.03-.04-.03-.02,0-.03,0-.05,0-.03,0-.06,0-.09.02-.04.04,0,.05-.03.07-.04.03-.1.07-.06.03.04-.04.08-.07.04-.08-.04,0-.08.02-.08.02,0,0,0-.03.05-.04.04-.01.02-.01,0-.03-.02-.01-.06,0-.07,0-.02,0-.01.04-.02.03-.01-.01-.03-.03-.08-.02-.02,0-.04,0-.06,0-.03,0-.05-.01-.08,0-.03.02-.04,0-.06,0-.01,0-.03-.02-.07-.01-.04,0-.06,0-.07,0-.02,0-.03-.01-.07,0-.03,0-.04,0-.06-.01-.02-.01-.04-.02-.1,0-.11.04-.11.05-.08.02.03-.03-.05-.02-.14,0-.05.01-.06,0-.07,0,0,0,0,0-.03,0-.03,0-.04,0-.05,0,0,0-.02-.01-.04,0-.02,0-.04,0-.06,0-.02,0-.03-.01-.06,0-.05.01-.08.04-.14.02-.06-.03-.1-.02-.09.01,0,.02-.02,0-.05,0-.03,0-.07-.01-.1,0-.04.01-.05,0-.07,0-.01,0-.02-.01-.05,0-.02.01-.04,0-.06,0-.02,0-.04-.01-.07,0-.03,0-.05,0-.07,0-.02,0-.03,0-.05,0-.02,0-.03,0-.05,0-.02,0-.03,0-.06,0-.03.01-.05.01-.07,0-.02,0-.03,0-.07,0-.04.01-.06,0-.09,0-.02,0-.05,0-.1,0-.11,0,0,.03-.08.04-.08.02-.02.03-.07.04-.03.01-.03,0-.05,0,0,0-.02,0-.04,0-.02,0-.03,0-.04,0-.03,0-.05,0-.12.02-.08.04,0,.02.03.03.03.01.1.01.15,0,.05-.01-.04.01.04.02.08,0,.05,0-.04.01-.1.01-.05,0-.12.04-.07.04-.08,0-.01.04.06.03.04,0,.08-.02.02,0,.03,0,.04,0,.01,0,.02,0,.05,0,.03,0,.03,0,.05,0,0,0,.02,0,.05,0,.03,0,.06,0,.08,0,.02,0,.04.01.07,0,.03,0,.03,0,.03,0,0,0,0,0,.03,0,.05,0,.09.02.05.03-.03.02.06.02.03.04-.03.02.06.02.03.04-.03.01.02.03-.01.04-.03,0-.01.04-.05.05-.04,0-.03,0-.03.03,0,.02,0,.03.05.02.02,0,.04,0,.05-.02h0s0,0,0,0c0,.01.03.03.05,0,.03-.02.07-.03.03,0-.02.02,0,.01.02.01.02,0,.03,0,.02,0-.02.01.05,0,.02.02-.02,0-.04,0-.07,0-.02,0-.04,0-.05,0-.01,0-.02,0-.02,0,0,0-.02,0-.04,0-.04.02-.02.02,0,.03.02,0,.05.03.07.02.02,0,.06-.02.08,0,.02.02-.03.03,0,.04.02.01-.05.01-.04.03,0,0,0,0-.03,0-.02,0-.05,0-.06.01-.03.03.08.02.04.04-.02.01-.03,0-.04,0-.01,0-.03-.02-.05,0-.05.02-.09.02-.06.04.03.02-.08.01-.04.04.04.03-.06.01,0,.05.05.04.03.04,0,.04-.03,0-.05,0-.02.04.04.04-.01.12.03.1.04-.02.07-.05.09-.03-.03,0-.04.01-.05.03,0,.02-.04,0-.03.04,0,.03-.02.06.03.07.04.02,0,.04.04.05.05,0-.02.06.04.06.05,0,0,.05.06.06.05,0,.02.03.05.02.03-.01.03-.02.07-.03.04-.01-.02.02.03.03.05,0,0,.02.04.03.03.01-.02.04.04.03.02,0,.03,0,.05,0,.03,0,.04,0,.03-.03-.02-.06.09-.05.05-.06-.04-.02.08-.03.05-.05-.03-.02.07-.02.03-.07-.05-.04.06-.04.05-.06-.02-.02.08-.02.06-.03-.02,0,.08-.03.05-.05-.02-.02.09-.01.05-.04-.04-.03-.04-.06,0-.05.05.01.11.01.08,0-.03-.02,0-.04.05-.05.01,0,.03,0,.04,0,.03,0,.07,0,.05-.02-.02-.03.06-.04.07-.01v.02s.11,0,.09-.02c-.02-.03.04-.04.08-.03.02,0,.03,0,.04-.02.01-.01.03-.03.05-.02.02,0,.03-.01.04-.03,0-.02.02-.04.05-.03.03,0,.03,0,.03-.02,0-.01,0-.02,0-.02.03.01.03.06.07.04.02,0,.04,0,.06,0,.02,0,.03,0,.05,0,.02-.01.03-.01.04-.01,0,0,.02,0,.05,0,.03-.01.06,0,.08,0,.02,0,.04,0,.03,0,0-.02.11-.01.09-.03,0-.01.02-.01.05,0,.03,0,.05,0,.04,0M7.28,14.29h0s0-.01,0-.01h-.02s-.02,0-.02,0h0s0,.02,0,.02h0s-.01,0-.01,0h0s0,0,0,0c0,.02.01.02.03.02.01,0,.02,0,.03,0h0s0-.02,0-.02h0M11.62,9.2s.03,0,.06,0c.03,0,.02-.03,0-.04-.01-.01-.03-.02-.05-.01-.02,0-.02,0-.04,0-.01,0-.02,0-.04,0-.01,0-.02,0-.02.01,0,0,0,.02,0,.02h0s.02,0,.02,0c.01.01.01.01.04.02M7.93,14.5s.05.01.06,0h0s.02,0,.02,0c.02,0,.02-.02.04-.02.02,0,.03,0,.05,0,.01,0,.01,0,0-.02,0-.01-.02,0-.03-.02h-.01s0-.01,0-.01h-.03s-.01-.01-.01-.01h-.01s-.01,0-.01,0h-.01s-.04,0-.02,0c.02,0,.03-.01.02-.02-.01-.01.02-.02,0-.03h-.02s-.02,0-.02,0h-.02s-.03-.02-.05-.02c-.01,0-.06-.04-.07-.05h0s-.01,0-.01,0c-.02,0,.02,0,0-.01-.02-.01-.01-.02-.02-.02h0s0,0,0,0c0,0-.01,0-.03-.01-.05-.02-.03-.02-.05-.04-.02-.01-.02-.02-.04-.03-.02,0-.04-.01-.04-.03,0-.01,0-.01-.03-.02-.02,0-.02-.02-.05-.01-.01,0-.01,0-.02,0h0s0-.01-.05-.02c-.05,0-.08-.01-.09,0h-.01s-.02,0-.05,0c-.06.01-.03.02-.04.02-.02,0-.07.01-.07.03h0s-.02.01-.02.01c-.02.02-.03.02-.02.04,0,.02.02.02.02.03h-.01s-.01.01-.01.01c-.01.01-.03.02-.04.02,0,.01.01.02.02.01.01,0,.04-.03.03-.01-.01.02,0,.01.01,0h.03s.01-.03.01-.03c0,0,0-.01.02-.02h.02s.01,0,.03,0c.02,0,.02-.02.03-.02.01,0,0-.02.02-.02.02,0,.1,0,.12,0,.01,0,.02.02,0,.02-.02,0-.02,0-.03,0-.01,0-.03,0-.04,0h.02s.03.03.05.03c0,0,.02,0,.03,0,.02,0,.04,0,.04,0h0s.02,0,.02,0c.01-.01,0,.01.01.02.02,0,0,.01.04.02.03.01.05.03.06.03h.02s.02,0,.02,0h.01s.01,0,.01.02c0,.02,0,.03,0,.04,0,.01,0,0,.02.03,0,.02.02.02.04.01h.01s.02,0,.02,0c.01,0,.03,0,.03,0,0,0,0,.02.01.02.02,0,.01,0,0,.02-.02.02-.02,0-.03.02-.01.01-.02,0-.03.02-.01.01-.02.02.02.02.04,0,.03-.01.05,0h.03s.03,0,.03,0c.02,0,.03,0,.04,0,0,0,0,0,.02,0M8.74,14.75h.02s.01,0,.01,0h.02s.03,0,.03,0c.01,0,.02,0,.04,0,.01,0,0-.02.02-.02.03,0,.01-.02,0-.02h-.02s-.01,0-.03,0c-.03,0-.01,0-.08,0-.02,0,0,0-.02.02-.01,0,0,0,0,.01,0,0-.02.03,0,.03M7.78,14.77s.03,0,.05,0c.01,0,.03,0,.03-.01,0-.01-.01-.02-.03-.02-.02,0-.03-.03-.05-.03-.01,0-.03,0-.06-.01-.02,0-.03,0-.04,0h0s-.02,0-.05.01c-.02,0,0,.02.02.02.02,0,.02,0,.03.02,0,.01,0,.03.03.03.02,0,.02.01.03.02h0s0-.01,0-.01c0,.01.02,0,.02,0,0-.01,0,0,.02,0M8.61,14.69s.04-.03.02-.04c-.02-.01-.04-.03-.06-.04-.02-.01-.05-.02-.07-.02h-.02s-.01,0-.01,0c.01-.01.03-.01.04,0,0,0,.03,0,.02-.02-.01,0-.03,0-.04,0h-.02s0-.02,0-.03h-.02s-.02,0-.02,0c-.02,0-.01-.02-.02-.02-.01,0-.02-.02-.04-.01-.01,0-.02,0-.03,0,0,0-.02,0-.03,0h-.02s-.01,0-.01,0h-.02s-.01.01-.02,0c0,0-.02,0-.04-.01h0s0,0-.02,0h-.04s0,.03.01.03c.02,0,.04,0,.03.02-.01.01,0,.02,0,.02,0,0-.02.01,0,.03.02.01,0,.02.02.03.02.01.03.02.03.02,0,0-.02,0-.04,0-.02,0-.02.01-.04,0h-.02s-.01,0-.01,0h-.02s-.02,0-.02,0c0,0-.04,0-.04.01,0,.02-.01.03,0,.03.02,0,.03.01.04.02h.02s.02-.01.04-.01c.02,0,.03.02.05.01.03,0,.05-.01.07,0,.01,0,.02,0,.03.01h0s-.02.04,0,.04c.01,0,.03,0,.03,0,0,.01.02,0,.03,0,0-.01.02-.02.03-.03.01,0,.03-.02.01-.02h0s.02-.01.02-.01c0-.02,0,.01.02.01s.03,0,.03-.02h.02s.02,0,.02,0c.02,0,.03-.02.04-.01.01,0,.03.02.04.04.01.01.01,0,.02-.01.01-.01,0-.01.02-.01M14.52,10.64s.03,0,.03,0h-.02s-.02.01-.04.02c-.02,0,0,.01,0,.01h0s0,0,.02,0c.01,0,.04,0,.04,0,0,0-.02.01-.04.02-.02,0,0,.01.01,0h.02s.01,0,.01,0h0s-.01.01-.01.01h0s0,.01,0,.01c.01,0,.03,0,.04,0h.01s.02,0,.02,0h.01s.01,0,.01,0h.01s.02-.01.02-.01h.01s.01-.01.01-.01h.01s0,0,0,0c.01,0,0,0,.02,0,.02,0,.02,0,.03,0v-.03s0,.03,0,.03h0s.02,0,.02,0h.02s0,0,0,0c.01,0,0-.01,0-.02,0,0,0,0,.02-.02.01,0,0,0,0-.02v-.02s0-.02,0-.02c0,0-.02-.02,0-.02.01,0,0-.01,0-.01v-.02s-.02-.02-.02-.02c0,0,0-.02,0-.01h0s0,0,0,0h.02s.01-.02.01-.02h.02s0-.04,0-.04h-.02s-.01,0-.01,0h.01s0-.02,0-.02h-.01s0-.02,0-.02h0s-.01-.02-.01-.02h-.02s-.02,0-.03,0h-.02s0,0,.02,0c.01,0,0,0,0-.01-.01,0,0,0-.02,0,0,0,0,.01-.01.03v-.03s-.01,0-.01,0h0s-.01,0-.01,0h-.01s0,0-.01.02c-.01,0,0,.01,0,.02-.01,0,0,0-.02,0-.02,0,0,0,0,0,0,0,.02,0,.03,0,.02,0,0,0,0,0,0,0,0,0-.02.01-.01,0,.01.02,0,.02-.01,0,0,0-.02-.01h0s-.01,0-.01,0h-.04s-.01,0-.01,0h0s0,.03,0,.03c-.01,0-.02,0-.03,0h.01s.01.01.02.01c.01,0,.01,0,0,0s-.01.01,0,.02h0s-.01,0-.01,0c-.01,0,0,0,0,.01-.01,0,0,0,.01,0h0s.01.01.01.01h0s.02.01.04.01c.02,0,.02.01,0,.01-.02,0-.02,0-.03.01h0s-.01.03-.01.03c0,0,0,0-.02,0-.02,0-.02,0,0,0s.02,0,.03,0c.01,0,.02,0,.03-.01h0s0,0,.02,0c0,0-.02,0-.03,0-.01,0-.03,0-.04,0-.02,0,0,0-.02.01-.02,0,0,0,0,0h0s-.02,0-.02,0h0s-.01,0-.01,0c-.01,0-.03.02-.01.01h.02M14.81,10.46v-.02s0,.02,0,.02M9.99,11.27s-.01,0-.04,0c-.02,0-.04,0-.05,0h-.01s0,0,0,0c0-.02-.03,0-.04-.03-.01-.02-.02,0-.02.03,0,.03,0,.01.01,0h0s0,.03.01.02c.02,0,0,0,0,0h0s.02,0,.02,0c.02,0,.02,0,.02,0h0s.01,0,.01,0h0s0,.02.02.01c.03-.02-.02-.02,0-.02.02,0,.01,0,.03-.02M13.67,9.61h.01s.06.02.09.02h.01s.05,0,.08,0c.02,0,.04,0,.06-.01.01,0,.01-.01.02-.02.02,0,.04,0,.06-.01h.03s.01-.01.01-.01c.01,0,.03-.01.04-.02.02,0,.03-.01.05-.01h0s.02-.01.03-.01h0s0-.02.01-.03h.01s0,0,0,0v-.02s.02,0,.02,0c.01,0,0-.01,0-.02h-.01s-.02,0-.02,0l.02-.02h-.02s-.01,0-.01,0h0s-.02,0-.02,0h-.01s.02-.02.02-.02h-.02s0-.01.02-.02h0s0,0,0,0c-.02,0-.03,0-.05,0h-.02s0,0,0,0h0s-.02-.01-.02-.02h-.03s0,0,0,0v.02h0s-.02,0-.02,0h-.01s-.01.02-.03.02c-.02,0-.03-.01-.05,0,0,0,.03.02.01.02-.01,0-.01-.01-.03-.02h0s-.02-.02-.02-.02c-.01,0-.03,0-.04.01v.02s0,0,0,0c-.01,0-.02,0-.01-.02h0s-.02-.01-.03,0v.02s0,0,0,0h0s-.01.02-.01.02h0s-.01,0-.03.01h0v.02h0s0-.02,0-.02h-.03s.02-.01.02-.01h0s.02-.02,0-.03h0s-.02-.02-.02-.02h-.01s0-.02-.02-.02c-.01,0-.03,0-.04,0h0s.02,0,.02,0h.01s0,0,0,0h-.01s.02.01.02.01c0,0,.01.01,0,.02-.02-.01-.03-.02-.05-.03h-.02s0,.01,0,.01h-.01s-.02,0-.02,0h.01s-.02.01-.02.01c0,0,.02,0,.03,0h0s-.02,0-.02,0h-.02s0,0,0,0h0s0,.01,0,.01c-.02,0-.02,0-.03,0h0s.01,0,.01,0c.02,0,.02.01.04,0,.02,0,.03-.01.05-.01h0s.02,0,.02,0c.02,0,.03,0,.05,0h0s-.04.01-.05.02h.01s0,0,0,0h.02s.01,0,.01,0c0,0-.02,0-.04,0-.01,0-.02,0-.03,0-.03,0-.06,0-.08.02h0s0,0,0,0h.01s.05,0,.07,0h0s0,.02,0,.02h.02s.01,0,.01,0h0s.03.01.03.01h0s-.02,0-.02,0c0,.02-.04.02-.07.02h0s0,.02,0,.02h.03s.03,0,.03,0h.02M8.29,9.29s-.03.03-.04.04c.05,0,.06-.02.08-.03,0,0-.01,0-.04-.01M9.22,8.93c.05,0,.07,0,.1-.02.01,0,.03-.04-.02-.05-.05,0-.08.01-.09.02-.01,0,0,0,.03,0h.03s-.04.01-.09.02c-.05,0-.01.02.04.02M9.34,8.85s.05.02.08,0c.03.01.03.03,0,.04-.03.01-.04.06.05.05.06,0,.08-.04.09-.02.01.01.02.02.06.02.04,0,.07-.04.1-.04.01,0,0,0,0,.01,0,0-.01.02.01.01.08,0,.07-.02.1-.02.04,0,.07,0,.11,0,.02,0,.04,0,.05,0,.01,0,.02,0,.03,0,.03,0-.02-.06.02-.03.05.03.03.02.08.01.05-.01.12,0,.07-.03-.05-.02-.03-.06-.09-.05-.06,0-.04.02-.06.01-.01,0-.03,0-.05,0-.02,0-.04,0-.06,0-.02,0-.03,0-.04,0-.02,0-.04,0-.06,0-.03,0-.06,0-.08,0-.02,0-.04,0-.05,0-.01,0-.03,0-.05,0-.02,0-.04.01-.04,0,0,0-.02,0-.03,0-.01,0-.03,0-.03,0,0-.01-.08,0-.05-.01.04,0,.09-.05.03-.04-.03,0-.04,0-.04,0,0,0-.01-.01-.04,0-.05.01-.09,0-.12.02-.03.02.03.03.02.05M9.2,8.71s-.05.03-.02.03c.05.01.08-.03.1-.04.02-.01.08-.02.07-.03,0-.02.03-.05-.05-.02-.08.02-.16.04-.14.05h.03s.01,0,0,0M10.07,8.99s.06-.01.08-.02c.03-.01.05,0,.08-.02.03-.01-.03-.02-.06-.04-.03-.02-.05,0-.09,0-.04,0-.04.02-.03.03.01.02,0,.03.02.04M9.63,8.73s.03,0,.03,0c0,0,.01-.01.04,0,.03,0,.05,0,.04-.03,0-.01.03-.01.06,0,.02,0,.03,0,.04,0,.05,0,.09-.04.13-.05.04-.02.09-.01.06-.02-.03,0,.01,0,.03-.04.01-.03-.03-.02-.07-.01-.03,0-.06.01-.04,0,.05-.04-.02-.02-.06,0-.04,0-.07.01-.1.03-.03.02-.07.01-.13.03-.06.02.03.05-.03.06-.06.01-.01.01-.05.02-.04,0-.02.02.03.03M10.83,11.11s-.02,0-.03.01c-.01,0,0-.02.02-.03.02-.01,0-.02-.01-.01-.01,0-.03.02-.05.03h-.01s-.02.01-.02.01c-.01.01,0,.02,0,.03-.02.02,0,.04,0,.06,0,.02.02,0,.03-.01,0-.02.02-.04.02-.02,0,.02,0,.03,0,.05,0,.01.01,0,.02,0h0s.03-.03.03-.03c0,0,0-.03.01-.04.01-.01,0-.03,0-.05M10.83,11.02s0-.02,0-.02c-.01,0-.02,0-.03,0h-.02s0,0,0,0c.02,0,.03,0,.03-.02h0s0,0,0,0c0-.01.02,0,0-.02,0-.02-.03-.01-.06,0h-.02s-.01,0-.01,0c-.02,0-.04.01-.03,0h-.01s-.01-.02-.01-.02c.01-.02-.03-.01-.02-.02,0,0,0-.01-.03,0,.01-.01.05-.01.06-.02.01-.01,0-.01-.01,0h-.01s-.01,0-.01,0h0s0,0,0,0c-.01,0-.04.03-.06.04,0-.01.03-.04.04-.05.01,0,0-.02.01-.02h.01s.01-.02.01-.02h.02s.01-.02.01-.02l.02-.03s0-.02-.01-.01c-.01,0,0-.01,0-.01.01,0,.02,0,.02-.02,0-.01,0-.02-.02,0h0s0,0,0,0c-.01,0-.02,0-.04,0-.02,0-.01.02-.03.03-.02.01-.03,0-.02.02,0,0-.01.02-.03.03l-.07.08s0,.04-.03.05c-.02,0-.01.02-.03.03-.02.01-.02.02-.01.02,0,0,0,0,0,.02-.03,0-.03,0-.06.02-.02.02,0,.02-.03.03-.02,0-.02,0-.02,0h-.01s.02,0,.04,0c.02,0,0,.01-.02.02-.02,0-.03.02-.05.03-.02.01,0,.02,0,.03,0,.01,0,.02,0,.02,0,0,.03-.01.06,0,.02,0,.02,0,.03,0,0,0,0,0,.03,0,.02,0,.03,0,.04,0h.02s.03-.01.03-.01h.02s.01,0,.01,0h.02s.01,0,.03,0c.01,0,0,0,0,0h0s.01,0,.02,0c0,0,0,.01.02,0,.02,0,.04,0,.03,0-.01,0-.03.02-.03.03,0,0-.03.02-.04.03-.01,0-.01.02,0,.02.01,0,0,0,.02,0,.01,0,.03-.01.05-.02.01,0,.01-.02.02-.02.01,0,0-.01.02-.03h.02s.01-.01.01-.01c.02-.01.03-.01.03-.03,0-.02.02-.02.02,0,0,.01.02,0,.04-.02.02-.01-.04-.02-.03-.02.01,0,.03,0,.04-.01.01-.01,0,0,.01-.02M9.12,9.02c.06.01.1.02.12,0,.02-.03.07-.05.1-.06.03-.01-.02-.02-.06-.02-.01,0-.03,0-.04,0-.04,0-.08,0-.1,0-.03.01-.07,0-.07.05,0,.02-.04.03-.03.05.01.01.03.03.04.02.01,0,.05-.02.03-.03-.02,0-.05-.03,0-.02M9.24,9.68s.01,0,.04.02c.03,0,.02.02.06,0,.04-.03-.03-.02-.01-.02.02,0,0-.03-.03-.03-.02,0-.04-.01-.03-.04,0-.03-.06-.02-.06-.04,0-.02-.04-.01-.06.01-.02.02-.01-.02,0-.03.01,0,0-.03-.03-.01-.03.01-.05.03-.09.06-.03.02-.08.05-.07.08-.09.02-.11.04-.12.05,0,.01.04,0,.07,0,.03,0,.03,0,0,.02-.02.01-.03.02,0,.02.02,0,.05,0,.08-.01.03-.01.03-.04.06-.04.03,0,.06,0,.07-.03,0-.02.01-.01.02-.01,0,0,.02,0,.04,0,.04-.02.03,0,0,.01,0,0,0,0,.02,0,.03,0,.06,0,.02.02M10.98,9.33s-.01-.05-.05-.03c-.04.03-.05.03-.05.01,0-.02,0-.03-.03-.02-.01,0-.01,0-.01,0,0,0,0-.01-.02,0-.02,0-.02,0-.02,0,0,0,0-.02-.01,0-.01,0,0,0,0-.01,0,0,0-.02-.02,0-.02.01-.03,0-.04,0,0,0-.01-.01-.03,0,.02-.02.08,0,.06-.03-.01-.01-.04,0-.07,0-.02,0-.04,0-.06,0-.02-.01.14-.03.11-.05-.03-.02,0-.03-.03-.05-.03-.02-.04,0-.09.02-.05.02-.04.02-.01,0,.03-.02.08-.04.06-.05-.02,0-.03-.01-.07,0-.02.01-.02,0-.02-.02,0-.02,0-.03,0-.02-.01.01-.02,0-.03,0-.01,0-.03-.02-.06,0-.01,0-.03,0-.04,0-.01,0-.02,0-.04,0-.01,0-.02-.01-.03-.03,0-.01-.02-.03-.06-.03-.07,0-.13.01-.08.04.05.03-.04,0,0,.04.02.02.02.03,0,0h0s-.05-.05-.05-.03c0,0,0,0-.01-.02,0-.02-.01-.04-.03,0-.02.03-.03.02-.03.01,0,0,0-.01-.02,0-.03.04-.08.06-.06.02.02-.03.05-.05.01-.05-.04,0,.01-.02,0-.03-.02-.02,0-.04-.03-.03-.02,0-.09,0-.15.02-.06.02-.05,0-.08.03-.04.02-.13.02-.06.03.02,0-.14.02-.05.06.06.02-.11-.01-.1.07-.03-.02-.02-.06.01-.07.04-.02.03-.04.06-.06.03-.02.06-.05-.01-.04-.07,0-.1,0-.15.02-.02,0-.05.02-.07.03-.04.03-.02.04-.09.06-.07.03.02.05-.02.05-.08.01,0,.09.08.07.07-.02.04,0,.08-.02.04-.02.02,0,.06,0,.03,0,.05.02.07,0t.04-.02s-.03.03,0,.03c.01,0,.02,0,.02,0,0,0,0,0,.02,0,.01,0,.02,0,.03.01,0,.01.02.02.03,0,.02-.02-.01-.06.02-.04.03.02.02.05.06.03.04-.01-.05-.03-.02-.04.01,0,.02,0,.03,0,.01,0,.02.02.04,0,.03-.01,0-.07,0-.07,0,0,.06.05.07.02,0-.02,0,0,0,0,0,0,.01,0,.03,0,.02,0,.03,0,.03.01,0,0,0,.02.03.01.02,0,.02,0,.02.01,0,0,0,.01.02.01.03,0,.07.01.03.02-.03,0-.06.04-.02.04.02,0,.03,0,.03-.01,0,0,0-.01.01-.01h.02s.03,0,.04.01c.01.02.04,0,.04.03,0,.03.04.05,0,.06-.04.01-.04,0-.08.02-.04.02-.1.03-.06.04.04,0,.06.03.09.01.03-.02.07-.06.06-.03,0,.03,0,.04.04.04.05,0,.02,0-.03.02-.02,0-.03,0-.04,0-.01,0-.02,0-.04.02-.04.04-.06.04-.05.02,0-.02,0-.02.02-.04.02-.02.01-.03-.01-.03-.03,0-.07-.03-.09-.02-.02.01-.06.01-.07.03-.01.02.06.03.06.05-.04-.02-.1-.03-.08,0,0,0-.02,0-.04,0-.02,0-.04,0-.03,0,.01,0-.01,0-.04,0-.03,0-.06,0-.04,0,.02,0-.02,0-.05,0-.05,0-.1-.01-.07.01.03.02,0,.02-.04.01-.03,0-.06,0-.03,0,.06.03,0,0-.02.06-.01.04.02.02,0,.04-.01.02.02.02.04.02h.02s.04,0,.02,0c-.02-.02.04-.01.02-.02,0,0,0,0,.01,0,.02,0,.03,0,.02,0-.01-.02.01,0,.04,0,.03.01.06.02.05,0-.02-.02-.04-.06-.03-.04.02.02.04.04.07.03.03-.01-.05.03,0,.04.04,0,.09.01.11.03.02.02.04.03.06.01.02-.02-.02.03.03.03.04,0,.08.03.09,0,.02-.06,0-.01.03,0h.02s.02,0,.02,0c0,.01.1.05.12.03.01,0,.03,0,.04,0,.01,0,.03.01.04,0,.03-.02-.03-.02,0-.04.02-.01.02-.02-.02-.02-.04,0,0-.04-.05-.03-.02,0,0-.03-.06-.05.07,0,.1.03.12,0,0-.01.02,0,.03,0,.01,0,.02.02.03.01,0-.01.02,0,.03,0,.01,0,.02,0,.03,0,.01-.02.02-.01,0-.03-.02-.01.03-.03,0-.04-.04-.01.04-.02,0-.03-.05-.01-.02-.04-.06-.04-.04,0-.05,0-.03-.02.02,0-.03-.05,0-.04.04.02.04,0,.03-.02,0-.02-.02-.03,0-.02.03.02.02.02.04.01.02,0,.05-.01.05.02,0,.02,0,.01.02,0h.01s.02,0,.04-.03c.02-.02-.03.04,0,.05.03,0,0,.04.03.02.01,0,.01,0,.02.02,0,.01,0,.02.02.02.03-.01.02-.03,0-.04h.01s.02,0,.01-.01h0s.03,0,.01-.02c-.01-.03,0-.02.02-.01.02,0,.03.01.03,0,0-.02.01-.02.03-.02.02,0,.03,0,.02-.02,0-.02,0-.01.03,0,.02,0,.04,0,.03-.01,0-.02.02-.01.04,0,.02,0,.04.01.03,0-.02-.03.08-.02.03-.03M8.4,9.2h0s-.03.03-.05.05h0s.11-.03.05-.05M10.14,11.25h0s0-.01,0-.01c-.01,0-.05.05-.07.06-.02.01-.01.02-.01.05,0,.01,0,0,.02,0h.01s.02,0,.02,0h.02s.02-.01.04-.02c.02,0-.01-.02,0-.03.01,0-.01,0-.04,0,.02,0,.02-.04,0-.04M9.35,8.73s.04,0,.05,0c.01,0,.02,0,.03,0,.02-.01,0-.02,0-.04,0-.02-.08.01-.13.05-.04.03,0,.01.05,0M10.02,8.65c-.06,0-.08.02-.06.04.01,0,.04,0,.07,0,.02,0,.03,0,.05,0,.03,0-.05.01-.09.02-.04,0,.1.02.07.03-.04,0-.05,0-.1-.01-.05-.01-.08-.01-.12,0-.04.01-.01.03-.04.03-.03,0-.07,0-.11.02-.04.01-.03.03.01.03.03,0,.05,0,.06,0,.02,0,.03,0,.06,0,.06.01.08.02.13.01.05-.01.05-.04.08-.03.03,0,.07.03.1.02.02,0,.03,0,.04,0,.01,0,.03,0,.05,0,.04,0,.06-.04.09-.04.03,0,.11,0,.08-.02-.03-.03-.05-.04,0-.03.06,0,.09.01.07-.02-.02-.03-.02-.02.02,0,.02,0,.04,0,.05,0,.01,0,.02,0,.03,0,.02,0,.12.03.15,0,.03-.03.05-.03.08-.01.02.01.05.02.09,0,.03-.02.05-.01.08,0,.02,0,.05,0,.11,0,.11-.04.15-.03.23-.07.07-.04.13-.04.18-.05.05-.01.17-.06.03-.05-.07,0-.09,0-.11-.01-.02,0-.03-.01-.09-.01-.11,0-.15.05-.24.03-.06-.01-.08,0-.12,0-.03,0-.04,0-.06,0-.01,0-.03,0-.05,0-.05,0-.09,0-.15.01-.04,0-.06,0-.08,0-.02,0-.03,0-.04,0-.03,0-.07,0-.11.01-.02,0-.03,0-.05,0-.01,0-.03,0-.04,0-.02.01-.08,0-.09.02-.01.01-.11.02-.14.04-.01.01.01,0,.04,0,.03,0,.06-.01.07,0,.03.01.04,0,.07,0,.01,0,.02,0,.02,0h.02s.04,0,.07,0c.02,0,.04,0,.05,0,.02,0,.03,0,.02,0-.02.01-.06.02-.1.01-.04,0-.05.02-.1.03-.05,0,0,.07-.03.06h-.03s-.02,0-.02-.02c0-.02-.06,0-.09,0-.11,0,.06.02-.12.04M8.64,9.08s.05,0,.06.02c.02.01.03,0,.04,0h.01c.06.02.05,0,.08-.01,0,.02.02.02.05,0,.02-.02.02-.02.04-.03.05-.03-.01-.03,0-.04,0,0,.05,0,.07-.03.03-.02,0-.02-.02-.02-.01,0-.02,0-.02,0,0,0,.05,0,.04-.02,0,0-.03,0-.06,0-.02,0-.03,0-.04,0,0,0-.02,0-.03,0-.01,0-.03,0-.04,0,0,0-.02,0-.03,0-.01,0-.02,0-.03,0-.02,0-.06.01-.04.02.02,0,.05.02.05.03,0,.01,0,0-.04,0-.04,0-.11,0-.14.01-.01,0,.02.05.04.05M8.83,8.87s.05.01.07,0c.02,0,.04-.01.04,0,0,.04.03.03.07,0,.01,0,.02,0,.03,0,0,0,.02.02.05,0,.02-.01.03-.02.05-.06.02-.04.06-.01.1-.05.04-.04-.08-.02-.13-.01-.05,0-.06.03-.09.05-.03.03,0-.03.02-.06.02-.04-.04,0-.09,0-.05,0-.03.04-.03.07,0,.02,0,0,0-.01l-.02-.02s-.02,0-.03,0c-.01,0-.03,0-.05,0l-.02.02s.03,0,.04.01c.03.02-.04.01,0,.05M20.33,14.5s-.05-.02-.05-.07c0-.03,0-.03-.01-.03,0,0-.01,0-.02-.02,0-.02-.01-.02-.02-.02,0,0-.02,0-.05-.02-.03-.03-.12-.07-.12-.08,0-.03-.04-.03-.08-.08-.04-.05,0-.1-.03-.09-.03,0,.03-.06-.02-.07-.04,0,0,.02-.05.05-.05.03,0,.05-.1.13-.04.03,0,.05-.02.04-.01,0-.01,0-.01,0,0,0,0,0-.02,0-.01,0-.01,0-.02,0,0,0,0,0-.02,0-.02,0-.02,0-.02,0,0,0,0,0-.04,0-.07,0-.08,0-.08,0-.05-.02-.02-.08-.05-.06-.02,0-.02,0,0-.01h0s-.01,0,0-.02c.02-.02-.02-.07,0-.08.02-.02-.03-.07-.04-.08-.02-.02-.03.02-.04.04h0s0,0,0,0c0,.01-.01.02.02.09-.03-.03-.05-.04-.05-.07,0-.03-.03-.05-.03-.08,0-.05-.02-.04-.02-.06,0-.04-.02,0-.05-.05-.04-.04-.05-.03-.04-.04.02-.01-.02-.03-.04,0,0-.03,0-.03-.05-.12-.05-.09-.06-.1-.08-.09-.02-.06.06-.06.04-.07-.01,0,.02-.04-.04-.05,0,0,0-.03.03,0,.04.05.02.02.05,0,.03-.02,0-.02.02-.04,0,.02,0,.02.04.04.02.02.03.01.04,0,.01,0,.02-.02.06.04.04.07.07.04.07.07,0,.03.05.03.06.1,0,.06.01.03.04.05.03.02.04,0,.05.03.01.02.02.02.02.02,0,0,0,0,.01.01.03.06.03,0,.07.07.02.04.04.03.06.03.01,0,.03,0,.04,0,.03.02.05,0,.07,0,.01,0,.03,0,.04,0,.02,0,.03,0,.04-.02.02-.02.04-.03.08-.02.08.02.04.06.08.1.03.04.03.09.08.08.01,0,.03,0,.04.01.02,0,.04.02.07,0,.04-.01.07,0,.09,0,.02,0,.02.02.03,0,0,0,.04,0,.05,0-.04-.17-.06-.35-.11-.51-.05-.17-.07-.33-.13-.49-.06-.16-.09-.34-.16-.49-.07-.16-.11-.31-.18-.47-.08-.16-.14-.34-.23-.49-.08-.15-.15-.3-.24-.44-.09-.15-.17-.3-.27-.44-.1-.14-.2-.29-.3-.43-.11-.14-.19-.26-.31-.39-.11-.13-.25-.27-.37-.39-.02,0-.23.03-.24.04h-.02s-.01-.01,0,.02c.02.05.01.01,0,.04,0,.02,0,.01-.01.01h-.02s-.02,0-.02,0h-.02s-.02,0-.02,0h-.02s-.04-.02-.06-.03c-.02,0-.07-.05-.02-.04.06.01.01-.02-.02-.03-.03-.01.01-.02-.02-.03-.08-.02-.13-.04-.13-.04,0,0,.03.02.06.07.04.05,0,.06.03.06.04,0,.03,0,.03.02,0,.02.02.09,0,.05,0,0-.02,0-.03,0-.01,0-.02.01,0,0,.02-.03-.03-.02-.06-.02-.01,0-.01,0-.02,0,0,0,0-.01-.07,0-.05.01-.05,0-.07.02-.03.03-.03,0-.04.02-.02.03.13.04.11.08h-.02s-.02,0-.04,0c-.02,0-.03,0-.05,0-.02,0-.04-.01-.08,0-.02,0-.01,0,0,0,0,0,0-.01-.02-.01-.02,0-.03,0-.04,0-.01,0-.02,0-.02,0,0,.01-.03.01-.02.02.03.01-.02.02.07.03.04,0,.07.03.05.03-.02,0-.01.03-.03.02-.03-.02-.1-.01-.12-.03-.02-.02-.03-.01-.07-.02-.08-.02,0,0-.02-.03-.03-.02.01-.02-.02-.02-.04,0,0-.02-.02-.03-.01-.01,0,0,0-.03,0-.01,0-.01-.01,0,0,0-.01,0-.03,0-.02-.01-.03-.01-.04-.01-.01,0-.02,0-.04,0-.06-.03.03,0-.03-.03-.04-.01-.02,0-.02-.01,0-.01-.08,0-.08-.03,0-.01,0-.01.01,0h.02s.03,0,.03,0h.02s.01,0,.02,0c0,0,0,0,.02,0h.02s.01.02.02.01c.03-.03-.03.03.19.05.17.01.19.03.2.03.06-.02.08-.04.09-.05.02,0,0-.01,0-.02.02,0-.05-.05-.05-.05h-.01s-.02-.01-.02-.01c0,0-.03,0-.05-.02-.03-.01-.06-.03-.08-.02-.02,0-.06,0-.1-.02-.04-.02-.07-.03-.09-.02-.02,0-.05,0-.09-.02-.03-.01-.07-.02-.09-.02-.03,0-.05,0-.06,0h-.02s-.02,0-.02,0h-.01s-.06-.02-.07-.02c0,0,0,0,.02,0,.02,0,.04,0,.03,0,0,0-.08-.04-.07,0,0,.02,0,.01-.02,0-.01,0-.03-.01-.05,0-.04,0-.03-.01-.07-.02.01,0,.1.02.08,0-.03-.03-.04-.03-.06-.02h-.02s-.01-.03-.03-.01h-.02s-.02,0-.02,0c-.02.01.03-.03-.01-.04-.05-.01,0,.03-.03.04-.01,0-.01,0-.02-.02,0-.01,0-.02,0-.02-.02.01,0,.04-.05.06-.02.02-.01,0,0-.03,0-.02.02-.04,0-.04-.02,0-.02,0-.02,0,0,0,0-.01-.04,0-.06.04.03,0-.01.06-.02-.06-.04-.06-.06-.01-.02-.03-.03-.02-.04,0,0,0-.02.02-.04.01-.01,0-.02,0-.03,0-.01,0-.02,0-.03,0-.02-.01-.02,0-.03,0,0,0,0,.01-.03,0-.02,0-.02,0-.02.01,0,0,0,.01-.03.01-.02,0-.03,0-.04,0,0,0-.01,0-.03,0-.02,0-.03,0-.03,0h-.02s-.03,0-.04.01c-.02,0-.03.01-.05.01-.02,0,0,.02-.03.02-.03,0-.01.02-.05.02-.03,0-.02.03-.04.04-.02,0,0,.02-.04.02-.05,0-.03.02-.05.02-.02,0-.02.02-.04.02-.03,0-.01.03-.03.04-.02,0,0,.02-.03.02-.03,0-.02.03-.05.04-.03.01-.01.03-.04.04-.03.02-.01.03-.04.03-.02,0,0,.02-.05.03-.04.01,0,.01-.02.02.04.02.03,0,.08,0-.02.02-.03,0-.01.03-.03-.01-.03,0-.04,0,0,0-.01,0-.03,0-.04-.02-.02-.02-.03,0-.01-.02-.05,0-.05.01-.02-.01-.05,0-.06.02,0-.01-.02,0-.05,0-.03,0-.03,0-.01.03-.02-.02-.03-.01-.05,0-.02.01-.04,0-.07.04h-.02s-.02.01-.02.01c-.02.02-.02.02.02.04-.06,0-.05.04-.02.04h.02s.02-.01.04,0c.02,0,.02,0,.02,0,0,0,0,0,.03,0,.04.01.05,0,.05,0,0,0,0,.02-.03.02-.02,0-.03,0-.03,0,0,0,0,0-.02,0-.02,0-.02,0-.03,0,0,0-.02,0-.04,0-.04,0,0,0,0,.02-.01.01,0,.02.03.01-.02.02-.04,0-.03.02,0,.03.02.02.02.02h0s0,.01,0,0c0,0,0,0,0,0,0,.02,0,.01.01,0h.01s-.01.03-.03.01c-.02-.02-.02.02-.02.07.02-.03.02-.03.02-.02h.01s0-.01.06-.03c-.04.05-.05.04-.02.07h-.02s-.02-.02-.03,0c-.03.03.02.03.04.05.01.02.02.03.07.02-.05.02-.01.02.03.03-.02.02-.02.01,0,.01.01,0,.03,0,.04,0,.03.02.02,0,.07,0,.05,0,.04-.03.06-.03.02,0,.04-.02.03-.06.02.02.03.02.05.02.02,0,.02-.03,0-.06.02.02,0,0,.02-.04,0,.02,0,.03.01.07,0,.02.01.01.02.01h.03s0,0,0,.05c0,.04.03.01.03.04,0,.02,0,.01,0,.01,0,0,0,0,.01.01,0,.03.01.02.01.02,0,0,0-.01,0,0,.01.03.01.06.04.07.03.02,0,.01.03.03.02.01.02.04-.02.02,0,.02,0,.02.03.04.03.03.02.07.07.05.02,0,.03,0,.05,0,.01,0,.03,0,.03,0,.01-.02-.02,0,0-.04,0-.03.01-.02.02-.02h0s.03,0,.07,0c.04,0,.04-.04.04-.05.01-.04,0-.06,0-.08.02-.03-.02-.05,0-.07.02-.02,0-.02.01-.03,0-.02,0-.02-.04-.03,0,0,.02,0,.04,0,.03,0,.06.01.04-.02.02.02.03.03.04.01h.01s.02,0,.04-.05c-.06.02-.03,0-.1-.02.02,0,.03,0,.05.01.02.02.02,0,.04,0,.02,0,.01-.02-.02-.03-.04-.01-.02-.02-.05-.03-.01,0-.01,0-.01,0,0,0,0,.02-.03-.01-.06-.05-.02-.07-.02-.1,0-.03.01-.04,0-.08,0-.02,0-.02,0,0,0,0,.02.01.02,0,0-.01,0-.01.01-.01,0,0,0,0,.02,0,.01-.01.02,0,.03,0,.01,0,.02,0,.03,0h.02s0,0,.02-.02c0-.01.02-.01.03-.01,0,0,.02,0,.03-.02.02-.04.02-.01.04-.05.03-.04-.03-.03,0-.06.01-.02.02-.01.03-.01h0s0-.01,0-.01c0,0,.01,0,.02,0,.01,0,.02,0,.03.01.01,0,.02.02.02,0h0s.02,0,.02-.01c.01.01.01,0,.03.02.01.02.09.01.09.04,0,.03.03.03,0,.04h-.02s-.02,0-.02,0c-.02.02,0,.02-.03.03-.02,0-.02.02-.04.02h-.01s0,.01,0,.01h0s-.01,0-.01,0c-.01,0-.01,0-.02,0h-.01s-.02.02-.02.02h-.01s0,0-.02.01c-.01,0-.03,0-.01.01.01,0,0,.02-.01,0,0,0-.03.02-.01.02.03,0-.01,0,0,.02.02.01-.01.01,0,.02.01,0,0,.02.01.03.01,0,0,.01.02.02.01,0-.01.02,0,.04.02.02,0,.04.03.03.01,0,.01,0,.01.01,0,.01,0,.03.04,0,0,.01-.01.04.02.04.03,0,0,.03,0,.03h.03s.02-.02.03-.02c.03,0,0,0,.04-.02.02,0,.03,0,.04,0,.01,0,.02.01.03,0h.02s.02,0,.04,0c0,0,.02,0,.03,0,.02,0,.04,0,.07-.01.01,0,.02,0,.03,0,.01,0,.03.01.07,0,.05-.03.04,0,.03,0-.01,0,.03.02.05.02.01,0,.02,0,.03.01,0,0,.02.02.04,0,.01,0,.02,0,.03,0h.02v.02h-.02s-.06,0-.07.01c0,.02-.02.01-.03,0,0,0-.02,0-.02,0,0,.02,0,0-.01,0h-.01s.01,0,0,.02c0,.01-.02.02-.04,0-.02,0-.03,0-.04,0-.01,0-.03,0-.05-.02-.02-.02-.02-.01-.03,0h-.02s-.02-.01-.02-.01h-.02s-.01,0-.02,0c0,0,0,0-.02,0-.01,0-.01,0-.02,0h-.01s-.01.02-.04.02c-.03,0,0,0-.01.02-.02.02.03.03.03.03h-.02s.03.03.03.04c0,.02.02.02.03,0,0-.01.02-.01.02.03,0,.02.02.04.01.06,0,.03-.02.02-.04.03-.01,0-.02-.01-.04-.01-.02,0-.01-.04-.03-.04-.02,0-.03-.03-.04-.03,0,0,0-.02-.03,0-.04.03-.03,0-.05.04-.02.03.01.05,0,.07-.02.02,0,.04,0,.07,0,.06.01.05.01.07-.02.04-.02.02-.02,0,0-.01,0-.03,0-.01,0,.01-.03.03-.04.02h-.01s-.02,0-.02,0c-.02,0-.01,0-.02,0h.01s.02.01.02.01h0s-.02,0-.02.01v.03s-.02,0-.02,0h0l.02-.03h0s-.02.02-.02.02c-.01,0-.02,0-.04,0-.01,0,0-.02,0-.02,0-.03.02,0,.02,0h0s-.02-.03-.03-.03c-.02,0-.06,0-.09,0-.04,0-.05.02-.07.03-.02.01-.03,0-.04,0,0,0-.02,0-.03,0-.03,0-.06.01-.07.02-.05,0-.02.04-.04.04h-.01s-.02-.02-.03-.02c-.03-.02,0-.02-.02-.03-.01,0-.01,0-.02,0h-.01s-.02,0-.03,0c-.01,0-.02,0-.03.01-.01,0,0,0,0-.01h0s0,0,0,0c0,0,0,0-.01,0-.01,0-.02.02-.04.02-.02,0-.03,0-.04,0-.01,0-.02-.01-.03,0,0,.01-.03,0-.04,0h-.02s-.01,0-.01,0c-.03-.02.04,0,0-.03h-.02s0,0,0,0c0,0-.01-.01-.02,0,0-.02-.01-.02-.03-.01.01-.01,0-.02-.01-.02h0s0-.02-.02-.02c-.01,0-.01-.04,0-.04.02,0,0-.02.01-.02.02,0,0-.03.02-.03h.01s0-.02,0-.02c.01,0,.03,0,.02-.02,0-.01-.02-.01-.04,0h-.01s-.02,0,0-.01c.01,0,0-.01,0-.03,0-.02-.01-.01-.02-.02h0s-.01,0-.01,0c-.02,0,0,.02-.01.03,0,.02-.01,0,0-.02,0-.01,0-.02-.01,0-.01,0-.01,0,0,.02,0,.01-.01.01-.02,0,0-.01-.02-.02-.03-.01-.01.01,0,.03,0,.04v.02s0,.01,0,.03h0s0,.01,0,.01c0,.02.02.02,0,.03-.01,0,0,0,0,.02h.02s0,.04,0,.04h0s.02.04.02.04h0s-.01.01-.01.01c0,0,.03,0,.02.01,0,0,0,0,.01.01v.02s0,0,.02.01c.01,0,.02.02.04.03-.02,0-.02,0-.03-.02h-.02s-.02,0-.02,0c-.01,0,0,.01-.02.02,0,.01,0,0,0,.02h-.02s0,.01,0,.01h-.01s0-.02,0-.02c0-.01-.02-.01-.03,0h-.01s-.01,0-.03.02c-.01,0,0,.01,0,.01h0s0,0,0,0c-.01,0-.02,0-.03,0h-.02s-.03,0-.03,0h-.02s0,.04.01.04c.01,0,0,.02,0,.02,0,0,0,.01,0,.02-.01,0-.01,0-.02.02h-.02s0,0,0,0h0s0-.02,0-.02h0s0-.01,0-.01c0,0,0,0,0-.02h0s0-.01,0-.01c0-.01,0-.01-.01,0,0,0-.01.02-.02.05,0,.03-.02.03-.03.05,0,.02,0,.01.02.02.01,0-.01,0-.02,0h.02s0,.02.01.03h-.02s0,0,0,0h-.01s-.01,0-.01,0c0,0,0-.01-.02,0-.03.01-.04.02-.05.03-.02,0-.02.02-.04.01-.02,0-.02,0-.04,0-.02,0-.02.02-.02.02v.02s-.02,0-.02.02c0,.03-.03.02-.05.03-.02,0-.02,0-.04.01-.01,0-.02,0-.03.01,0,.01-.02.01,0,.02.02,0,0,0-.02,0h-.02s-.02.02-.02.02c-.01,0-.02,0-.02,0l-.02-.02s-.01-.01-.01-.03h-.02s-.01,0-.01,0c-.01,0-.02,0-.02,0,0,0,0,.02,0,.03,0,.01,0,.02,0,.04,0,.01,0,.01,0,.03,0,.02.02.02,0,.02-.02,0-.04,0-.04,0h-.02s-.01,0-.01,0h-.03s0,0-.01-.01c0-.01-.01,0-.03,0-.02,0-.02,0-.03.01,0,0-.02,0-.04,0h-.02s-.02,0-.02,0v.02s.04,0,.03,0c-.01,0,.02.01,0,.01-.01,0-.03.01-.02.01.01,0,0,.02.02.03h.02s.02,0,.02,0c.01.01.03.01.04.02.02.03.01,0,.04,0h.01s0,.02,0,.02c0,0,.04.01.02.02-.01,0,0,.02.02.02.02,0,.01,0,0,0v.02s0,.01.02.04c0,.01.02,0,.05.02.02.02.02.03.04.02.02-.01-.02.02,0,.03.01.01,0,0,0,.03-.01.03.02.02.03.07-.01-.02-.03-.05-.04-.02,0,.03,0,.07-.02.09-.01.02-.02.08-.03.09,0,.01-.01.02-.03.02h-.01s-.02,0-.03,0c-.01,0-.04,0-.04,0,0,0-.03,0-.05-.01h-.02s-.01.01-.01.01c-.01,0-.02,0-.03-.01,0,0-.02,0-.03,0-.01,0-.03,0-.04,0-.03,0-.08,0-.1,0-.02,0-.02,0-.02,0,0,0,0,0-.02,0-.01,0-.06,0-.08,0-.02,0-.05-.01-.05-.02h-.01s-.03,0-.03,0c0,0-.02.01,0,.01.01,0,0,0,0,0h-.01s-.02,0-.02,0c0,0-.02,0-.03.02-.02,0,0,.01,0,.02,0,0,.03,0,.01.03-.01.01,0,0,0,.02,0,.02,0,.03.01.03.02,0,0,0-.01.01v.03s0,.02,0,.02c-.01,0,0,.02,0,.03-.01,0,0,.01,0,.04-.01.03,0,.05-.01.08-.01.03-.01.03-.02.06-.01.03.01,0,0,.04-.01.03-.02.03-.02.03h0s0,.04,0,.06c0,.02,0,.03,0,.03,0,0,.01-.01,0,0,0,.01,0,.01,0,.03,0,.02.02,0,.04,0,0,0-.01,0,0,.02,0,.02,0,.04,0,.06h0s0,.01,0,.01c0,.02,0,.02-.01.03-.01.01,0,.02-.02.03-.02.01,0,0,0,.01h.02s.02,0,.02,0h0s.02,0,.02,0c.01.01.02,0,.04,0s.03,0,.03-.02c0,0,.01.01.03.01h.02s.02,0,.03,0h0s0,.01,0,.01c0,0,.03,0,.04.02.01.01.01.01.02,0,0,0,0,0,0,.02h0s0,.04,0,.04c0,0,.01.02.03.01h0s.01,0,.01,0c.02,0,.01-.02.05-.03.04-.01.07-.02.07-.02,0,0,.01,0,.04-.01.03-.01.04-.01.06-.02.02,0,.04,0,.05,0h.04s.03-.04.03-.06c.01-.02.03-.03.04-.04.01,0,.02-.02.03-.02.02,0,.02,0,.03-.01h0s0-.04,0-.04c.02,0,0-.03,0-.03.01,0,0-.04.02-.04,0,0,.03-.02.01-.03-.01,0-.02,0-.03-.02-.01-.01-.02-.04,0-.07.01-.02.02-.02.03-.03.04-.03.05-.07.05-.05,0,.01,0,.01.02,0,0-.02,0-.02,0-.03,0-.01.08-.04.1-.05.02,0,.02,0,.03-.02.01-.01.03-.02.05-.02h.01s.01-.02.01-.02c0,0,0-.01,0-.02,0-.01,0-.02,0-.02.01,0-.03-.01,0-.01.02,0,.01-.02,0-.02h-.01s.01,0,.01,0c0-.01,0-.01,0-.03.01-.01,0-.01.02-.03.02-.02.04-.04.05-.04.01,0,.01,0,.03,0,.02,0,.03-.02.04-.02.02,0,0,.01.02.02.02,0,.04.01.04.02,0,0,.03.03.04.01.01.01.02,0,.04-.01.01-.02.01-.02.02-.03.01,0,0-.02.02-.02.01,0,.02,0,.03,0v-.02s0,.02,0,.02c.01-.01.06-.02.08-.05.02-.02.06-.02.12,0,.05.02.05.06.07.08.02.02,0,.03.02.04.02,0,.05.05.05.07,0,.02.02.02.03.02.01,0,.02.02.03.03.01.01.03.02.03.03s0,.02.02.03c.01,0,.04.04.05.05.01.01.04,0,.05,0,.02,0,.03.05.05.03h.01s0,.03,0,.03c.01,0,.05.02.04.02-.01,0,0,.02.03.03.02,0,.02.02.04.01.02,0,.02,0,.02.03,0,.03.03.06.04.08,0,.02.03.01,0,.04-.02.02.02.02,0,.06-.01.02,0,.04.02.04.02,0,.04-.01.05-.05,0-.04.03-.03.04-.05,0-.02,0-.03,0-.04h.01s.01-.01.01-.01c0-.01-.02-.02-.02-.03,0-.01-.01-.02-.03-.03-.01,0-.01-.01-.01-.02v-.02s.01-.02.02-.03c0-.01.01-.01.02,0h.02s.02,0,.02,0c.02.01.02.03.04.04.01,0,0-.02,0-.02.01,0,0-.02-.02-.04-.02-.02-.04-.02-.05-.03-.01,0-.02-.02-.04-.04-.03-.02-.05-.02-.09-.04-.04-.02-.01-.02,0-.03,0,0,0-.01-.01-.02h-.03s-.02,0-.03,0c-.02-.01-.03,0-.05-.02-.02-.02-.03-.02-.05-.05-.03-.03-.04-.07-.05-.09-.02-.02-.02-.04-.05-.06-.02-.02-.04-.01-.06-.03-.02-.02,0-.04-.02-.06-.01-.02-.01-.03,0-.03.01,0,.01-.02,0-.04-.01-.02.02-.02.05-.02.03,0,.02,0,.03-.03h.01s.01.01.01.01c.02,0,.02.01,0,.02-.02,0,.01.04.02.06.01.03.02,0,.03,0l.02-.05s.03.01.02.06c0,.02.03.03.05.05.03.02.04,0,.01.01-.02,0,0,.02.05.05.05.03.02.02.05.04.02.01.02,0,.02,0h.01s.04.03.06.04c.02.01-.01,0,0,.02.02.01.04.01.07.02.02,0,.02,0,.03,0h.02s-.04,0-.02.01c.02,0,.02.03.04.03.01,0,.02,0,.03.02h.02s0,.03,0,.03c-.01,0,.02.02.02.04,0,.01,0,.03,0,.03.01,0,0,.01,0,.02-.01,0,0,.02,0,.03,0,.02.01.02.03.03.02.02,0,.02-.02,0-.02-.02-.01,0,0,0,0,.01,0,0,.01.03.02.03.03,0,.04.03,0,.02.04.04.04.04h0s.03.01.04.04c0,.02.02,0,.02.03,0,.02.02.02.03.04,0,.01.02,0,.01-.01h0s.01,0,.01,0c.01-.01,0,0,.01.01.01,0,.02.01,0,0-.02,0-.03,0-.03.01,0,.01.02.02.02.03,0,.01,0,.02.02,0h.02s.01.02.03.01c.01,0,.02,0,.05.01.03.02.01,0,.03,0,.02,0-.02,0,0,.03,0,0,0,0-.03-.02h-.02s0,0-.02-.01c-.01,0-.02,0-.03,0h-.02s-.02.01-.02.01h-.01s-.02.02,0,.03c.01,0,.02.02.02.03.01-.02.06.04.03.05-.03.01.03.03.05.05.01.01.02.03.03,0,0-.02.02,0,.02.02,0,.02.02.01.02,0,0-.02,0,0,.03.02.02.02,0-.02,0-.02,0,0,0-.01-.01-.03,0-.02,0-.03,0-.03-.01,0-.02-.03-.01-.02.01,0,.01,0,.02.01,0,.01.01-.01.03-.02.01,0,0-.01,0-.02,0,0,0-.02-.01-.03-.02-.01.01,0,.03-.01.02,0,.02,0,.03,0,0,.01.03.04.02.01,0-.02,0-.02,0-.04-.02-.02-.02-.03-.04-.03-.02,0-.03-.01-.03-.02,0,0-.02-.02-.04-.01-.02,0,0-.03,0-.03,0,0,0-.02-.02-.02-.01,0-.02,0,0,0,.01,0,.01,0,0-.02-.01-.02,0-.02.01-.02v.02s0,0,.02,0c.01,0,0-.02-.01-.04-.02-.03,0-.01-.03-.03-.02-.01,0-.02-.01-.03,0,0,.01-.02,0-.04.02,0,.02,0,.03.02h.02s.01,0,.01,0c0,0,0,0,0,.02.01,0,.01,0,0,0,0,0,0,0,.02,0,0,.01,0,0,0-.01-.01-.01,0-.01.02,0,.02.01.01,0,0-.01-.01,0,0-.01,0-.03,0-.01.03,0,.03-.02h.02s.02-.01.02-.01c0-.01.03,0,.03,0h0s.02,0,.02,0c0,0,.03,0,.04,0,.01,0,.02,0,.02,0-.01,0,.02,0,.03.01,0,0,0,.04.02.03.02,0,.02-.02.05-.03.02-.01.02.01,0,.01-.02,0-.03.02-.04.04-.02.02,0,.01.03,0,.02-.01.03-.03.06-.04.02-.01,0-.02.02-.03.02,0,0-.03.03-.03h.02s.02,0,.02,0h.02s.02,0,.02-.02c0-.01,0,0-.04-.02-.03-.02-.07-.05-.08-.07-.01-.01,0-.01,0-.01-.01,0,0,0,0-.02-.01-.02-.03-.03-.02-.03h-.01s0-.03.01-.04h0s0,0,0-.02c0-.03.02-.03.02-.05,0-.02.01-.01.01,0,0,0,.02,0,.02-.02,0-.02-.01,0,0-.03,0-.01,0-.02,0-.04,0-.02,0-.02,0-.04.01-.01,0,0,0-.02,0-.01-.02-.01,0-.02.02,0,.01.01.01.02h.01s.02-.02.02-.02v-.03s0,0,0-.01c.04-.03,0,0,.01-.03.01-.03.03-.02.03-.04,0-.01.02,0,0-.02-.02-.02,0-.02.01,0,0,.02,0,.03.02.02.05-.02.03-.03.07-.03.03,0,.01-.02.07,0,.05.01.05.02.05.02,0,0-.04,0-.06,0-.02,0-.03,0,0,.01.05.02-.05,0,0,.02h0s0,0,.03.02c.02.01.03.01.04,0h.02s.03,0,.03,0c0,0-.01,0,.02.02-.04.02-.04.03-.06.04,0,0-.01.03,0,.03.07-.03.03.03.07.03.05,0,0,.04.01.05.1.04.05-.02.1-.03.02,0,.02,0,.03,0,0,0,0,0,.02-.02,0-.02.03,0,.05,0,.02,0,.03,0,.04,0h.01s0-.01,0-.01c0-.01.04,0,0-.02-.03,0-.05-.02-.07,0-.02,0-.03,0-.04,0,0,0-.02,0-.04,0,.03-.02-.04-.05-.05-.05-.01,0-.01-.01-.03-.01-.02,0-.03-.02-.02-.02h0s0,0,.04,0c.03-.01.05,0,.03,0-.02,0-.06,0-.03.01.02,0,.04,0,.05-.01.01,0,.02-.02.04-.01.04,0,.02.02.05,0,.02-.02.02-.02.03-.01,0,0,0,0,.03-.01.02-.02.02-.02.03-.02,0,0,.01,0,.02,0h.03c.11-.04.11-.04.08,0-.04.04-.07.04-.08.03-.01,0,0,0,.03.04.04.05.03.04.02.04-.01,0-.04,0-.05.03-.01.04-.03.04-.05.04,0,0-.01,0,0,.02.02.04.13.04.24.14.04.04.03,0,.13.07.06.05.07.02.09.06.01.03.03.01.04.07,0,.03,0,.05,0,.05-.07.09-.12.08-.16.06-.02,0-.04-.01-.06,0-.05.02-.09.01-.11,0-.01,0-.02,0-.03,0-.04,0,0-.03-.06-.03-.07,0-.03-.04-.08-.04-.02,0-.04,0-.05-.02-.01-.02-.02-.03-.04-.01-.02.01-.04.01-.07,0-.03,0-.07,0-.1.02-.06.04-.1.01-.14.06-.02.02-.06.01-.1,0-.04-.01-.08-.03-.09,0-.02.05.05.02.11.04-.03.01-.13,0-.09.02.03.01-.08.02-.1,0h-.02s-.02,0-.02,0c-.01-.02-.04.02-.07.03-.03.01-.05,0-.03.03.02.04-.04.04.05.04-.06.02.02.03,0,.05-.01.01.03.02,0,.03-.02,0,.03.04,0,.04h-.01s0,.02-.01,0c-.01-.02-.04,0-.01.02.02.02-.01.07.01.05.03-.02.03,0,.05.01.05.03,0,.06.03.07.03,0,.03.03.05.02.01,0,.02,0,.02.01,0,0,0,.02-.02.01-.02,0-.01.02-.01.02h.07s-.08,0-.06.03h.02s.03,0,.03,0h.06s.07,0,.05.01c-.02.02.05.08.06.05,0-.02.09-.02.07-.05-.01-.03.03-.04.07,0,.04.03.06.01.11.07.01.02.1,0,.1,0,0,0-.01-.02.05-.06.06-.04.04.01.1.02h.02s.02-.03.03-.01c.03.06-.04.02-.01.07,0,.02-.04.02,0,.05.06.03-.03.01.04.14,0,.05-.03.03-.04.07,0,.04-.03.05-.03.09s-.02.03-.02.09c0,.05-.02.03-.02.1-.04.07-.08.05-.11.04-.01,0-.03,0-.04,0-.05,0-.07,0-.12-.03-.02-.01-.03,0-.04,0,0,0-.01,0-.03,0,0,0-.09.01-.08.03.01.02-.03.01-.07.04-.04.03-.03-.02-.06-.02-.06,0,0-.04-.05-.02-.01,0-.04,0-.08-.03-.04-.03-.13-.03-.15-.02-.04.02-.07-.02-.08-.02-.01.03,0,.13,0,.13,0,0,0-.1,0-.13-.02,0,0-.03-.04-.02-.04,0-.03,0-.04-.01,0,0,0-.02-.04-.01-.08,0,.03-.02-.07-.05-.07-.02-.08-.02-.08-.01h-.01c-.06,0,.04,0-.05-.02-.08,0-.08.03-.13.05-.05.03-.04.09-.02.09.04,0,.01.14-.05.15-.06,0-.03,0-.12-.06-.09-.06-.13-.04-.17-.06-.01,0-.02,0-.04,0-.03,0-.06,0-.08-.08,0-.05-.02-.05-.03-.05-.01,0-.02,0-.04-.02-.02-.03-.04-.02-.06-.02-.02,0-.03,0-.06-.02-.02-.02-.04-.02-.06,0-.02,0-.04.01-.07,0-.04-.02-.05-.02-.08-.04-.03-.02-.02-.03-.04-.04-.05-.02.04,0,0-.03-.04-.02,0-.01-.02,0-.02.02-.09-.01-.07-.06.02-.05.05,0,.09-.07.04-.07,0-.07,0-.1,0-.03-.04-.02-.05-.09-.01-.06.02-.02.02-.06,0-.04,0,0,0-.04,0-.03-.02,0-.05,0-.06.02,0,0-.03-.02-.04-.01.03-.03,0-.04-.02,0-.01-.04-.06-.01-.05.03-.03,0-.1.04-.04-.01-.04-.01-.04,0,0,0,0,0-.01,0-.06-.03,0,0-.04,0h-.02s-.01-.03-.03,0c-.01.02-.03,0-.06.03-.02.02-.02,0-.02,0,0,0,0-.02-.03-.01-.02,0-.04,0-.05,0-.02,0-.03,0-.05,0-.02.01-.03.01-.03.01,0,0,0,0-.02.01-.02.02-.02.01-.03,0,0,0-.03,0-.06,0-.1,0-.06.02-.1.02-.04,0-.07.07-.1.07-.03,0-.02.08-.08.03-.02-.02-.02,0-.02,0,0,0,0,.02-.03.02-.02,0-.03.01-.03.02,0,.01,0,.03-.02.02-.02,0-.03,0-.03,0,0,0,0,0-.03,0h-.03s-.03-.02-.03-.03c0-.02.01-.03,0-.01-.03.04-.04.03-.05.03h-.02s-.04-.01-.05-.02c-.01,0-.03-.02-.04-.01-.02,0-.05-.02-.05-.03,0-.01-.02-.04-.05,0-.02.05-.04.03-.09.12-.1.22-.2.13-.22.23-.03.13-.05.06-.1.21-.03.09.06.07.04.13-.02.09-.14.13-.17.19-.03.08-.14,0-.19.1-.03.06-.03.04-.05.11-.04.15-.06-.01-.12.19-.04.14-.13.17-.16.31-.02.14-.05.13-.09.22-.02.05,0,.04,0,.04,0,0,.02-.01.01,0-.01.05-.01.08.01.07.02,0,.03.06.03.07,0,.02,0,.02-.02.06-.01.04-.02.04.01.03.02,0-.02.03-.02.04.07.1.03.17.04.22,0,.09-.05.08-.03.17-.03.05-.01.05-.06.13-.04.08-.04.06-.06.09-.02.03-.05.03-.01.04.04.01-.01,0,.03.03.04.02,0,0,.02.03.01.01.02,0,.02,0,0,0,.02-.01.04,0-.02,0-.05,0-.03.03.02.03-.02,0,0,.04.02.04,0,.05.03.04.03,0-.03-.03.08-.04-.1.02-.04.03-.08.04-.01,0-.02,0-.03,0,0,0,0,0,0,.02,0,.02-.01.07,0,.05.02-.02.03-.02.03-.02h.01s.03,0,.03,0c0,0,0,0,.02,0,.02,0,.02,0,.03,0,0,0,.01,0,.03,0h0s-.02,0-.02,0c-.02-.02-.02-.01-.03,0h-.02s-.03,0-.03,0c0,0,0,0-.02,0-.05,0,0,.01-.04.01s-.02.03,0,.04c.01.01,0,0,.04,0-.03.02-.04,0-.01.03.02.01.02,0,.03,0h.01s-.02,0,0,.01c0,0,.02,0,.04,0,.02,0,.04-.01.04,0,0,.01-.02,0-.07.03.02,0,0,.03.02.03.02,0,0-.03.05-.03-.03.02,0,.04-.01.03-.02-.01-.02.02-.02.02.02,0-.01.02.03.03-.02.03.02.08.04.07,0,.02.04.04.03.05-.02.03.01.06.05.07-.03,0,.03.08.06.08,0,.02-.04.03-.01.04-.01.01.02.02,0,.03-.02.01.03.03.01.03h0s0,.02,0,.01c-.02,0,0,.03.02.04l.02.03s-.02,0,.01.03c.02.02.03,0,.03,0h0s0,.01.02.01h0s.03.03-.02.02c-.01,0,0,.01.02.03.02.02.05.03.07.03.07.04-.01.02.03.05.04.02.03.05.07.05,0,.01-.02.04.05.07.07.04.04.07.08.08.04.01-.01.01.03.03.09.03.04.07.11.06,0,.02,0,.04.04.02.08-.03.12-.04.12-.11.03.07.06.02.17,0,.03,0,.06,0,.08,0,.01,0,.02,0,.02,0,0-.01-.02-.01-.03-.01-.01,0-.02,0-.03,0,0,0,0,0,.02,0h.02s.02,0,.03,0c0,0,.02.01.05,0,0,0,.04.02.07.02.07,0,.04.03.08.03s.01-.02.08-.02c.06,0,.08-.02.11-.04.03-.02.04-.02.02-.04h.02s.02.03.05-.04c.03,0,.06,0,.08-.02.02,0,.05,0,.03-.01-.02,0,.02-.01.02,0h0s.01,0,.03,0c.04,0,.04,0,.04,0,0,0,0,0,.04,0-.04.01.02.03.04.02.05,0,.11.04.1.07-.01.03.02.01.02.01,0,0-.03.02-.02.03.01,0,0,.04.01.03.02,0,0-.04.03-.02-.03,0,0,.02-.02.03-.01.01-.03,0,0,.03.03.02,0,.01.02.03.04.03.07.05.08.05.01,0,.01,0,.02,0,0,0,0,0,.01,0,.01,0,.01,0,.02,0h.01s0-.02.02-.04c.02.04.05.03.04,0,.03.02.06,0,.04-.02,0,.01.03.01.04.03h0s.01.01.01,0c0-.03,0,.02.04.05.02.02.03,0,.03,0h0s.02,0,.02,0c0,0,.02,0,0,0-.03.02.04.03-.01.03s.02.01,0,.03c0,.02.03.03.01.07-.02.04,0,.06,0,.11,0,0-.03.03-.02.05.01.03-.04.05-.04.08,0,.02.01.02.03.01.01,0,.03,0,.05,0-.07.03,0,.07-.06.07-.03,0,.02.04.04.05.02,0,0,.03,0,.02-.05-.02-.04-.04-.05-.04-.01,0,0,.06-.02.09-.02.03,0,.06-.05.04-.01,0,0,.03.01.06.01.03.03.06.03.06.02,0,0,.03,0,.03-.02,0,.01.05.02.06.03.02,0,.01,0,.01,0,0,.08.09.08.1,0,.03.07.07.06.08-.03.02.03.02.01.04-.02.01.02,0,.07.11.01.03.02.04.04.03h.02s0,.02-.02.01c-.06-.01.02.05,0,.06-.01,0,.02.05,0,.05-.02,0,.01.03.01.03,0,0,.02.04.05.02.01-.01.02-.01.03-.01,0,0,.01,0,.03,0-.01.02-.05.03-.08.04-.03.01.03.04.04.11,0,.07.06.15.04.22-.03.11.01.05,0,.1-.02.08.08.14.04.28-.04.14-.04.05-.07.13-.04.1-.03,0-.08.13-.06.15-.01.35-.05.39-.04.03,0-.04-.02.19-.01.15.09.24.08.32,0,.13.17.38.15.42-.03.08.01.04-.01.12-.02.08.07.37.05.4-.01.02.02.11.05.17.01.02.03.03.04.04.03.02,0,.25.09.33.07.05.01.09.03.15.01.06,0,.05-.03.07.05.05,0,.06.03.09.05.04-.03.08.06.11,0,0-.02-.04,0-.05.01,0,.03.01.05.03.03.03.06.05.11.01.03-.02.05-.02.06-.02,0,0,.01,0,.03,0,.03-.02.04,0,.07-.03.01-.02.03-.02.05-.01.01,0,.02,0,.03,0,.03-.01.07,0,.09,0,.04.02.04,0,.05,0,0-.01,0-.02.03-.01.07.02.04-.05.11-.05.15-.02.17-.14.21-.17.04-.03.08-.15.13-.17.1-.03.18-.33.25-.35.07,0,.06-.04.12-.26.02-.07-.07-.08.1-.16.15-.06.18-.17.18-.19,0-.07.06-.08.04-.14-.01-.06,0-.1,0-.12-.03-.08,0-.12-.03-.13-.05-.02,0-.15.08-.19.06-.03.16-.21.25-.23.08-.01.05-.06.08-.05.05,0,.14-.09.17-.14.04-.08.03,0,.07-.09.05-.11.06-.09.03-.2-.03-.12.02-.14,0-.22-.02-.08.03-.09.02-.13,0-.04.02-.09,0-.14-.03-.04-.05-.05-.05-.1,0-.13-.07-.13-.03-.2.04-.07,0-.04.03-.09.05-.09-.12-.09-.05-.21.07-.1.02-.11.07-.17.02-.02.02,0,.03-.05,0-.05.04-.05.04-.11,0-.09.02-.04.02-.11,0-.1.06-.08.15-.18.02-.02.02-.02.06-.12.04-.09.11-.11.17-.21.06-.11.11-.09.2-.21.09-.12.17-.19.18-.28.01-.07.13-.1.13-.25,0-.11.11-.22.1-.3,0-.04,0,.02.04-.11.02-.07.01-.07,0-.06,0,0,0,0,0-.01.02-.06-.01-.11.01-.1.03,0-.03-.02-.01-.11.01-.05-.04-.04-.07-.03-.01,0-.11.09-.15.08-.03,0-.04,0-.04,0,0,0-.02.01-.05,0-.04,0-.05,0-.07.02-.02.01-.04.02-.09.02-.07,0-.07.01-.13.04-.06.03-.16-.1-.19-.13h0s-.01,0-.06,0c-.04,0,0,0,.02-.02.02-.01.05,0,.07-.05.01-.06-.04-.08-.08-.14,0-.01,0-.02-.02-.01-.02,0,0-.03-.06-.08-.05-.05-.08-.14-.13-.15-.03,0-.02-.03-.07-.04-.05-.01-.04-.09-.06-.06,0,.02-.03.02-.06-.12-.03-.14-.05-.13-.12-.26-.02-.04-.04-.07-.04-.05,0,.01-.01,0-.02-.01,0-.01-.02-.02-.03-.02-.03.01-.03-.05-.05-.08,0-.02-.02-.16,0-.17.03-.02-.06-.1-.05-.15,0-.05-.02-.01-.09-.11-.04-.06.02,0-.04-.08-.06-.09.06-.02,0-.08-.05-.06-.09-.06-.1-.14-.02-.07-.06-.07-.14-.23-.04-.08.05-.01-.02-.08-.06-.07,0-.01-.04-.07-.04-.06-.05-.08-.08-.12-.04-.05.02-.04-.04-.11-.04-.05,0-.05-.03-.13.02.04.03.09.06.12.03.03.02.06.06.1.04.04.04.09.08.13.04.04.04.07.07.01.03-.05-.01-.04,0-.1.02-.06,0-.07.01-.13.04,0,.1.07.1.07,0,0-.06-.08-.1-.07,0,.02.03.02.01.06-.02.04.02.03,0,.09-.02.05.03,0,.04.06.02.07.08.09.07.11-.02.02.03.05.12.22.07.12-.01.02.05.14.02.04.07.02.1.07.02.04.04.04.04.06,0,.07.06.17.09.25.04.08-.04.02,0,.07.02.03-.02.03.07.11.16.13.11.17.18.25.07.07.07.08.11.17.05.08,0,.06.04.09.03.02-.02.02.01.04.03.21.05.17.05.19,0,.08.05.12.03.16-.02.03.01.06.03.09,0,.02.14.04.15,0,0-.02.01-.02.02-.02,0,0,.02,0,.04-.02.05-.05.14,0,.18-.07.03-.05.13,0,.17-.09.03-.06.2-.08.21-.11.02-.03.13-.04.1-.06-.06-.05.04-.09.08-.11.04-.02.03,0,.07-.03.03-.03.08,0,.13-.05.05-.05,0-.05.02-.07.02-.02.13,0,.11-.07-.01-.04.02-.11.09-.09.06.02.04,0,.01-.06-.03-.08.02-.19.04-.16.03.04.06-.16.08-.17.02,0,0-.04,0-.04M19.34,19s-.01,0-.01-.02c0-.02,0-.05-.05,0-.04.03-.02.03-.02.06,0,.02-.04.06-.06.11,0,.03-.01.02-.02,0,0,0-.01-.02-.03,0-.03.03.02.07,0,.08-.03,0,.01,0-.05.08-.03.05-.04.03-.04.02,0,0,0-.02,0,0-.02.03-.05.03-.05.09,0,.03-.03.02-.06.02-.03,0-.07-.01-.09.03,0,.02-.02.02-.03.02-.01,0-.03,0-.04.05-.02.08-.06.07-.06.18,0,.11-.02.11,0,.19.01.08-.02.06-.04.15-.02.09-.06.02-.11.17-.05.15.04.14.02.27-.02.14.15.19.23.12.02-.02.1-.03.18-.19.06-.13.07-.2.09-.27.02-.07.04-.16.12-.31.08-.14.03-.2.12-.32.02-.03-.04-.08,0-.14h.03s.02.02.03,0c.02-.02-.03-.4-.04-.39M14.02,10.42h.01s0,.01,0,.01h0s0,.01,0,.01c.03,0,.01,0,0,0-.02,0,0,.02-.01.03,0,.02-.01,0,0,.02,0,0,0,.02-.01.04,0,.02,0,.02,0,0,0-.02.02-.03.02-.04h0s.03-.01.04-.03c-.01.02.02.02.02.02,0,0-.02,0-.03.01,0,.02.03.03.02.03-.01,0-.01.01-.02.03-.01.01,0,.02,0,.02h-.01s.02.03.02.03v-.02s.01,0,.02.01h.01s0-.02.02,0h.01s.01,0,.01,0h0s0,0,0,0h.03s-.02,0-.03.02c-.01.01-.01.02,0,.05.02.03,0,.01.01,0h0s.02,0,.02,0c.02,0,0,0,0,.03-.01.02.01.01.01.01,0,0-.02,0-.02.02,0,0,.02.02.03.01,0,.01-.01,0-.02,0h-.01s0,0,0,0c0,0,0,0-.02,0h-.03s-.03.01-.03,0c0,0,0-.03-.03-.01-.03.02.04.01.02.02-.02,0,0,.02-.02.02-.02,0-.03.02-.02.02h0s0,0,0,0c0-.01.01,0,.03,0-.02.01,0,.01,0,.01h0s0,.02,0,.02c0,.02-.03.03-.05.03-.02,0-.03.01-.05.01-.02,0,0,.01,0,.03h.01s.01,0,.01,0c0,0,.02,0,.03,0h0s.01,0,.01,0h0s0,.02.01.02c.01,0,.02,0,.02,0,0,0,.01.02.04.02.02,0,.01-.01.03-.01.02,0,.01,0,.04-.02-.02,0-.01.03-.02.02l-.02.02s-.03,0-.04,0c-.01,0,0-.01-.05,0-.01,0,0,.02-.02.02-.02,0,0,.01-.01.02-.02,0-.02.01-.04.03-.01.01-.02.02-.04.02-.02,0,0,.02,0,0h.02s.01.01.01.01c.01,0,0-.02.01-.02.02,0,.02-.02.02-.01h.02s.01,0,.01,0h.02s.02.02.02.02v-.03s.03,0,.05,0c.01,0,.03,0,.04,0h.01s.02,0,.02,0c.02,0,.03,0,.02-.01-.01,0,.02,0,.03,0,.01,0,.02,0,.01-.02,0-.01,0,0,.01,0h.02s0,0,0,0c0,0,0,0,.02,0,.01,0,.03,0,.05,0,.02,0,.03,0,.04,0h.02s.01-.01.04-.02c.02,0,0-.02.01-.03,0,0,0,0-.02,0h-.03s-.04,0-.04,0h.01s.02,0,.03-.01c.01-.01-.02-.01,0-.02h0s0,0,.02,0c.01,0,0-.02,0-.02,0,0,.01,0,.03-.01.02-.01,0,0,.01-.03.02-.03-.03-.06-.05-.06-.02,0-.04,0-.05.01,0,.02-.01.02-.03,0-.01-.01-.01,0,0-.02.02-.01.02-.04,0-.04-.02,0-.02-.01-.04-.03.02,0,.03.02.04.02,0,0,0-.02-.02-.04-.02-.02.03,0,0-.02-.01,0-.02-.04-.06-.04-.01,0-.02,0-.02-.02,0-.03-.01-.02-.02-.06,0-.03-.01-.02-.03-.04h0s0-.01-.02-.02c-.03-.02,0,0-.05,0-.02,0-.03,0-.04,0h0s.03,0,.04,0h.01s.01,0,.01,0c.01,0,0,0,0-.01,0-.01-.04,0-.04,0,0,0,0,0,.03,0,.02,0,.02-.01.04-.03.01-.02.02-.02.02-.04,0-.02.02-.02.02-.03,0-.02-.01-.02-.02-.02h-.02s-.02,0-.02,0c0,0,0,0-.02,0-.02,0-.04,0-.05,0-.01,0-.02,0-.02,0,0,0,0,0,0,0,.01,0,0,0,.01,0h-.02s.02-.02.02-.02c0,0,.03-.02.05-.03.02,0,0-.01,0-.03h-.02s-.03,0-.04,0c-.01,0-.03,0-.03,0h0s0,0,0,0c0,0,0-.02-.02-.01-.03.01,0,.02,0,.02h0s-.01.01-.01.01c-.01,0,0,.02,0,.02-.01,0,.02.03.02.03h-.02s-.01,0-.03,0c-.02,0,.02.02,0,.02-.01,0,.02.02,0,.02-.02,0,.04.02.01.02s0,0-.01,0c0,0-.01.01-.03.02-.01,0,0,0,.01,0,.01,0,.03,0,.02,0M13.65,10.84s.04,0,.04,0h-.02s-.02.01-.04.02c-.02,0,0,.01,0,.01h0s.02,0,.02,0c.01,0,.04,0,.04,0,0,0-.02.01-.04.02-.02,0,0,.01.01,0h.02s.02,0,.02,0h-.01s-.01.01-.01.01h0s0,.01,0,.01c.01,0,.03,0,.04,0h.02s.02,0,.02,0h.01s.01,0,.01,0c.02,0,.01-.02.03-.01h.01s.01-.01.01-.01h.01s0-.01,0-.01c.01,0,0,0,.02,0,.02,0,.02,0,.03,0v-.03s0,.03,0,.03h0s.02,0,.02,0h.02s0,0,0,0c.01,0,0-.02,0-.02,0,0,0,0,.02-.02.01,0,0-.01,0-.02v-.02s0-.02,0-.02c0,0-.02-.02,0-.02.01,0,0-.01,0-.01v-.02s-.02-.01-.02-.01c0,0,0-.02,0-.01h0s0,0,0,0h.02s.01-.02.01-.02h.02s0-.04,0-.04h-.02s-.01,0-.01,0h.01s0-.02,0-.02h-.01s0-.02,0-.02h0s-.01-.02-.01-.02h-.02s-.02,0-.03,0h-.02s0,0,.02,0c.01,0,0,0,0-.01-.01,0-.01,0-.02,0,0,0,0,.01,0,.03v-.03s-.01,0-.01,0h-.01s-.01,0-.01,0h-.01s0,.01-.01.02c-.01,0,0,.01,0,.02-.01,0,0,0-.02,0-.02,0,0,0,0,.01,0,0,.02,0,.03,0,.02,0,0,0,0,0,0,0,0,0-.02.01-.01,0,.01.02,0,.02-.01,0,0,0-.02-.01h0s-.01,0-.01,0h-.04s-.01,0-.01,0h0s0,.03,0,.03c-.01,0-.02,0-.03,0h.01s.01.01.02.01c.01,0,.01,0,0,0s-.01.01,0,.02h0s-.01,0-.01,0c-.01,0,0,0,0,.01-.01,0,0,0,.01,0h0s.01.01.01.01h0s.02.01.04.01c.02,0,.02.01,0,.01-.02,0-.02,0-.03.01h0s-.02.03-.02.03c0,0,0,0-.01,0-.02,0-.02,0,0,0s.02,0,.03,0c.01,0,.02,0,.03-.01h0s0,0,0,0h.01s-.02,0-.03,0c-.01,0-.03,0-.04,0-.02,0,0,0-.02.01-.02,0,0,0,0,.01h0s-.02,0-.02,0h-.01s-.01,0-.01,0c-.01,0-.03.02-.01.02h.02M13.93,10.66v-.02s0,.02,0,.02M15.88,12.42h0s-.01,0-.01,0h-.01s-.01.01-.02,0c-.01,0-.02,0-.03,0h-.02s-.02,0-.02,0h-.02s-.02,0-.03,0h-.02s-.02,0-.03,0c-.01,0-.02,0-.04.02-.02.02,0,.03.03.04.02,0,.03.02.05.03.02,0,.02.04.05.03.03,0,.05.01.05.03h.02s.02,0,.03.01c0,0,0-.01.02-.03.01-.02-.01-.03,0-.04.01-.01,0-.02,0-.03.02-.02.02-.02.02-.06M15.21,10.36s0,0-.03.01c-.02,0-.02.02-.04.03h-.02s0,0,0,0h0s-.01,0-.01,0l-.02.02s0,0,.01.02c.01.01,0-.01.02-.03h.02s.01,0,.01,0c.01,0,0-.01.02,0,.01,0,.02,0,.03.03,0,.02,0,0,0-.01,0,0,.02-.02,0-.03,0-.01,0-.02,0-.02M15.25,10.58s-.01,0-.03,0h-.03s0,.02,0,.02h.02s.04.03.05.01c.01-.01,0,0,0-.03h-.01s0,0,0,0M15.28,10.56s0,.03.01.04c0,0,.02,0,.03,0h.02s-.03,0-.01.01c.02,0,.05.02.05,0,0-.01-.01-.02,0-.03.02-.01-.02-.03,0-.03.02,0,.01-.02,0-.03,0-.02.01-.02,0-.02-.02,0-.02,0-.03.01h0s.02,0,.01.02c0,.01,0,0,0,0,0,0,0-.01,0,0,0,.02,0,0-.02-.01,0,0-.03,0-.02,0,.01,0,0,.01,0,.01-.02,0-.05,0-.04.02M15.21,12.15s.02.03,0,.05c-.01.01.02.02,0,.03-.01,0,0,.03,0,.07,0,.02.03.03.03.03h0s.02,0,.02,0c.02,0,0-.03,0-.04h.01s.02.02.02.02c.01,0,0-.03,0-.05v-.03s0-.03,0-.04c0-.01.02-.01,0-.04v-.04s-.02-.02-.02-.03c0-.01-.01,0-.02,0-.02,0-.01.02-.02.02-.01,0-.02,0-.03,0h0s0,.02,0,.02l.02.02M15.2,11.94s0,.03,0,.03c.01,0,0,.04,0,.04v.02s0,.02.03.01h.02s0,.02,0,.02c0-.03,0-.03.01-.05,0-.02,0-.05,0-.07,0-.02,0-.03,0-.04,0-.03,0-.03-.01-.01h-.02s-.01,0-.01.02c0,.01-.03,0-.02.01.01,0-.02.02,0,.02"/>
    </g>
    <circle class="cls-3" cx="28.58" cy="61.98" r="16"/>
  </g>
  <g>
    <line class="cls-10" x1="35.51" y1="55.04" x2="22.3" y2="68.25"/>
    <line class="cls-9" x1="21.59" y1="55.04" x2="35.39" y2="68.84"/>
  </g>
</svg>