<?xml version="1.0" encoding="UTF-8"?>
<svg id="_Слой_1" data-name="Слой 1" xmlns="http://www.w3.org/2000/svg" xmlns:xlink="http://www.w3.org/1999/xlink" viewBox="0 0 506.06 140.99">
  <defs>
    <style>
      .cls-1 {
        fill: url(#_Безымянный_градиент_119);
      }

      .cls-1, .cls-2, .cls-3, .cls-4, .cls-5 {
        stroke-width: 0px;
      }

      .cls-2 {
        fill: url(#_Безымянный_градиент_221);
      }

      .cls-2, .cls-5 {
        fill-rule: evenodd;
      }

      .cls-6, .cls-7, .cls-8 {
        fill: none;
        stroke: #fff;
      }

      .cls-6, .cls-7, .cls-8, .cls-9, .cls-10 {
        stroke-miterlimit: 10;
      }

      .cls-6, .cls-9 {
        stroke-width: .75px;
      }

      .cls-11 {
        letter-spacing: 0em;
      }

      .cls-7 {
        stroke-width: 3px;
      }

      .cls-12 {
        font-size: 12px;
      }

      .cls-12, .cls-13 {
        font-family: Tahoma, Tahoma;
      }

      .cls-8 {
        stroke-width: 2px;
      }

      .cls-3 {
        fill: url(#_Безымянный_градиент_5);
        filter: url(#drop-shadow-2);
      }

      .cls-4, .cls-14 {
        fill: #fff;
      }

      .cls-9 {
        fill: url(#_Безымянный_градиент_138);
        stroke: #16478e;
      }

      .cls-13 {
        font-size: 14.06px;
        letter-spacing: .01em;
      }

      .cls-15 {
        letter-spacing: 0em;
      }

      .cls-5 {
        fill: url(#_Безымянный_градиент_240);
      }

      .cls-10 {
        fill: url(#_Безымянный_градиент_7);
        stroke: #b42d08;
      }

      .cls-14 {
        filter: url(#drop-shadow-1);
        font-family: Tahoma-Bold, Tahoma;
        font-size: 15.82px;
        font-weight: 700;
        letter-spacing: 0em;
      }

      .cls-16 {
        letter-spacing: 0em;
      }
    </style>
    <linearGradient id="_Безымянный_градиент_119" data-name="Безымянный градиент 119" x1="409.61" y1="234.13" x2="96.4" y2="-90.21" gradientUnits="userSpaceOnUse">
      <stop offset="0" stop-color="#001b9b"/>
      <stop offset=".22" stop-color="#0033be"/>
      <stop offset=".52" stop-color="#0058f3"/>
      <stop offset=".71" stop-color="#025af3"/>
      <stop offset=".81" stop-color="#0961f4"/>
      <stop offset=".88" stop-color="#176ff7"/>
      <stop offset=".95" stop-color="#2981fa"/>
      <stop offset="1" stop-color="#3f97ff"/>
    </linearGradient>
    <filter id="drop-shadow-1" filterUnits="userSpaceOnUse">
      <feOffset dx="1" dy="1"/>
      <feGaussianBlur result="blur" stdDeviation="0"/>
      <feFlood flood-color="#000" flood-opacity=".75"/>
      <feComposite in2="blur" operator="in"/>
      <feComposite in="SourceGraphic"/>
    </filter>
    <linearGradient id="_Безымянный_градиент_138" data-name="Безымянный градиент 138" x1="238.5" y1="124.45" x2="238.5" y2="97.05" gradientUnits="userSpaceOnUse">
      <stop offset="0" stop-color="#6982ee"/>
      <stop offset=".03" stop-color="#6f88ee"/>
      <stop offset=".14" stop-color="#87a0ef"/>
      <stop offset=".27" stop-color="#9ab3f0"/>
      <stop offset=".42" stop-color="#a7c1f1"/>
      <stop offset=".62" stop-color="#aec8f1"/>
      <stop offset="1" stop-color="#b1cbf2"/>
    </linearGradient>
    <linearGradient id="_Безымянный_градиент_7" data-name="Безымянный градиент 7" x1="488.72" y1="30.78" x2="488.72" y2="6.28" gradientUnits="userSpaceOnUse">
      <stop offset="0" stop-color="#c83004"/>
      <stop offset="1" stop-color="#e97b62"/>
    </linearGradient>
    <linearGradient id="_Безымянный_градиент_5" data-name="Безымянный градиент 5" x1="26.06" y1="47.99" x2="26.06" y2="79.99" gradientUnits="userSpaceOnUse">
      <stop offset="0" stop-color="#f92126"/>
      <stop offset="1" stop-color="#900103"/>
    </linearGradient>
    <filter id="drop-shadow-2" filterUnits="userSpaceOnUse">
      <feOffset dx="1" dy="1"/>
      <feGaussianBlur result="blur-2" stdDeviation="1"/>
      <feFlood flood-color="#000" flood-opacity=".75"/>
      <feComposite in2="blur-2" operator="in"/>
      <feComposite in="SourceGraphic"/>
    </filter>
    <radialGradient id="_Безымянный_градиент_240" data-name="Безымянный градиент 240" cx="-4210.26" cy="-1909.72" fx="-4210.26" fy="-1909.72" r=".12" gradientTransform="translate(-311087.55 132919.32) rotate(-178.82) scale(73.23 -72.92)" gradientUnits="userSpaceOnUse">
      <stop offset="0" stop-color="#b4e0f9"/>
      <stop offset="0" stop-color="#b4e0f9"/>
      <stop offset=".33" stop-color="#2c89fc"/>
      <stop offset=".49" stop-color="#2c76f1"/>
      <stop offset=".78" stop-color="#2f4cd9"/>
      <stop offset=".89" stop-color="#2e51dd"/>
      <stop offset=".99" stop-color="#2e5de8"/>
    </radialGradient>
    <radialGradient id="_Безымянный_градиент_221" data-name="Безымянный градиент 221" cx="-4214.55" cy="-1941.37" fx="-4214.55" fy="-1941.37" r=".26" gradientTransform="translate(230859.47 -106325.44) scale(54.77 -54.77)" gradientUnits="userSpaceOnUse">
      <stop offset="0" stop-color="#b5d8bc"/>
      <stop offset=".21" stop-color="#8db894"/>
      <stop offset=".45" stop-color="#65976c"/>
      <stop offset=".67" stop-color="#47804f"/>
      <stop offset=".86" stop-color="#36723e"/>
      <stop offset="1" stop-color="#306d38"/>
    </radialGradient>
  </defs>
  <g>
    <g>
      <g>
        <g>
          <path class="cls-1" d="M5,0h496.05c2.76,0,5,2.24,5,5v135.99H0V5C0,2.24,2.24,0,5,0Z"/>
          <rect class="cls-4" x="3.13" y="35.81" width="499.93" height="101.7"/>
        </g>
        <text class="cls-14" transform="translate(25.58 25.04) scale(.82 1)"><tspan x="0" y="0">Контроль целостности</tspan></text>
      </g>
      <g>
        <rect class="cls-9" x="200.02" y="97.05" width="76.95" height="27.4" rx="1.66" ry="1.66"/>
        <rect class="cls-4" x="203.46" y="100.37" width="70.08" height="20.76"/>
        <text class="cls-13" transform="translate(219.03 116.13) scale(.82 1)"><tspan x="0" y="0">Закрыть</tspan></text>
      </g>
      <text id="_Пароль_успешно_изменен_и_сохранен" data-name="Пароль успешно изменен и сохранен" class="cls-12" transform="translate(52.81 54.11) scale(.82 1)"><tspan class="cls-11"><tspan x="0" y="0">Контрольные суммы следующих файлов не соответствуют ожидаемым значениям: </tspan></tspan><tspan class="cls-11" x="0" y="14.4">T</tspan><tspan class="cls-16" x="7.13" y="14.4">R</tspan><tspan class="cls-11" x="14.48" y="14.4">ec2.0.e</tspan><tspan class="cls-15" x="53.86" y="14.4">x</tspan><tspan class="cls-11" x="59.77" y="14.4">e</tspan><tspan class="cls-11"><tspan x="0" y="28.8">Восстановите программу с эталонного носителя</tspan></tspan></text>
      <g>
        <g>
          <rect class="cls-10" x="476.96" y="6.28" width="23.52" height="24.5" rx="1.66" ry="1.66"/>
          <rect class="cls-6" x="476.06" y="5.34" width="25.32" height="26.37" rx="1.66" ry="1.66"/>
        </g>
        <line class="cls-8" x1="494.6" y1="12.4" x2="482.84" y2="24.65"/>
        <line class="cls-8" x1="494.6" y1="24.65" x2="482.84" y2="12.4"/>
      </g>
      <circle class="cls-3" cx="26.06" cy="63.99" r="16"/>
    </g>
    <g>
      <path class="cls-5" d="M11.56,24.11c-4.18,0-7.57-3.42-7.56-7.61,0-4.2,3.4-7.6,7.58-7.59,4.18,0,7.57,3.42,7.56,7.61,0,4.2-3.4,7.6-7.58,7.59"/>
      <path class="cls-2" d="M10.49,18.72c0,.07.02.2-.04.26-.05.06-.06.11-.14.18-.09.08-.08.24-.16.3-.01,0-.03,0-.04,0-.02-.01-.04-.03,0,.04.02.05-.02.11.02.22.04.08-.02.11,0,.22.02.12-.06.07-.02.17.04.1-.07.05-.04.16.03.13-.11.1-.09.22.01.09-.03.06-.07.1-.05.06-.07.05-.09.05h-.02s-.05,0-.07,0c-.03,0-.05-.01-.07.01-.03.04-.07.04-.19.16-.11.11-.04.18-.04.21-.01.09.06.14,0,.18-.05.04.05.04-.07.12-.12.07-.03.1-.07.17-.04.06.02.14-.07.2-.1.06.04.06-.12.17-.05.08-.17.1-.22.06-.02-.02-.04-.02-.05-.01-.01,0-.03,0-.04,0-.03-.03-.14.02-.15-.14-.03.11.06.1.01.12-.05.02.2.05.19.14,0,.08.03.08.06.08h.02c.03.09,0,.07-.01.12-.04.12-.09.09-.15.12-.1.05-.16.04-.19.03-.01,0-.02,0-.02,0-.02,0-.02,0-.02,0,0,0,0-.01-.02,0,0,0-.03.04,0,.05.03,0,0,.03.03.04.03,0,.01.04,0,.04-.02,0-.01.06.01.08.03.01-.08.08-.13.05-.06-.03-.08,0-.07-.03.02-.02-.08,0-.03.03.1.06-.01.12.09.12,0,0,0,.02.04,0,.04-.02-.04-.02.01-.03.06,0,.03.02.04.04.01.02-.02.03-.03.01,0-.02-.08,0-.08,0,0,0,.06.01.07.02,0,0-.04,0-.03.04.01.04-.02.02,0,.07.03.05-.04.03-.01.07.02.04-.05.02-.06.04-.01.02-.04,0-.05.06-.01.07.03.06.06.09.03.04.05.04.07.03.02,0,.03,0,.05.03.02.03,0,.1-.01.1-.13-.07-.27-.12-.4-.2-.14-.08-.23-.13-.37-.22,0,0-.06-.04.02-.15.03-.05,0-.03-.02-.06-.02-.02-.01-.04-.04-.06-.01-.01-.02,0-.03,0h-.02s-.02,0-.02,0h0c-.04-.05.01-.06-.04-.13-.06-.06.07-.02-.01-.13-.04-.05-.02-.09-.04-.1-.02-.01.03,0-.03-.05-.04-.03-.05-.05-.04-.08,0-.03.01-.02.01,0,0,.02.05.04.03-.01-.03-.05.02-.04,0-.06-.03-.05.02-.02,0-.07-.03-.05.04,0,.02-.08-.02-.08.02-.07,0-.13-.03-.06,0-.06-.05-.15-.05-.09-.08-.21-.09-.24,0-.02,0-.01.01,0h.02s-.01,0,0-.03h.02s.01,0,.01,0c0-.03-.03,0-.03-.04,0-.05-.05.02-.03-.14,0-.09,0-.15,0-.21,0-.11.02-.1,0-.13-.04-.04,0-.02-.02-.08-.03-.06,0-.05-.04-.11-.03-.04.02.01.02-.1,0-.05-.01-.05-.02-.05,0,0,0,0,0-.03.02-.07,0-.04-.03-.1-.02-.04,0-.03,0-.03,0,0,.01,0,0-.02-.02-.05,0-.1-.03-.13-.04-.05,0-.02-.03-.07-.03-.05-.02-.05-.03-.07-.05-.04-.07-.05-.09-.08-.03-.07-.21-.13-.23-.15-.07-.05-.12-.03-.16-.09-.04-.05-.08-.05-.12-.1-.04-.05-.08-.06-.1-.1-.01-.02,0-.02.01,0h.02s-.08-.1-.06-.14c.02-.04-.02-.01-.03-.08,0-.06-.05-.05-.07-.13-.02-.09-.08-.16-.11-.26-.03-.1-.05-.05-.06-.09-.01-.04-.05-.05-.07-.09-.02-.04-.02-.02-.11-.11-.05-.05-.03-.09-.03-.1-.03-.03.02-.02-.03-.08-.07-.07,0-.03,0-.05-.02-.04.02-.04,0-.05-.02-.01.05-.07.06-.07.03,0,.02-.02.07-.08.03-.04,0-.03,0-.05,0-.02-.03,0-.03,0,0,.04-.01.05-.02.02-.01-.03-.04,0-.01-.03.02-.02-.02-.01-.01-.02.01-.02-.03-.03,0-.04.02-.02-.02-.03.02-.03-.03,0,0-.02-.02-.03-.03,0,0-.05.03-.12.04-.07,0-.03.02-.08.01-.03,0-.03,0-.03,0,0-.01,0,0-.01,0-.03.03,0,.05-.03.02-.02.05-.01.06-.04,0-.01,0-.01,0,0,0,0-.02,0,0-.03.02-.03.04-.03.05-.03h.02s-.04-.04-.02-.07c.03-.05.1-.02.1-.06,0-.02.05-.08.08-.1-.03-.02.02-.03,0-.03-.02,0,0,.02-.04,0-.03-.01-.02-.04,0-.06.01-.02,0-.08,0-.13,0-.03-.01-.03-.02-.03h0s.05-.02.03-.06c-.02-.04-.02-.04-.02-.04h0c0-.06-.02-.04-.02-.05,0-.02-.01-.02-.02-.02h0s-.01-.02-.01-.04c0-.02-.02,0-.01-.03,0-.02-.02-.04,0-.07.01-.01.02-.02.03-.01.02,0,0,0,0-.04,0,.03-.02.03-.05.05,0-.02.01-.04-.02-.04-.02,0-.02,0-.02-.02,0,0-.01-.02-.05-.02-.04,0-.06,0-.05.02.01,0-.02.01-.06.06-.02.03.01.02,0,.04,0,.02.03.01.01.04-.02.03-.06.03-.07,0,0-.02-.02-.04,0-.05-.03,0,0,.03-.03.03-.02,0,0-.02-.03-.03-.03-.02-.01-.04-.06-.04-.04,0-.02-.03-.03,0h-.02s-.01,0-.01,0c0,.02,0,.01-.01.01,0,0,0-.02-.02-.03-.03,0,.02-.02,0-.03-.02-.01-.04,0-.02,0,.02.01,0,.02-.02,0-.02,0-.02-.01,0-.03,0,0-.02-.02,0-.03-.04-.03-.06-.05-.1-.07-.04-.02.02-.01-.02-.04-.05-.02-.03,0-.01,0,.01,0,.01.04-.02.01-.04-.02-.05-.03-.03-.05,0,0-.01-.03,0-.04,0-.01-.04-.02-.02-.02.02,0,.04,0,.02-.02-.04-.03.01-.03-.05-.07-.06-.04-.05-.12-.09-.16-.04-.04.01-.04.02-.03h0s0-.06-.04-.04c-.12.05-.11,0-.17-.01-.06,0-.03-.01-.08-.02-.09-.02-.1,0-.17-.11-.01-.02,0-.03-.08-.1-.08-.07-.1-.04-.12-.06.03,0,.03-.03,0-.02-.01,0-.02,0-.02,0h-.02s.05.02,0,.02c-.05,0-.02.02-.08.02-.05,0-.05.05-.12,0-.02.02-.07,0-.09-.02-.02-.02-.04,0-.07-.05-.02-.02-.07-.01-.09-.02.01-.16.03-.32.05-.48.03-.16.05-.31.09-.47.05-.2.08-.35.12-.47.05-.15.09-.31.15-.46.06-.15.11-.31.18-.46.07-.15.13-.29.21-.43.08-.14.15-.29.24-.43.09-.14.17-.28.26-.41.09-.13.19-.27.3-.4.1-.13.22-.27.33-.39.11-.12.27-.26.38-.38.12-.12.19-.17.31-.29l.05-.04c.07,0,.17,0,.21.02.03.02.03.01.04,0,0,0,.02,0,.04,0,.02,0,.03,0,.04-.01,0-.01,0-.02.02,0,.03.04.05.04.05.02,0-.03-.03,0-.05-.05.03,0,.04,0,.05,0,0,0,0-.01.02,0,.03.03.07,0,.03.03-.04.03.01.02-.05.06.08-.02.03-.03.08-.06.02-.01.03,0,.05,0,.01,0,.03,0,.06,0,.07,0,.11-.02.09-.03-.01,0-.01,0-.02,0,0,0-.01.01-.02,0-.03-.01.04-.04.07-.04.01,0,.08-.03.07-.03,0,0-.03,0-.05.01-.03,0-.06.02-.07,0-.01,0-.02,0-.02,0,0,0-.02,0-.05-.02-.05-.05.1-.04.08-.07-.01-.02.03-.03.06-.05.02-.01.02,0,.03,0,0,0,0,0,.03,0,.04-.02-.07,0,.04-.04.05-.01.1.01.09.03-.03.04.05.05.02.07-.03.01-.03,0-.03,0,0,0,0,0-.02,0-.04.01.05.02-.03.06.04,0,.09,0,.03.05.03,0,.07,0,.1-.03.03-.03.1.02.05.04-.05.03,0,.04-.02.08.1-.08.16-.07.19-.09.03-.03.04-.03.07-.04-.06-.01.03-.07.08-.05.05.02.09,0,.12.02.03.01.08.04.05.04-.03,0,0,.03-.06.02-.04,0-.01.02-.02.03-.04.04.04.03-.03.08-.05.03-.06.02-.08.02-.01,0-.03,0-.05,0-.03.01-.04.01-.05.01-.01,0-.02,0-.04,0-.03.02-.05-.03-.08-.03-.01,0-.03,0-.02,0h.02s.02,0,.03.02c.02.03.02.03,0,.02,0,0-.02,0-.04,0-.03,0-.04,0-.04-.01,0-.01-.01-.03-.08,0-.07.03.12.02-.06.06-.11.03-.07.04-.15.03-.07,0,0-.06-.12-.05.08.01.04.04.1.06.02,0,.04,0,.06,0,.02,0,.03,0,0,.02-.06.03-.1.06-.14.06-.01,0-.03,0-.04,0-.02,0-.04,0-.06-.01,0,.04-.02.02-.06.03-.02,0-.03,0-.05,0-.03,0-.07-.01-.16,0,.07,0,.08,0,.04.02.08-.03.1-.01.11,0,0,.02.01.04-.08.03-.13-.01,0,.02-.05.03-.1.02-.07.04-.11.04-.04,0-.11.06-.14.06-.05,0,.03,0-.1.05-.05.02.02.02-.04.03-.06,0,.02,0-.04.04-.06.03-.02.06-.09.1.03,0,.03,0,.03.03.02-.03.03-.01.06-.02.03,0,.04.03.03.05,0,.01.01.05,0,.06-.03.02-.04.02-.05.02,0,0-.02,0-.04.02.02-.01.02,0,.03,0,0,0,.01,0,.03,0,.04,0,.14-.06.15-.02.01.04.13.02.14.06,0,.02,0,.02.02.02,0,0,.02,0,.03,0,.05.03.09,0,.07.04,0,.01.03.01.07.01.03,0,.07,0,.07,0,0,0,.03,0,.04,0,.02,0,.03,0,0,.02-.05.04,0,.02-.02.05-.01.02-.02.01-.02.01h-.02s-.02,0-.06,0c.02.04.08,0,.08.05,0,.04,0,.03-.05.04.1.01.03.09.06.1.03.01-.02.01-.04.04.01,0,.03-.01.06-.03.02-.01.02,0,.02.03,0,.02,0,.03,0,.03h.02s.02.01.01,0c-.01-.02.03-.01.07-.03.03-.02,0,.03.05.06-.04-.03,0-.04.02-.04-.03-.01-.03-.01-.03-.04,0-.03.1,0,.1-.08,0-.04.01-.04.01-.05,0-.08,0-.08,0-.08h0s-.04-.02-.02-.04c.01-.02.21,0,.35-.15.17-.17-.03-.18.01-.21.02-.02-.04-.03.07-.06.07-.02,0-.01.05-.03.06-.02-.03-.02.04-.06.09-.05-.04,0,.04-.07.05-.03.02-.09.07-.12.05-.03.13,0,.18.02.05.02.07,0,.09,0,.03-.02.05-.03.12.03-.01.06.02.04.04.06.02.02.03.01.03,0,0,0,.01,0,.02,0,.02.01-.02.02,0,.04,0,0,.02,0,.03,0h.03s.02.02-.04.03c-.09.02.06.04-.07.06,0,0,.04,0,.04.01,0,.04-.1.04-.09.08.08-.04.12-.02.08.02-.04.04-.07.04-.06,0-.02.02-.01.03-.05.04.02,0,.05,0,.04.03.06-.06.15-.09.13-.05,0,.02,0,.02.01.02h.02s.07-.04.1-.07c.02-.02.02,0,.02,0,0,.01,0,.02,0,.02.01,0,0-.04.05-.05.06-.02,0-.05.04-.06.05-.02.06-.08.08-.05.02.03.04.02.04.04,0,.02.02.02.01.04,0,.02.03.02.02.05-.01.03.05.03.02.07.06.02.03.07-.05.08.02,0,.04,0,.09,0,.05-.01-.04.04,0,.06.04.02-.02.1.03.07.03-.01.02,0,.02,0,0,0,0,.02.02.01.02,0,.03,0,.02,0,0,0,0,0,.01,0,.02,0,.02,0,.02.01,0,0,0,.01.02.01.03,0,.1.01.04.02-.07.01-.1.03-.17.03-.1,0,.01,0-.08.04.05,0,.13-.01.18-.03.05-.02.07-.03.1,0,.03.02-.02.02,0,.03.02.01.01,0,.05,0,.04,0,.05.04.02.05-.03.01.03.03,0,.04-.02,0,.07.03-.03.07-.05.02-.05.02-.06.02,0,0-.01,0-.07.02-.04.02-.07.01-.06.03h0s-.02,0-.04.02h0s0,0-.1.04c-.08.03-.09.02-.1.02-.01,0-.03-.01-.08,0-.05.01-.04,0-.06,0-.01,0-.04-.01-.16,0-.17.02-.22.02-.21.05,0,.03-.04.03-.1.04-.06.01-.05.05-.08.03-.01,0,0,.02-.05.03-.07.01-.17.12-.22.14-.05.01-.02.03-.09.07.03-.01.04,0,.11-.06.07-.05.33-.16.43-.17.1-.02.15,0,.14.03,0,.01,0,0,0,0h-.01s.02.01.01.02c-.03.02-.03,0-.09.03-.03.02-.04.02-.05.01,0,0-.02,0-.05.01.03,0,.03,0,.04,0h.02s.03,0,.03,0c0,.01,0,.04-.05.06.02,0,.05.04.06.1.06,0,.02.04.09.04.07,0,0,.05.06.01.04-.02.03-.01.03,0,0,0,0,.01.02,0,.03-.01.03,0,.03,0,0,0-.01.04-.05.05-.04,0-.07.06-.11.04-.02,0-.02,0-.02,0,0,0,0,.01-.04,0-.06-.01-.02.02-.08.02-.05,0,0,.03-.03.04-.04.01-.09.05-.1.04-.01-.01,0,.02-.02.02-.03-.01-.01-.03-.02-.04-.02-.02,0-.05.07-.1.05-.04.09-.04.11-.03h.01s.02,0,.09-.02c-.03,0-.06.01-.09,0-.01,0-.03,0-.05,0-.01,0-.03,0-.03,0-.01,0,.1-.04.04-.07.01.02.01.03-.06.06-.04.02-.06.02-.08.02-.01,0-.02,0-.03.01.02.02-.11.07-.11.07,0,0-.05-.03-.07.02-.01.03-.02.02-.02,0,0-.01,0-.02-.01-.01-.03.05-.03.05-.05.04,0,0-.01,0-.03,0-.03.03-.07,0-.11.05-.04.05-.03.02-.05.06-.03.03-.04.04-.02.07,0,.02.02.01.03.01.01,0,.02,0,0,.03-.01-.03-.08,0-.08,0,0,0-.04.05-.07.04-.04-.01,0,0-.07.01-.08,0-.08.05-.11.05-.02,0-.01.01-.02.02-.03.02.03,0-.01.04-.03.02-.03.02-.05.04-.02.02-.03,0-.05,0,0,.01,0,.02.03.03-.02.01-.02,0-.03,0,0,0,0,0-.02.01-.02.03-.02,0-.06.04-.02.02-.02.05-.03.01,0-.03-.03-.02-.04-.06,0,.02-.02.02.01.04.03.02,0,.02.02.04.03.02-.02.08-.04.1,0,0,0-.01.02-.03.01-.02.02-.04,0-.03-.03.03-.04.09-.08.1-.03.01-.02,0,0-.03.03-.03-.03-.04,0-.06.02-.02-.02-.02,0-.05.02-.03-.02,0,.02-.04.04-.03,0-.02-.04,0-.03.02-.02.07-.03.05.02.04,0,.03-.02.02.04.03.01.03.04.05h-.02s0,0-.03,0c0,.02.05.02.01.05.04-.02.02.04.03.08.01.03.01.08-.01.08h-.02s-.03,0-.04-.01c0,.02-.02.03.02.03.02,0,.02,0,.02,0,0,0,0,.01,0,0,.02-.02.03,0,0,.03-.02.02,0,.03-.06,0-.06-.02.01,0-.01.03-.02.02,0,.01,0,0h.01s0,.04-.06.05c-.05,0-.07.06-.08.05,0,0-.03.01-.05.03-.02.02-.04.04-.05.03-.04,0-.08.03-.09.04-.03.06-.03.02-.05.05-.05.04-.06.04-.07.03h0s-.04.02-.05,0c-.01,0-.02-.01,0,0,.02.03-.01.03,0,.04,0,.03-.01,0-.05.04-.12.14-.07.14-.09.16-.02.03,0,.11,0,.16,0,.03,0,.02,0,.02,0,0,0,0,0,.01,0,.04.02.11,0,.11,0,0,0-.02,0-.03,0-.03,0-.05,0-.02,0,.06.03.1.03.12.02.02,0,.08-.03.14-.03.06,0,.03-.02.05-.01.01-.02,0-.02,0h0s-.01.01-.02.01c0,0-.01,0-.02,0-.02.01-.04,0-.04,0,0,0,0-.02,0-.01.03.01,0-.01.02-.02.02,0-.02-.01-.03-.04,0-.02-.04,0-.04-.06,0-.03-.01-.03,0-.05.02-.02,0-.02-.02,0-.04-.1,0-.09-.01-.11-.01-.03.08-.12.04-.14-.04-.02-.01-.06-.05-.06-.03,0-.02-.06-.08-.02-.04.02-.05.02-.06.02h-.02s-.04,0-.02,0c.02-.01,0-.02-.1-.04-.09-.02.06-.02.04-.03-.02,0-.11,0-.09,0,.02.01-.07.02-.09,0,0,.01,0,0-.04.02-.04.01-.03-.03-.03-.03,0,0,0,0,0,.03,0,.02-.02.02-.04.01-.01,0-.02,0-.03,0-.03.01-.05,0-.06,0-.02,0-.02-.02-.03,0-.02.05.08,0,.05.05,0,.01.03.02.02.03-.01.01.05.02,0,.03-.04,0-.03,0-.04-.01h-.02s-.01.02-.03,0c-.02-.02-.08,0-.09-.02h0s0,0-.02-.01c-.02-.03-.01,0-.04,0-.03,0-.04,0-.06-.01-.03-.02-.06-.03-.12,0-.05.03-.09.07-.07.04.02-.02-.01-.02.02-.05-.07.03-.03.03-.04.05-.02.01.04.02-.03.04-.04,0-.06.05-.07.04h-.02s-.02,0-.02,0c-.01,0-.02,0-.02,0h0s0,.02,0,.02c0,.01,0,.03-.03,0,0,.02-.01.05-.04.06-.01,0-.03.04-.04.04-.03-.01,0,0-.02.01-.03,0,0,0-.02.04-.01.05-.04.04-.03.06.01.02,0,.02-.01.07,0,.02,0,.04-.04.1-.06.07-.03.21-.08.28-.05.07.03.11,0,.15-.03.04.02.12.05.17.02.05,0,.06.03.07.03,0-.02.06.04.06.03,0,.03.01.05.01.02,0,.04.04.09,0,.05-.03.08-.01.13-.04.05-.02.06,0,.09-.03.03-.02.05,0,.02,0-.03,0-.03.03.02,0,.06-.03-.03-.02.04-.05.03-.01,0-.07.05-.08.02,0,.01-.05.01-.11,0-.05.15-.07.16-.07.01,0,.03,0,.05,0,.02,0,.04,0,.07,0,.02,0,.04,0,.04,0,.01,0,.01-.01.03.01.01.02.02.02.02.02,0,0,0,0,.01.02.02.04-.03.05-.05.08-.02.03,0,.06-.04.06h-.01s.01.01.01.01c0,0,.03,0,0,.04-.04.04-.04.11-.06.12-.02.01,0,.06-.02.07.01-.06-.01-.04,0-.09-.01.02-.03.03-.03.04.06-.01-.01.07,0,.1,0,.04-.02.07-.05.1-.03.03-.05.02-.04.06,0,.01,0,.01,0,0,0,0,.01,0,.03,0,.03.03.02,0,.05,0,0,0,0-.03.04,0,.02.01.06,0,.1,0,.04,0,.08-.01.1,0,.01,0,.01,0,.01,0h0s.01,0,.01,0c0,0,.02,0,.06.01.06.02.02,0,0,.02-.01,0-.02,0-.01,0,0,0,.02,0,.04.01.03.02.02,0,.02,0,0,0,0-.02.02,0,.05.03.04.04.05.05.02,0-.05.03-.01.04.02,0,0,.08-.03.08.02,0,0,.02,0,.07-.01.04,0,.05,0,.07,0,.02-.03.04-.02.03.01,0,.01,0,0,.02,0,.02,0,.04,0,.03,0,0,0,0-.01.01v.02s.03.04,0,.05c-.03.01,0,.08,0,.1,0,0,.01,0,.01.03,0,.03.04.09.06.11.02.02.04.02.03.03-.02.01,0,0,0,.01,0,0-.03.02,0,.03.03.01,0-.01.01-.02,0,0,.03.02.04.04,0,.01.08.01.1,0,.03-.02.06,0,.08-.03.01-.01.03-.01.01.02v.02s0,0,.02-.01c.05,0,0,0,0-.02-.01-.01.01-.03.03-.04.01,0,.04,0,.05,0,.01,0,.01,0,.02,0,0,0,.01,0,.05.02.06.04,0,0,.03.03.02.03.02,0,.05.04.01.02.03,0,.07.07-.01-.02-.01-.02-.01-.02,0,0,0,0,.01-.01.01-.03-.03-.02-.02-.03,0-.01.03,0,.05-.05.02-.04.04-.04.05-.03h0s0-.03.01-.05c.02-.04,0-.07.01-.08.03-.02.03-.05.08-.06.08-.03-.01.02.04.03-.01,0,.03-.06.06-.06.04,0,.04-.01.13-.06.09-.05,0-.06.05-.06s.01-.02.06,0c.05.01.04.03,0,.06,0,0,.02,0-.03.03-.05.02.01.07.02.08.02.03,0,.03,0,.03,0,0-.02,0,0,.02.02.04-.05.04-.07.08-.01.04.05.04.05.06,0,.04.08,0,.08,0,0-.07-.02-.09-.02-.09,0,0-.03-.01-.01-.03.02-.02,0-.02.02-.06.03-.04.04-.04.09-.05.04-.01.02-.04.04-.03.01,0,.02,0,.02-.01,0,0,0-.02-.02,0-.03.01-.03,0-.02-.03,0-.03.05-.03.05.01,0,.04,0,.02.05.04.02,0,.03,0,.04,0,0,0,0,0,.02,0,.02.01.06.04.03.05-.03.01,0,.04.09.03.09-.01.17,0,.15.02-.02.02.02.04.12.03.1-.01.03-.04.1-.05-.08,0-.04-.02.01-.01.03,0,.04,0,.04,0,0,0,.02,0,.04,0,.03,0,.05,0,.06,0h.01s-.04.02-.09.02-.04.02-.01.01c.02,0,0,0,.05.07.01-.02.05,0,.06.02.01.02.07.03.06.08,0,.02.03,0,.02.02-.02.01.02,0,.02.02s.02.04-.05.03c.04.01.05.01.06,0,.01,0,.02-.01.05.03.04-.02.06,0,.12.06.07.05.07.05.03.12.02-.01.01-.03.06,0,.05.04,0,.05.05.06.04,0-.02.1-.02.1,0,0,.01-.01.04-.05.02-.02.04-.01.07,0,.02,0,.04.02.06,0,.02-.01.03,0,.04,0h.01s.03,0,.04,0h.02s.08,0,.08.03c0,0,.02-.02.04,0,.01.02.05.01.08.05.01.02.02.02.02.01,0,0,0,0,.02.01.02.04.03.01.03.04,0,.03.02.01.03.05,0,0,.01-.02.04.04.01.03.02.02.02.01,0,0,0-.02,0,.02.02.07.07.23.07.24.06.01.07.07.03.1-.04.03-.02.06-.07.09-.05.03-.04.07-.05.14,0,.03-.03.05-.05.07h-.02s0,.02.02,0c.03,0,.05.08.05.08,0,0,0-.04-.01-.07,0-.04.06-.03.08-.07.02-.05-.02-.03.02-.09.03-.04.04-.03.06-.03.01,0,.03,0,.05,0,.07,0,.15-.01.12.03-.03.04.02.03-.04.08-.06.05,0,.05-.03.07-.02.01-.03.01-.04.01-.01,0-.02,0-.05.01-.02.01-.03.01-.04,0,0,0-.02,0-.05,0,.02,0,.03,0,.04,0,.01,0,.02.02.06,0,.08-.05-.02.02.05.09-.02-.09.03-.12.05-.11.03,0,0-.08.09-.1.09-.02.09.03.22.09.13.06.1.07.07.09-.03.01.05.01.02.08.05-.05.04-.05.1,0,.08.05.2.08.21.07.07-.03.11,0,.19.06.08.06.15.08.2.13.02.02.05.02.09.02.04,0,.09,0,.11.04.02.06.07.13.06.2M12.22,10.63s.1-.01.07-.03c-.02-.01.08-.02.06-.03-.01,0,0,0-.02,0,0,0-.02,0-.03,0-.06,0-.12-.04-.14-.02-.02.02-.06.03-.08.03-.01,0,0,0,.01-.01.01,0,.02-.01-.02-.01-.07,0-.02-.02.02-.04.04-.02.1,0,.06-.03-.04-.02-.14-.02-.08-.03.06,0,.08,0,.11.02.04.01.09,0,.11.03.02.03.11.06.11.03,0-.03.04,0,.04-.04,0-.04-.02-.06-.03-.05h-.02s-.02-.02-.03-.01c-.03.02-.02.01-.05,0-.02,0-.02-.02-.05-.01-.01,0-.01,0-.01-.01,0,0,0-.02-.03-.01-.04,0-.05-.02,0-.03.05,0,.04-.02.1,0,.03,0,.05,0,.06,0,.01,0,.03,0,.05,0,.05.01.14,0,.11-.02-.01-.02,0,0,0,0,.01,0,.03.01.04,0,.03-.02.04,0,0-.03-.04-.03.07-.02.03-.05-.04-.03-.05-.04-.01-.05.02,0,.02,0,.03,0,0,0,.01.01.04,0,.06-.02.13-.04.07-.03-.02,0-.04,0-.05,0-.02,0-.03-.01-.05,0-.03.02-.02,0,.02-.03.02-.01.03,0,.04,0,0,0,.02.01.04,0,.04-.03-.02-.03.02-.04.04-.02-.03-.02.02-.04.06-.03,0-.03-.04-.02-.02,0-.03,0-.05,0-.03,0-.06,0-.09.02-.04.04,0,.04-.03.07-.04.03-.1.06-.06.03.04-.03.08-.06.04-.07-.04,0-.08.02-.08.02,0,0,0-.02.05-.04.04-.01.02-.01,0-.03-.02-.01-.06,0-.07,0-.02,0-.01.04-.02.03-.01-.01-.03-.03-.08-.02-.02,0-.04,0-.06,0-.03,0-.05,0-.08,0-.03.01-.04,0-.06,0-.01,0-.03-.02-.07-.01-.04,0-.06,0-.07,0-.02,0-.03-.01-.07,0-.03,0-.04,0-.06-.01-.02-.01-.04-.02-.1,0-.11.04-.11.04-.08.02.03-.03-.05-.02-.14,0-.05.01-.06,0-.07,0,0,0,0,0-.03,0-.03,0-.04,0-.05,0,0,0-.02-.01-.04,0-.02,0-.04,0-.06,0-.02,0-.03-.01-.06,0-.05.01-.08.04-.14.02-.06-.02-.1-.02-.09.01,0,.01-.02,0-.05,0-.03,0-.07-.01-.1,0-.04.01-.05,0-.07,0-.01,0-.02-.01-.05,0-.02.01-.04,0-.06,0-.02,0-.04-.01-.07,0-.03,0-.05,0-.07,0-.02,0-.03,0-.05,0-.02,0-.03,0-.05,0-.02,0-.03,0-.06,0-.03.01-.05.01-.07,0-.02,0-.03,0-.07,0-.04,0-.06,0-.09,0-.02,0-.05,0-.1,0-.11,0,0,.03-.08.04-.08.01-.02.03-.07.04-.03,0-.03,0-.05,0,0,0-.02,0-.04,0-.02,0-.03,0-.04,0-.03,0-.05,0-.12.02-.08.03,0,.01.03.03.03.01.1.01.15,0,.05,0-.04.01.04.02.08,0,.05,0-.04.01-.1.01-.05,0-.12.03-.07.03-.08,0-.01.04.06.03.04,0,.08-.02.02,0,.03,0,.04,0,.01,0,.02,0,.05,0,.03,0,.03,0,.05,0,0,0,.02,0,.05,0,.03,0,.06,0,.08,0,.02,0,.04.01.07,0,.03,0,.03,0,.03,0,0,0,0,0,.03,0,.05,0,.09.02.05.03-.03.02.06.01.03.03-.03.02.06.02.03.03-.03.01.02.03-.01.04-.03,0-.01.03-.05.04-.04,0-.03,0-.03.03,0,.02,0,.03.05.02.02,0,.04,0,.05-.01h0s0,0,0,0c0,.01.03.02.05,0,.03-.02.07-.02.03,0-.02.02,0,.01.02.01.02,0,.03,0,.02,0-.02.01.05,0,.02.02-.02,0-.04,0-.07,0-.02,0-.04,0-.05,0-.01,0-.02,0-.02,0,0,0-.02,0-.04,0-.04.01-.02.02,0,.03.02,0,.05.02.07.02.02,0,.06-.02.08,0,.02.01-.03.03,0,.04.02.01-.05,0-.04.03,0,0,0,0-.03,0-.02,0-.05,0-.06.01-.03.02.08.01.04.04-.02,0-.03,0-.04,0-.01,0-.03-.02-.05,0-.05.02-.09.02-.06.04.03.02-.08.01-.04.04.04.03-.06.01,0,.04.05.03.03.03,0,.03-.03,0-.05,0-.02.04.04.04-.01.11.03.09.04-.02.07-.05.09-.03-.03,0-.04.01-.05.03,0,.02-.04,0-.03.03,0,.03-.02.05.03.07.04.01,0,.03.04.04.05,0-.02.05.04.06.05,0,0,.04.06.05.05,0,.02.03.05.02.03-.01.03-.02.07-.03.04-.01-.02.02.03.03.05,0,0,.02.04.03.03,0-.02.03.04.02.02,0,.03,0,.05,0,.03,0,.04,0,.03-.03-.02-.05.09-.04.05-.06-.04-.01.08-.02.05-.04-.03-.02.07-.02.03-.06-.05-.04.06-.04.05-.05-.02-.02.08-.02.06-.03-.02,0,.08-.02.05-.04-.02-.02.09-.01.05-.04-.04-.03-.04-.06,0-.05.05.01.11,0,.08,0-.03-.02,0-.04.05-.04.01,0,.03,0,.04,0,.03,0,.07,0,.05-.02-.02-.03.06-.03.07-.01v.02s.11,0,.09-.02c-.02-.03.04-.04.08-.03.02,0,.03,0,.04-.02.01-.01.03-.03.05-.02.02,0,.03-.01.04-.03,0-.02.02-.04.05-.03.03,0,.03,0,.03-.02,0-.01,0-.02,0-.02.03.01.03.05.07.04.02,0,.04,0,.06,0,.02,0,.03,0,.05,0,.02-.01.03-.01.04-.01,0,0,.02,0,.05,0,.03,0,.06,0,.08,0,.02,0,.04,0,.03,0,0-.02.11-.01.09-.03,0,0,.02,0,.05,0,.03,0,.05,0,.04,0M5.92,15.25h0s0-.01,0-.01h-.02s-.02,0-.02,0h0s0,.02,0,.02h0s-.01,0-.01,0h0s0,0,0,0c0,.01.01.02.03.02.01,0,.02,0,.03,0h0s0-.02,0-.02h0M10.26,10.65s.03,0,.06,0c.03,0,.02-.02,0-.03-.01,0-.03-.02-.05-.01-.02,0-.02,0-.04,0-.01,0-.02,0-.04,0-.01,0-.02,0-.02.01,0,0,0,.02,0,.02h0s.02,0,.02,0c.01.01.01.01.04.01M6.57,15.44s.05.01.06,0h0s.02,0,.02,0c.02,0,.02-.02.04-.02.02,0,.03,0,.05,0,.01,0,.01,0,0-.02,0-.01-.02,0-.03-.02h-.01s0-.01,0-.01h-.03s-.01-.01-.01-.01h-.01s-.01,0-.01,0h-.01s-.04,0-.02,0c.02,0,.03-.01.02-.02-.01-.01.02-.02,0-.02h-.02s-.02,0-.02,0h-.02s-.03-.02-.05-.02c-.01,0-.06-.04-.07-.04h0s-.01,0-.01,0c-.02,0,.02,0,0-.01-.02-.01-.01-.02-.02-.02h0s0,0,0,0c0,0-.01,0-.03-.01-.05-.02-.03-.02-.05-.03-.02,0-.02-.02-.04-.02-.02,0-.04-.01-.04-.02,0-.01,0-.01-.03-.02-.02,0-.02-.01-.05-.01-.01,0-.01,0-.02,0h0s0-.01-.05-.01c-.05,0-.08-.01-.09,0h-.01s-.02,0-.05,0c-.06.01-.03.01-.04.02-.02,0-.07.01-.07.03h0s-.02.01-.02.01c-.02.01-.03.02-.02.03,0,.02.02.02.02.02h-.01s-.01.01-.01.01c-.01.01-.03.02-.04.02,0,.01.01.02.02,0,.01,0,.04-.03.03-.01-.01.01,0,.01.01,0h.03s.01-.03.01-.03c0,0,0-.01.02-.02h.02s.01,0,.03,0c.02,0,.02-.01.03-.02.01,0,0-.02.02-.02.02,0,.1,0,.12,0,.01,0,.02.01,0,.01-.02,0-.02,0-.03,0-.01,0-.03,0-.04,0h.02s.03.03.05.03c0,0,.02,0,.03,0,.02,0,.04,0,.04,0h0s.02,0,.02,0c.01-.01,0,.01.01.02.02,0,0,0,.04.02.03,0,.05.03.06.03h.02s.02,0,.02,0h.01s.01,0,.01.02c0,.02,0,.03,0,.04,0,.01,0,0,.02.02,0,.01.02.01.04.01h.01s.02,0,.02,0c.01,0,.03,0,.03,0,0,0,0,.02.01.02.02,0,.01,0,0,.01-.02.01-.02,0-.03.02-.01.01-.02,0-.03.02-.01.01-.02.02.02.02.04,0,.03-.01.05,0h.03s.03,0,.03,0c.02,0,.03,0,.04,0,0,0,0,0,.02,0M7.38,15.67h.02s.01,0,.01,0h.02s.03,0,.03,0c.01,0,.02,0,.04,0,.01,0,0-.02.02-.02.03,0,.01-.02,0-.02h-.02s-.01,0-.03,0c-.03,0-.01,0-.08,0-.02,0,0,0-.02.01-.01,0,0,0,0,0,0,0-.02.03,0,.03M6.42,15.68s.03,0,.05,0c.01,0,.03,0,.03-.01,0-.01-.01-.02-.03-.02-.02,0-.03-.02-.05-.03-.01,0-.03,0-.06-.01-.02,0-.03,0-.04,0h0s-.02,0-.05,0c-.02,0,0,.02.02.02.02,0,.02,0,.03.02,0,.01,0,.03.03.03.02,0,.02.01.03.02h0s0-.01,0-.01c0,.01.02,0,.02,0,0-.01,0,0,.02,0M7.25,15.62s.04-.03.02-.04c-.02-.01-.04-.03-.06-.04-.02-.01-.05-.02-.07-.02h-.02s-.01,0-.01,0c.01-.01.03-.01.04,0,0,0,.03,0,.02-.02-.01,0-.03,0-.04,0h-.02s0-.02,0-.02h-.02s-.02,0-.02,0c-.02,0-.01-.02-.02-.02-.01,0-.02-.02-.04-.01-.01,0-.02,0-.03,0,0,0-.02,0-.03,0h-.02s-.01,0-.01,0h-.02s-.01.01-.02,0c0,0-.02,0-.04,0h0s0,0-.02,0h-.04s0,.03.01.03c.02,0,.04,0,.03.02-.01.01,0,.02,0,.02,0,0-.02.01,0,.02.02.01,0,.02.02.03.02.01.03.02.03.02,0,0-.02,0-.04,0-.02,0-.02.01-.04,0h-.02s-.01,0-.01,0h-.02s-.02,0-.02,0c0,0-.04,0-.04,0,0,.01-.01.02,0,.03.02,0,.03,0,.04.02h.02s.02-.01.04-.01c.02,0,.03.01.05,0,.03,0,.05,0,.07,0,.01,0,.02,0,.03.01h0s-.02.04,0,.04c.01,0,.03,0,.03,0,0,0,.02,0,.03,0,0-.01.02-.02.03-.02.01,0,.03-.01.01-.02h0s.02-.01.02-.01c0-.02,0,0,.02,0s.03,0,.03-.02h.02s.02,0,.02,0c.02,0,.03-.01.04-.01.01,0,.03.02.04.03.01.01.01,0,.02-.01.01,0,0-.01.02,0M13.16,11.95s.03,0,.03,0h-.02s-.02,0-.04.02c-.02,0,0,.01,0,0h0s0,0,.02,0c.01,0,.04,0,.04,0,0,0-.02,0-.04.02-.02,0,0,.01.01,0h.02s.01,0,.01,0h0s-.01.01-.01.01h0s0,0,0,0c.01,0,.03,0,.04,0h.01s.02,0,.02,0h.01s.01,0,.01,0h.01s.02-.01.02-.01h.01s.01-.01.01-.01h.01s0,0,0,0c.01,0,0,0,.02,0,.02,0,.02,0,.03,0v-.03s0,.03,0,.03h0s.02,0,.02,0h.02s0,0,0,0c.01,0,0-.01,0-.02,0,0,0,0,.02-.02.01,0,0,0,0-.02v-.02s0-.02,0-.02c0,0-.02-.02,0-.02.01,0,0-.01,0-.01v-.02s-.02-.01-.02-.01c0,0,0-.01,0-.01h0s0,0,0,0h.02s.01-.01.01-.01h.02s0-.03,0-.03h-.02s-.01,0-.01,0h.01s0-.02,0-.02h-.01s0-.02,0-.02h0s-.01-.02-.01-.02h-.02s-.02,0-.03,0h-.02s0,0,.02,0c.01,0,0,0,0-.01-.01,0,0,0-.02,0,0,0,0,.01-.01.02v-.02s-.01,0-.01,0h0s-.01,0-.01,0h-.01s0,0-.01.02c-.01,0,0,.01,0,.01-.01,0,0,0-.02,0-.02,0,0,0,0,0,0,0,.02,0,.03,0,.02,0,0,0,0,0,0,0,0,0-.02.01-.01,0,.01.02,0,.02-.01,0,0,0-.02-.01h0s-.01,0-.01,0h-.04s-.01,0-.01,0h0s0,.03,0,.03c-.01,0-.02,0-.03,0h.01s.01.01.02.01c.01,0,.01,0,0,0s-.01,0,0,.01h0s-.01,0-.01,0c-.01,0,0,0,0,.01-.01,0,0,0,.01,0h0s.01,0,.01,0h0s.02,0,.04,0c.02,0,.02.01,0,.01-.02,0-.02,0-.03,0h0s-.01.02-.01.02c0,0,0,0-.02,0-.02,0-.02,0,0,0s.02,0,.03,0c.01,0,.02,0,.03-.01h0s0,0,.02,0c0,0-.02,0-.03,0-.01,0-.03,0-.04,0-.02,0,0,0-.02.01-.02,0,0,0,0,0h0s-.02,0-.02,0h0s-.01,0-.01,0c-.01,0-.03.02-.01.01h.02M13.45,11.79v-.02s0,.02,0,.02M8.63,12.52s-.01,0-.04,0c-.02,0-.04,0-.05,0h-.01s0,0,0,0c0-.01-.03,0-.04-.03-.01-.02-.02,0-.02.03,0,.02,0,.01.01,0h0s0,.02.01.02c.02,0,0,0,0,0h0s.02,0,.02,0c.02,0,.02,0,.02,0h0s.01,0,.01,0h0s0,.02.02.01c.03-.02-.02-.02,0-.02.02,0,.01,0,.03-.02M12.31,11.01h.01s.06.02.09.02h.01s.05,0,.08,0c.02,0,.04,0,.06-.01.01,0,.01-.01.02-.02.02,0,.04,0,.06,0h.03s.01-.01.01-.01c.01,0,.03-.01.04-.02.02,0,.03-.01.05,0h0s.02,0,.03-.01h0s0-.02.01-.03h.01s0,0,0,0v-.02s.02,0,.02,0c.01,0,0-.01,0-.02h-.01s-.02,0-.02,0h.02s-.02-.02-.02-.02h-.02s-.02,0-.02,0h-.01s.02-.01.02-.02h-.02s0-.01.02-.02h0s0,0,0,0c-.02,0-.03,0-.05,0h-.02s0,0,0,0h0s-.02-.01-.02-.02h-.03s0,0,0,0h0s0,.02,0,.02h-.02s-.01,0-.01,0c-.02,0-.01.02-.03.02-.02,0-.03-.01-.05,0,0,0,.03.02.01.02-.01,0-.01,0-.03-.01h0s-.02-.02-.02-.02c-.01,0-.03,0-.04.01v.02s0,0,0,0c-.01,0-.02,0-.01-.01h0s-.02-.01-.03,0h-.01s.01.02.01.02h0s-.01.01-.01.01h0s-.01,0-.03.01h0v.02h0s0-.02,0-.02h-.03s.02-.01.02-.01h0s.02-.02,0-.02h0s-.02-.02-.02-.02h-.01s0-.02-.02-.02c-.01,0-.03,0-.04,0h0s.02,0,.02,0h.01s0,0,0,0h-.01s.02.01.02.01c0,0,.01.01,0,.02-.02,0-.03-.01-.05-.02h-.02s0,0,0,0h-.01s-.02,0-.02,0h.01s-.02,0-.02,0c0,0,.02,0,.03,0h0s-.02,0-.02,0h-.02s0,0,0,0h0s0,.01,0,.01c-.02,0-.02,0-.03,0h0s.01,0,.01,0c.02,0,.02,0,.04,0,.02,0,.03-.01.05-.01h0s.02,0,.02,0c.02,0,.03,0,.05,0h0s-.04.01-.05.02h.01s0,0,0,0h.02s.01,0,.01,0c0,0-.02,0-.04,0-.01,0-.02,0-.03,0-.03,0-.06,0-.08.01h0s0,0,0,0h.01s.05,0,.07,0h0s0,.02,0,.02h.02s.01,0,.01,0h0s.03.01.03.01h0s-.02,0-.02,0c0,.01-.04.02-.07.02h0s0,.01,0,.01h.03s.03,0,.03,0h.02M6.93,10.73s-.03.03-.04.04c.05,0,.06-.02.08-.03,0,0-.01,0-.04,0M7.86,10.4c.05,0,.07,0,.1-.02.01,0,.03-.04-.02-.04-.05,0-.08.01-.09.02-.01,0,0,0,.03,0h.03s-.04.01-.09.01c-.05,0-.01.02.04.02M7.98,10.33s.05.02.08,0c.03.01.03.03,0,.04-.03.01-.04.06.05.05.06,0,.08-.03.09-.02.01.01.02.02.06.02.04,0,.07-.03.1-.03.01,0,0,0,0,.01,0,0-.01.01.01.01.08,0,.07-.02.1-.02.04,0,.07,0,.11,0,.02,0,.04,0,.05,0,.01,0,.02,0,.03,0,.03,0-.02-.05.02-.03.05.03.03.02.08.01.05,0,.12,0,.07-.02-.05-.02-.03-.05-.09-.05-.06,0-.04.02-.06.01-.01,0-.03,0-.05,0-.02,0-.04,0-.06,0-.02,0-.03,0-.04,0-.02,0-.04,0-.06,0-.03,0-.06,0-.08,0-.02,0-.04,0-.05,0-.01,0-.03,0-.05,0-.02,0-.04.01-.04,0,0,0-.02,0-.03,0-.01,0-.03,0-.03,0,0-.01-.08,0-.05-.01.04,0,.09-.05.03-.04-.03,0-.04,0-.04,0,0,0-.01-.01-.04,0-.05,0-.09,0-.12.02-.03.01.03.03.02.04M7.84,10.19s-.05.03-.02.03c.05.01.08-.02.1-.03.02-.01.08-.01.07-.03,0-.02.03-.04-.05-.02-.08.02-.16.03-.14.05h.03s.01,0,0,0M8.71,10.45s.06-.01.08-.02c.03-.01.05,0,.08-.01.03-.01-.03-.01-.06-.03-.03-.02-.05,0-.09,0-.04,0-.04.01-.03.03.01.01,0,.03.02.03M8.27,10.22s.03,0,.03,0c0,0,.01-.01.04,0,.03,0,.05,0,.04-.02,0-.01.03,0,.06,0,.02,0,.03,0,.04,0,.05,0,.09-.03.13-.05.04-.01.09,0,.06-.01-.03,0,.01,0,.03-.04.01-.03-.03-.02-.07-.01-.03,0-.06.01-.04,0,.05-.04-.02-.02-.06,0-.04,0-.07.01-.1.03-.03.02-.07.01-.13.03-.06.02.03.04-.03.05-.06.01-.01.01-.05.02-.04,0-.02.02.03.02M9.47,12.38s-.02,0-.03,0c-.01,0,0-.01.02-.03.02,0,0-.02-.01,0-.01,0-.03.02-.05.03h-.01s-.02.01-.02.01c-.01.01,0,.02,0,.02-.02.02,0,.03,0,.05,0,.02.02,0,.03-.01,0-.02.02-.04.02-.02,0,.02,0,.02,0,.04,0,.01.01,0,.02,0h0s.03-.03.03-.03c0,0,0-.03.01-.04.01,0,0-.03,0-.04M9.47,12.29s0-.02,0-.01c-.01,0-.02,0-.03,0h-.02s0,0,0,0c.02,0,.03,0,.03-.02h0s0,0,0,0c0,0,.02,0,0-.02,0-.02-.03-.01-.06,0h-.02s-.01,0-.01,0c-.02,0-.04,0-.03,0h-.01s-.01-.01-.01-.01c.01-.01-.03-.01-.02-.02,0,0,0-.01-.03,0,.01-.01.05,0,.06-.02.01-.01,0,0-.01,0h-.01s-.01,0-.01,0h0s0,0,0,0c-.01,0-.04.02-.06.04,0-.01.03-.03.04-.04.01,0,0-.02.01-.01h.01s.01-.02.01-.02h.02s.01-.02.01-.02l.02-.02s0-.02-.01-.01c-.01,0,0-.01,0-.01.01,0,.02,0,.02-.01,0-.01,0-.01-.02,0h0s0,0,0,0c-.01,0-.02,0-.04,0-.02,0-.01.02-.03.03-.02.01-.03,0-.02.01,0,0-.01.02-.03.02l-.07.08s0,.03-.03.04c-.02,0-.01.01-.03.03-.02.01-.02.02-.01.02,0,0,0,0,0,.01-.03,0-.03,0-.06.02-.02.02,0,.02-.03.03-.02,0-.02,0-.02,0h-.01s.02,0,.04,0c.02,0,0,.01-.02.01-.02,0-.03.01-.05.02-.02,0,0,.02,0,.03,0,.01,0,.02,0,.01,0,0,.03-.01.06,0,.02,0,.02,0,.03,0,0,0,0,0,.03,0,.02,0,.03,0,.04,0h.02s.03-.01.03-.01h.02s.01,0,.01,0h.02s.01,0,.03,0c.01,0,0,0,0,0h0s.01,0,.02,0c0,0,0,.01.02,0,.02,0,.04,0,.03,0-.01,0-.03.02-.03.03,0,0-.03.02-.04.02-.01,0-.01.02,0,.02.01,0,0,0,.02,0,.01,0,.03,0,.05-.01.01,0,.01-.01.02-.02.01,0,0-.01.02-.03h.02s.01-.01.01-.01c.02-.01.03-.01.03-.03,0-.02.02-.02.02,0,0,.01.02,0,.04-.02.02-.01-.04-.02-.03-.02.01,0,.03,0,.04-.01.01-.01,0,0,.01-.01M7.76,10.48c.06,0,.1.02.12,0,.02-.02.07-.04.1-.05.03,0-.02-.01-.06-.01-.01,0-.03,0-.04,0-.04,0-.08,0-.1,0-.03.01-.07,0-.07.04,0,.02-.04.03-.03.04.01.01.03.02.04.02.01,0,.05-.02.03-.03-.02,0-.05-.02,0-.01M7.88,11.07s.01,0,.04.01c.03,0,.02.02.06,0,.04-.02-.03-.01-.01-.02.02,0,0-.03-.03-.03-.02,0-.04-.01-.03-.03,0-.02-.06-.02-.06-.04,0-.02-.04-.01-.06,0-.02.02-.01-.02,0-.03.01,0,0-.02-.03-.01-.03.01-.05.03-.09.05-.03.02-.08.04-.07.07-.09.02-.11.03-.12.04,0,.01.04,0,.07,0,.03,0,.03,0,0,.02-.02.01-.03.02,0,.02.02,0,.05,0,.08-.01.03-.01.03-.04.06-.04.03,0,.06,0,.07-.03,0-.01.01-.01.02-.01,0,0,.02,0,.04,0,.04-.02.03,0,0,.01,0,0,0,0,.02,0,.03,0,.06,0,.02.02M9.62,10.76s-.01-.05-.05-.03c-.04.02-.05.03-.05.01,0-.01,0-.03-.03-.02-.01,0-.01,0-.01,0,0,0,0-.01-.02,0-.02,0-.02,0-.02,0,0,0,0-.01-.01,0-.01,0,0,0,0-.01,0,0,0-.02-.02,0-.02.01-.03,0-.04,0,0,0-.01,0-.03,0,.02-.02.08,0,.06-.03-.01-.01-.04,0-.07,0-.02,0-.04,0-.06,0-.02-.01.14-.03.11-.05-.03-.02,0-.03-.03-.04-.03-.02-.04,0-.09.02-.05.02-.04.02-.01,0,.03-.02.08-.03.06-.04-.02,0-.03-.01-.07,0-.02.01-.02,0-.02-.02,0-.02,0-.03,0-.02-.01.01-.02,0-.03,0-.01,0-.03-.02-.06,0-.01,0-.03,0-.04,0-.01,0-.02,0-.04,0-.01,0-.02-.01-.03-.02,0-.01-.02-.02-.06-.02-.07,0-.13.01-.08.04.05.03-.04,0,0,.04.02.01.02.02,0,0h0s-.05-.04-.05-.03c0,0,0,0-.01-.02,0-.02-.01-.03-.03,0-.02.02-.03.02-.03.01,0,0,0-.01-.02,0-.03.03-.08.05-.06.02.02-.03.05-.04.01-.04-.04,0,.01-.01,0-.03-.02-.01,0-.04-.03-.03-.02,0-.09,0-.15.02-.06.02-.05,0-.08.02-.04.02-.13.02-.06.03.02,0-.14.02-.05.05.06.02-.11-.01-.1.06-.03-.02-.02-.05.01-.07.04-.01.03-.04.06-.05.03-.02.06-.04-.01-.04-.07,0-.1,0-.15.02-.02,0-.05.02-.07.03-.04.03-.02.03-.09.06-.07.03.02.04-.02.05-.08,0,0,.08.08.06.07-.02.04,0,.08-.02.04-.02.02,0,.06,0,.03,0,.05.02.07,0t.04-.02s-.03.03,0,.03c.01,0,.02,0,.02,0,0,0,0,0,.02,0,.01,0,.02,0,.03.01,0,0,.02.02.03,0,.02-.02-.01-.05.02-.04.03.02.02.05.06.03.04-.01-.05-.03-.02-.04.01,0,.02,0,.03,0,.01,0,.02.01.04,0,.03-.01,0-.06,0-.06,0,0,.06.05.07.02,0-.02,0,0,0,0,0,0,.01,0,.03,0,.02,0,.03,0,.03.01,0,0,0,.02.03.01.02,0,.02,0,.02.01,0,0,0,.01.02.01.03,0,.07.01.03.02-.03,0-.06.03-.02.04.02,0,.03,0,.03-.01,0,0,0-.01.01-.01h.02s.03,0,.04,0c.01.02.04,0,.04.02,0,.02.04.05,0,.06-.04.01-.04,0-.08.02-.04.02-.1.03-.06.04.04,0,.06.03.09.01.03-.02.07-.05.06-.03,0,.03,0,.04.04.04.05,0,.02,0-.03.02-.02,0-.03,0-.04,0-.01,0-.02,0-.04.02-.04.04-.06.04-.05.02,0-.02,0-.02.02-.04.02-.02.01-.02-.01-.03-.03,0-.07-.03-.09-.02-.02.01-.06.01-.07.03-.01.01.06.03.06.05-.04-.01-.1-.03-.08,0,0,0-.02,0-.04,0-.02,0-.04,0-.03,0,.01,0-.01,0-.04,0-.03,0-.06,0-.04,0,.02,0-.02,0-.05,0-.05,0-.1-.01-.07,0,.03.02,0,.02-.04.01-.03,0-.06,0-.03,0,.06.03,0,0-.02.05-.01.04.02.01,0,.04-.01.02.02.02.04.02h.02s.04,0,.02,0c-.02-.02.04,0,.02-.02,0,0,0,0,.01,0,.02,0,.03,0,.02,0-.01-.01.01,0,.04,0,.03,0,.06.02.05,0-.02-.02-.04-.06-.03-.04.02.02.04.04.07.02.03-.01-.05.03,0,.04.04,0,.09,0,.11.03.02.02.04.03.06,0,.02-.02-.02.03.03.03.04,0,.08.03.09,0,.02-.05,0-.01.03,0h.02s.02,0,.02,0c0,.01.1.05.12.03.01,0,.03,0,.04,0,.01,0,.03.01.04,0,.03-.02-.03-.02,0-.03.02-.01.02-.02-.02-.02-.04,0,0-.03-.05-.03-.02,0,0-.03-.06-.04.07,0,.1.02.12,0,0,0,.02,0,.03,0,.01,0,.02.02.03,0,0,0,.02,0,.03,0,.01,0,.02,0,.03,0,.01-.02.02-.01,0-.03-.02-.01.03-.02,0-.03-.04-.01.04-.02,0-.03-.05-.01-.02-.04-.06-.03-.04,0-.05,0-.03-.02.02,0-.03-.05,0-.03.04.02.04,0,.03-.01,0-.01-.02-.03,0-.02.03.02.02.02.04.01.02,0,.05-.01.05.01,0,.01,0,.01.02,0h.01s.02,0,.04-.03c.02-.02-.03.04,0,.04.03,0,0,.03.03.02.01,0,.01,0,.02.01,0,.01,0,.02.02.02.03-.01.02-.03,0-.04h.01s.02,0,.01-.01h0s.03,0,.01-.02c-.01-.02,0-.02.02-.01.02,0,.03.01.03,0,0-.02.01-.02.03-.01.02,0,.03,0,.02-.01,0-.02,0-.01.03,0,.02,0,.04,0,.03-.01,0-.02.02-.01.04,0,.02,0,.04,0,.03,0-.02-.03.08-.02.03-.03M7.04,10.64h0s-.03.03-.05.04h0s.11-.03.05-.04M8.78,12.5h0s0-.01,0-.01c-.01,0-.05.04-.07.05-.02,0-.01.02-.01.04,0,.01,0,0,.02,0h.01s.02,0,.02,0h.02s.02-.01.04-.02c.02,0-.01-.02,0-.03.01,0-.01,0-.04,0,.02,0,.02-.04,0-.04M7.99,10.21s.04,0,.05,0c.01,0,.02,0,.03,0,.02-.01,0-.02,0-.04,0-.02-.08.01-.13.05-.04.03,0,.01.05,0M8.66,10.15c-.06,0-.08.02-.06.03.01,0,.04,0,.07,0,.02,0,.03,0,.05,0,.03,0-.05.01-.09.02-.04,0,.1.02.07.02-.04,0-.05,0-.1-.01-.05-.01-.08,0-.12,0-.04.01-.01.02-.04.03-.03,0-.07,0-.11.02-.04.01-.03.02.01.03.03,0,.05,0,.06,0,.02,0,.03,0,.06,0,.06.01.08.02.13.01.05-.01.05-.03.08-.03.03,0,.07.03.1.02.02,0,.03,0,.04,0,.01,0,.03,0,.05,0,.04,0,.06-.04.09-.04.03,0,.11,0,.08-.02-.03-.02-.05-.03,0-.03.06,0,.09.01.07-.02-.02-.03-.02-.02.02,0,.02,0,.04,0,.05,0,.01,0,.02,0,.03,0,.02,0,.12.03.15,0,.03-.03.05-.02.08-.01.02,0,.05.02.09,0,.03-.02.05-.01.08,0,.02,0,.05,0,.11,0,.11-.03.15-.02.23-.06.07-.04.13-.04.18-.05.05-.01.17-.05.03-.05-.07,0-.09,0-.11-.01-.02,0-.03-.01-.09,0-.11,0-.15.05-.24.03-.06-.01-.08,0-.12,0-.03,0-.04,0-.06,0-.01,0-.03,0-.05,0-.05,0-.09,0-.15.01-.04,0-.06,0-.08,0-.02,0-.03,0-.04,0-.03,0-.07,0-.11.01-.02,0-.03,0-.05,0-.01,0-.03,0-.04,0-.02,0-.08,0-.09.01-.01.01-.11.02-.14.04-.01.01.01,0,.04,0,.03,0,.06-.01.07,0,.03.01.04,0,.07,0,.01,0,.02,0,.02,0h.02s.04,0,.07,0c.02,0,.04,0,.05,0,.02,0,.03,0,.02,0-.02.01-.06.01-.1,0-.04,0-.05.02-.1.02-.05,0,0,.06-.03.05h-.03s-.02,0-.02-.02c0-.02-.06,0-.09,0-.11,0,.06.02-.12.03M7.28,10.53s.05,0,.06.02c.02.01.03,0,.04,0h.01c.06.02.05,0,.08-.01,0,.02.02.02.05,0,.02-.02.02-.02.04-.03.05-.03-.01-.03,0-.03,0,0,.05,0,.07-.03.03-.02,0-.02-.02-.02-.01,0-.02,0-.02,0,0,0,.05,0,.04-.02,0,0-.03,0-.06,0-.02,0-.03,0-.04,0,0,0-.02,0-.03,0-.01,0-.03,0-.04,0,0,0-.02,0-.03,0-.01,0-.02,0-.03,0-.02,0-.06.01-.04.02.02,0,.05.02.05.03,0,0,0,0-.04,0-.04,0-.11,0-.14,0-.01,0,.02.05.04.04M7.47,10.35s.05,0,.07,0c.02,0,.04-.01.04,0,0,.03.03.02.07,0,.01,0,.02,0,.03,0,0,0,.02.02.05,0,.02,0,.03-.02.05-.06.02-.04.06-.01.1-.04.04-.03-.08-.02-.13-.01-.05,0-.06.02-.09.05-.03.02,0-.03.02-.06.02-.03-.04,0-.09,0-.05,0-.03.04-.03.06,0,.02,0,0,0-.01l-.02-.02s-.02,0-.03,0c-.01,0-.03,0-.05,0l-.02.02s.03,0,.04.01c.03.02-.04.01,0,.04M18.97,15.44s-.05-.02-.05-.07c0-.03,0-.03-.01-.02,0,0-.01,0-.02-.02,0-.02-.01-.02-.02-.01,0,0-.02,0-.05-.02-.03-.02-.12-.06-.12-.07,0-.03-.04-.03-.08-.07-.04-.05,0-.09-.03-.08-.03,0,.03-.06-.02-.06-.04,0,0,.02-.05.05-.05.03,0,.05-.1.12-.04.03,0,.04-.02.04-.01,0-.01,0-.01,0,0,0,0,0-.02,0-.01,0-.01,0-.02,0,0,0,0,0-.02,0-.02,0-.02,0-.02,0,0,0,0,0-.04,0-.07,0-.08,0-.08,0-.05-.02-.02-.07-.05-.06-.02,0-.02,0,0-.01h0s-.01,0,0-.02c.02-.02-.02-.06,0-.07.02-.02-.03-.06-.04-.07-.02-.02-.03.02-.04.03h0s0,0,0,0c0,.01-.01.01.02.09-.03-.03-.05-.04-.05-.07,0-.03-.03-.05-.03-.08,0-.05-.02-.04-.02-.05,0-.03-.02,0-.05-.04-.04-.04-.05-.03-.04-.04.02-.01-.02-.03-.04,0,0-.03,0-.03-.05-.11-.05-.08-.06-.09-.08-.08-.02-.06.06-.05.04-.07-.01,0,.02-.03-.04-.05,0,0,0-.03.03,0,.04.05.02.02.05,0,.03-.01,0-.02.02-.04,0,.02,0,.02.04.04.02.01.03,0,.04,0,.01,0,.02-.01.06.04.04.07.07.03.07.06,0,.03.05.03.06.09,0,.06.01.02.04.04.03.02.04,0,.05.03.01.02.02.02.02.02,0,0,0,0,.01.01.03.05.03,0,.07.06.02.03.04.03.06.03.01,0,.03,0,.04,0,.03.01.05,0,.07,0,.01,0,.03,0,.04,0,.02,0,.03,0,.04-.02.02-.01.04-.03.08-.02.08.02.04.06.08.09.03.04.03.08.08.07.01,0,.03,0,.04.01.02,0,.04.02.07,0,.04,0,.07,0,.09,0,.02,0,.02.02.03,0,0,0,.04,0,.05,0-.04-.15-.06-.31-.11-.46-.05-.15-.07-.3-.13-.45-.06-.15-.09-.3-.16-.45-.07-.14-.11-.28-.18-.42-.08-.14-.14-.31-.23-.44-.08-.14-.15-.27-.24-.4-.09-.13-.17-.27-.27-.4-.1-.13-.2-.26-.3-.38-.11-.12-.19-.23-.31-.35-.11-.12-.25-.24-.37-.36-.02,0-.23.03-.24.04h-.02s-.01-.01,0,.02c.02.05.01.01,0,.04,0,.02,0,.01-.01.01h-.02s-.02,0-.02,0h-.02s-.02,0-.02,0h-.02s-.04-.02-.06-.02c-.02,0-.07-.04-.02-.03.06.01.01-.02-.02-.03-.03-.01.01-.02-.02-.03-.08-.02-.13-.04-.13-.03,0,0,.03.02.06.06.04.05,0,.05.03.06.04,0,.03,0,.03.02,0,.02.02.08,0,.05,0,0-.02,0-.03,0-.01,0-.02.01,0,0,.02-.02-.03-.02-.06-.02-.01,0-.01,0-.02,0,0,0,0-.01-.07,0-.05.01-.05,0-.07.02-.03.02-.03,0-.04.02-.02.03.13.04.11.07h-.02s-.02,0-.04,0c-.02,0-.03,0-.05,0-.02,0-.04-.01-.08,0-.02,0-.01,0,0,0,0,0,0-.01-.02-.01-.02,0-.03,0-.04,0-.01,0-.02,0-.02,0,0,.01-.03.01-.02.02.03.01-.02.02.07.03.04,0,.07.02.05.02-.02,0-.01.03-.03.02-.03-.02-.1,0-.12-.03-.02-.02-.03,0-.07-.02-.08-.02,0,0-.02-.02-.03-.02.01-.02-.02-.02-.04,0,0-.02-.02-.03-.01-.01,0,0,0-.03,0-.01,0,0-.01,0,0,0-.01,0-.03,0-.02-.01-.03-.01-.04-.01-.01,0-.02,0-.04,0-.06-.02.03,0-.03-.03-.04-.01-.02,0-.02-.01,0-.01-.08,0-.08-.02,0-.01,0,0,.01,0h.02s.03,0,.03,0h.02s.01,0,.02,0c0,0,0,0,.02,0h.02s.01.02.02.01c.03-.02-.03.03.19.04.17.01.19.03.2.03.06-.02.08-.04.09-.05.02,0,0-.01,0-.02.02,0-.05-.05-.05-.05h-.01s-.02-.01-.02-.01c0,0-.03,0-.05-.02-.03-.01-.06-.03-.08-.02-.02,0-.06,0-.1-.02-.04-.01-.07-.03-.09-.02-.02,0-.05,0-.09-.02-.03-.01-.07-.02-.09-.02-.03,0-.05,0-.06,0h-.02s-.02,0-.02,0h-.01s-.06-.02-.07-.02c0,0,0,0,.02,0,.02,0,.04,0,.03,0,0,0-.08-.04-.07,0,0,.02,0,0-.02,0-.01,0-.03-.01-.05,0-.04,0-.03-.01-.07-.02.01,0,.1.02.08,0-.03-.03-.04-.02-.06-.02h-.02s-.01-.03-.03-.01h-.02s-.02,0-.02,0c-.02.01.03-.02-.01-.03-.05-.01,0,.03-.03.04-.01,0-.01,0-.02-.02,0-.01,0-.02,0-.02-.02.01,0,.03-.05.06-.02.01-.01,0,0-.03,0-.02.02-.04,0-.03-.02,0-.02,0-.02,0,0,0,0-.01-.04,0-.06.04.03,0-.01.06-.02-.05-.04-.05-.06-.01-.02-.03-.03-.02-.04,0,0,0-.02.01-.04.01-.01,0-.02,0-.03,0-.01,0-.02,0-.03,0-.02,0-.02,0-.03,0,0,0,0,0-.03,0-.02,0-.02,0-.02.01,0,0,0,.01-.03.01-.02,0-.03,0-.04,0,0,0-.01,0-.03,0-.02,0-.03,0-.03,0h-.02s-.03,0-.04.01c-.02,0-.03.01-.05,0-.02,0,0,.02-.03.02-.03,0-.01.02-.05.02-.03,0-.02.03-.04.03-.02,0,0,.02-.04.02-.05,0-.03.02-.05.02-.02,0-.02.02-.04.02-.03,0-.01.03-.03.03-.02,0,0,.02-.03.02-.03,0-.02.03-.05.04-.03,0-.01.02-.04.04-.03.02-.01.02-.04.03-.02,0,0,.02-.05.03-.04,0,0,.01-.02.02.04.02.03,0,.08,0-.02.02-.03,0-.01.03-.03-.01-.03,0-.04,0,0,0-.01,0-.03,0-.04-.02-.02-.02-.03,0-.01-.02-.05,0-.05.01-.02-.01-.05,0-.06.01,0-.01-.02,0-.05,0-.03,0-.03,0-.01.03-.02-.02-.03-.01-.05,0-.02.01-.04,0-.07.03h-.02s-.02.01-.02.01c-.02.01-.02.02.02.03-.06,0-.05.03-.02.03h.02s.02,0,.04,0c.02,0,.02,0,.02,0,0,0,0,0,.03,0,.04,0,.05,0,.05,0,0,0,0,.02-.03.01-.02,0-.03,0-.03,0,0,0,0,0-.02,0-.02,0-.02,0-.03,0,0,0-.02,0-.04,0-.04,0,0,0,0,.02-.01.01,0,.02.03.01-.02.02-.04,0-.03.02,0,.03.02.02.02.02h0s0,0,0,0c0,0,0,0,0,0,0,.02,0,.01.01,0h.01s-.01.03-.03.01c-.02-.02-.02.02-.02.06.02-.03.02-.02.02-.02h.01s0-.01.06-.03c-.04.04-.05.03-.02.06h-.02s-.02-.02-.03,0c-.03.03.02.03.04.05.01.02.02.03.07.02-.05.02-.01.02.03.02-.02.02-.02.01,0,0,.01,0,.03,0,.04,0,.03.02.02,0,.07,0,.05,0,.04-.02.06-.03.02,0,.04-.02.03-.06.02.02.03.02.05.01.02,0,.02-.02,0-.05.02.02,0,0,.02-.03,0,.02,0,.03.01.06,0,.02.01.01.02.01h.03s0,0,0,.04c0,.04.03.01.03.03,0,.02,0,.01,0,.01,0,0,0,0,.01,0,0,.03.01.02.01.01,0,0,0,0,0,0,.01.03.01.05.04.07.03.02,0,.01.03.03.02.01.02.03-.02.02,0,.01,0,.02.03.04.03.02.02.07.07.04.02,0,.03,0,.05,0,.01,0,.03,0,.03,0,.01-.02-.02,0,0-.04,0-.02.01-.02.02-.02h0s.03,0,.07,0c.04,0,.04-.04.04-.05.01-.04,0-.06,0-.08.02-.02-.02-.04,0-.06.02-.02,0-.02.01-.03,0-.01,0-.01-.04-.03,0,0,.02,0,.04,0,.03,0,.06.01.04-.02.02.02.03.03.04.01h.01s.02,0,.04-.05c-.06.02-.03,0-.1-.02.02,0,.03,0,.05.01.02.01.02,0,.04,0,.02,0,.01-.02-.02-.03-.04-.01-.02-.02-.05-.03-.01,0-.01,0-.01,0,0,0,0,.01-.03,0-.06-.04-.02-.06-.02-.09,0-.02.01-.03,0-.07,0-.02,0-.01,0,0,0,0,.02.01.02,0,0-.01,0-.01.01,0,0,0,0,0,.02,0,.01-.01.02,0,.03,0,.01,0,.02,0,.03,0h.02s0,0,.02-.02c0-.01.02-.01.03-.01,0,0,.02,0,.03-.01.02-.03.02-.01.04-.04.03-.03-.03-.02,0-.05.01-.02.02-.01.03-.01h0s0-.01,0-.01c0,0,.01,0,.02,0,.01,0,.02,0,.03,0,.01,0,.02.02.02,0h0s.02,0,.02-.01c.01.01.01,0,.03.02.01.02.09.01.09.04,0,.02.03.02,0,.03h-.02s-.02,0-.02,0c-.02.01,0,.02-.03.02-.02,0-.02.02-.04.02h-.01s0,.01,0,.01h0s-.01,0-.01,0c-.01,0-.01,0-.02,0h-.01s-.02.01-.02.02h-.01s0,0-.02.01c-.01,0-.03,0-.01.01.01,0,0,.02-.01,0,0,0-.03.01-.01.02.03,0-.01,0,0,.02.02.01-.01.01,0,.02.01,0,0,.01.01.02.01,0,0,.01.02.02.01,0-.01.02,0,.03.02.02,0,.04.03.03.01,0,.01,0,.01.01,0,.01,0,.03.04,0,0,.01-.01.04.02.03.03,0,0,.03,0,.03h.03s.02-.02.03-.02c.03,0,0,0,.04-.02.02,0,.03,0,.04,0,.01,0,.02.01.03,0h.02s.02,0,.04,0c0,0,.02,0,.03,0,.02,0,.04,0,.07-.01.01,0,.02,0,.03,0,.01,0,.03.01.07,0,.05-.02.04,0,.03,0-.01,0,.03.02.05.02.01,0,.02,0,.03.01,0,0,.02.02.04,0,.01,0,.02,0,.03,0h.02v.02h-.02s-.06,0-.07.01c0,.02-.02.01-.03,0,0,0-.02,0-.02,0,0,.02,0,0-.01,0h-.01s.01,0,0,.02c0,0-.02.01-.04,0-.02,0-.03,0-.04,0-.01,0-.03,0-.05-.01-.02-.01-.02-.01-.03,0h-.02s-.02-.01-.02,0h-.02s-.01,0-.02,0c0,0,0,0-.02,0-.01,0-.01,0-.02,0h-.01s-.01.02-.04.02c-.03,0,0,0-.01.02-.02.02.03.02.03.02h-.02s.03.03.03.04c0,.02.02.02.03,0,0-.01.02,0,.02.03,0,.02.02.04.01.06,0,.03-.02.02-.04.02-.01,0-.02-.01-.04-.01-.02,0-.01-.03-.03-.03-.02,0-.03-.03-.04-.03,0,0,0-.02-.03,0-.04.03-.03,0-.05.04-.02.03.01.04,0,.06-.02.02,0,.04,0,.06,0,.05.01.04.01.06-.02.03-.02.02-.02,0,0-.01,0-.02,0,0,0,.01-.03.02-.04.02h-.01s-.02,0-.02,0c-.02,0-.01,0-.02,0h.01s.02,0,.02,0h0s-.02,0-.02.01v.02s-.02,0-.02,0h0l.02-.02h0s-.02.02-.02.02c-.01,0-.02,0-.04,0-.01,0,0-.02,0-.02,0-.02.02,0,.02,0h0s-.02-.03-.03-.03c-.02,0-.06,0-.09,0-.04,0-.05.02-.07.03-.02,0-.03,0-.04,0,0,0-.02,0-.03,0-.03,0-.06.01-.07.01-.05,0-.02.03-.04.03h-.01s-.02-.02-.03-.02c-.03-.01,0-.02-.02-.03-.01,0-.01,0-.02,0h-.01s-.02,0-.03,0c-.01,0-.02,0-.03.01-.01,0,0,0,0-.01h0s0,0,0,0c0,0,0,0-.01,0-.01,0-.02.02-.04.02-.02,0-.03,0-.04,0-.01,0-.02,0-.03,0,0,0-.03,0-.04,0h-.02s-.01,0-.01,0c-.03-.02.04,0,0-.03h-.02s0,0,0,0c0,0-.01-.01-.02,0,0-.02-.01-.01-.03-.01.01-.01,0-.01-.01-.02h0s0-.02-.02-.02c-.01,0-.01-.03,0-.03.02,0,0-.02.01-.02.02,0,0-.03.02-.03h.01s0-.02,0-.02c.01,0,.03,0,.02-.01,0-.01-.02,0-.04,0h-.01s-.02,0,0-.01c.01,0,0-.01,0-.03,0-.02-.01-.01-.02-.02h0s-.01,0-.01,0c-.02,0,0,.01-.01.03,0,.02-.01,0,0-.01,0-.01,0-.02-.01,0-.01,0-.01,0,0,.02,0,.01-.01.01-.02,0,0-.01-.02-.02-.03-.01-.01.01,0,.03,0,.03v.02s0,.01,0,.02h0s0,.01,0,.01c0,.02.02.02,0,.02-.01,0,0,0,0,.01h.02s0,.03,0,.03h0s.02.04.02.04h0s-.01.01-.01.01c0,0,.03,0,.02,0,0,0,0,0,.01.01v.02s0,0,.02,0c.01,0,.02.02.04.02-.02,0-.02,0-.03-.02h-.02s-.02,0-.02,0c-.01,0,0,0-.02.02,0,.01,0,0,0,.02h-.02s0,.01,0,.01h-.01s0-.02,0-.02c0-.01-.02-.01-.03,0h-.01s-.01,0-.03.02c-.01,0,0,0,0,.01h0s0,0,0,0c-.01,0-.02,0-.03,0h-.02s-.03,0-.03,0h-.02s0,.04.01.04c.01,0,0,.02,0,.02,0,0,0,.01,0,.02-.01,0-.01,0-.02.02h-.02s0,0,0,0h0s0-.02,0-.02h0s0-.01,0-.01c0,0,0,0,0-.02h0s0-.01,0-.01c0-.01,0,0-.01,0,0,0-.01.02-.02.05,0,.03-.02.03-.03.04,0,.01,0,.01.02.02.01,0-.01,0-.02,0h.02s0,.01.01.03h-.02s0,0,0,0h-.01s-.01,0-.01,0c0,0,0-.01-.02,0-.03,0-.04.02-.05.03-.02,0-.02.01-.04.01-.02,0-.02,0-.04,0-.02,0-.02.02-.02.02v.02s-.02,0-.02.02c0,.02-.03.02-.05.02-.02,0-.02,0-.04.01-.01,0-.02,0-.03.01,0,0-.02.01,0,.02.02,0,0,0-.02,0h-.02s-.02.02-.02.02c-.01,0-.02,0-.02,0l-.02-.02s-.01-.01-.01-.03h-.02s-.01,0-.01,0c-.01,0-.02,0-.02,0,0,0,0,.02,0,.03,0,.01,0,.02,0,.03,0,.01,0,.01,0,.03,0,.01.02.02,0,.02-.02,0-.04,0-.04,0h-.02s-.01,0-.01,0h-.03s0,0-.01-.01c0-.01-.01,0-.03,0-.02,0-.02,0-.03.01,0,0-.02,0-.04,0h-.02s-.02,0-.02,0v.02s.04,0,.03,0c-.01,0,.02.01,0,.01-.01,0-.03,0-.02.01.01,0,0,.02.02.02h.02s.02,0,.02,0c.01.01.03,0,.04.02.02.03.01,0,.04,0h.01s0,.02,0,.02c0,0,.04.01.02.02-.01,0,0,.02.02.02.02,0,.01,0,0,0v.02s0,.01.02.03c0,.01.02,0,.05.02.02.01.02.03.04.02.02,0-.02.01,0,.03.01.01,0,0,0,.03-.01.03.02.02.03.07-.01-.02-.03-.05-.04-.02,0,.03,0,.06-.02.08-.01.02-.02.07-.03.09,0,.01-.01.02-.03.02h-.01s-.02,0-.03,0c-.01,0-.04,0-.04,0,0,0-.03,0-.05,0h-.02s-.01,0-.01,0c-.01,0-.02,0-.03-.01,0,0-.02,0-.03,0-.01,0-.03,0-.04,0-.03,0-.08,0-.1,0-.02,0-.02,0-.02,0,0,0,0,0-.02,0-.01,0-.06,0-.08,0-.02,0-.05-.01-.05-.02h-.01s-.03,0-.03,0c0,0-.02,0,0,.01.01,0,0,0,0,0h-.01s-.02,0-.02,0c0,0-.02,0-.03.02-.02,0,0,0,0,.02,0,0,.03,0,.01.02-.01.01,0,0,0,.02,0,.01,0,.03.01.03.02,0,0,0-.01.01v.02s0,.02,0,.02c-.01,0,0,.02,0,.03-.01,0,0,0,0,.04-.01.03,0,.05-.01.07-.01.02-.01.03-.02.06-.01.03.01,0,0,.04-.01.03-.02.03-.02.03h0s0,.03,0,.05c0,.02,0,.03,0,.02,0,0,.01,0,0,0,0,.01,0,.01,0,.03,0,.01.02,0,.04,0,0,0-.01,0,0,.02,0,.01,0,.04,0,.06h0s0,.01,0,.01c0,.02,0,.02-.01.03-.01.01,0,.02-.02.03-.02.01,0,0,0,.01h.02s.02,0,.02,0h0s.02,0,.02,0c.01,0,.02,0,.04,0s.03,0,.03-.02c0,0,.01.01.03.01h.02s.02,0,.03,0h0s0,.01,0,.01c0,0,.03,0,.04.02.01.01.01.01.02,0,0,0,0,0,0,.02h0s0,.04,0,.04c0,0,.01.01.03.01h0s.01,0,.01,0c.02,0,.01-.01.05-.03.04-.01.07-.02.07-.02,0,0,.01,0,.04-.01.03-.01.04-.01.06-.02.02,0,.04,0,.05,0h.04s.03-.03.03-.05c.01-.02.03-.02.04-.03.01,0,.02-.02.03-.02.02,0,.02,0,.03-.01h0s0-.03,0-.03c.02,0,0-.03,0-.02.01,0,0-.04.02-.04,0,0,.03-.02.01-.02-.01,0-.02,0-.03-.02-.01-.01-.02-.03,0-.07.01-.02.02-.02.03-.03.04-.03.05-.06.05-.05,0,.01,0,.01.02,0,0-.02,0-.02,0-.03,0,0,.08-.04.1-.05.02,0,.02,0,.03-.02.01-.01.03-.02.05-.02h.01s.01-.02.01-.02c0,0,0,0,0-.02,0-.01,0-.02,0-.02.01,0-.03-.01,0-.01.02,0,.01-.02,0-.02h-.01s.01,0,.01,0c0-.01,0-.01,0-.02.01-.01,0-.01.02-.03.02-.02.04-.04.05-.04.01,0,.01,0,.03,0,.02,0,.03-.02.04-.02.02,0,0,.01.02.01.02,0,.04,0,.04.02,0,0,.03.03.04.01.01,0,.02,0,.04-.01.01-.02.01-.02.02-.02.01,0,0-.01.02-.02.01,0,.02,0,.03,0v-.02s0,.01,0,.01c.01-.01.06-.02.08-.04.02-.02.06-.02.12,0,.05.02.05.05.07.07.02.01,0,.03.02.04.02,0,.05.04.05.06,0,.02.02.02.03.02.01,0,.02.02.03.03.01.01.03.02.03.02s0,.02.02.03c.01,0,.04.04.05.05.01.01.04,0,.05,0,.02,0,.03.05.05.03h.01s0,.03,0,.03c.01,0,.05.01.04.02-.01,0,0,.02.03.02.02,0,.02.02.04.01.02,0,.02,0,.02.02,0,.03.03.05.04.07,0,.02.03.01,0,.04-.02.01.02.02,0,.06-.01.02,0,.03.02.03.02,0,.04,0,.05-.04,0-.03.03-.03.04-.04,0-.01,0-.02,0-.04h.01s.01,0,.01,0c0-.01-.02-.02-.02-.03,0-.01-.01-.02-.03-.03-.01,0-.01-.01-.01-.02v-.02s.01-.02.02-.03c0-.01.01-.01.02,0h.02s.02,0,.02,0c.02.01.02.03.04.04.01,0,0-.02,0-.02.01,0,0-.02-.02-.03-.02-.02-.04-.02-.05-.03-.01,0-.02-.02-.04-.04-.03-.02-.05-.02-.09-.03-.04-.02-.01-.02,0-.03,0,0,0-.01-.01-.02h-.03s-.02,0-.03,0c-.02,0-.03,0-.05-.02-.02-.02-.03-.02-.05-.05-.03-.03-.04-.06-.05-.08-.02-.02-.02-.04-.05-.06-.02-.02-.04-.01-.06-.03-.02-.02,0-.04-.02-.05-.01-.01-.01-.02,0-.02.01,0,.01-.02,0-.03-.01-.02.02-.02.05-.02.03,0,.02,0,.03-.02h.01s.01.01.01.01c.02,0,.02.01,0,.02-.02,0,.01.04.02.05.01.02.02,0,.03,0l.02-.04s.03.01.02.05c0,.02.03.03.05.04.03.02.04,0,.01.01-.02,0,0,.02.05.05.05.03.02.01.05.04.02.01.02,0,.02,0h.01s.04.03.06.04c.02.01-.01,0,0,.01.02.01.04.01.07.02.02,0,.02,0,.03,0h.02s-.04,0-.02.01c.02,0,.02.02.04.03.01,0,.02,0,.03.02h.02s0,.02,0,.02c-.01,0,.02.02.02.03,0,.01,0,.03,0,.03.01,0,0,0,0,.02-.01,0,0,.02,0,.03,0,.02.01.01.03.03.02.01,0,.01-.02,0-.02-.02-.01,0,0,0,0,0,0,0,.01.03.02.02.03,0,.04.02,0,.02.04.03.04.03h0s.03.01.04.03c0,.02.02,0,.02.02,0,.02.02.02.03.03,0,.01.02,0,.01-.01h0s.01,0,.01,0c.01-.01,0,0,.01.01.01,0,.02.01,0,0-.02,0-.03,0-.03.01,0,0,.02.02.02.03,0,.01,0,.01.02,0h.02s.01.02.03.01c.01,0,.02,0,.05.01.03.02.01,0,.03,0,.02,0-.02,0,0,.03,0,0,0,0-.03-.01h-.02s0,0-.02-.01c-.01,0-.02,0-.03,0h-.02s-.02,0-.02,0h-.01s-.02.02,0,.03c.01,0,.02.01.02.03.01-.02.06.03.03.04-.03,0,.03.02.05.04.01.01.02.02.03,0,0-.02.02,0,.02.02,0,.02.02.01.02,0,0-.01,0,0,.03.01.02.02,0-.01,0-.02,0,0,0-.01-.01-.03,0-.01,0-.02,0-.03-.01,0-.02-.03-.01-.02.01,0,.01,0,.02.01,0,.01.01-.01.03-.01.01,0,0-.01,0-.02,0,0,0-.01-.01-.02-.02,0,.01,0,.03,0,.02,0,.02,0,.03,0,0,0,.03.03.02.01,0-.02,0-.02,0-.04-.02-.02-.02-.03-.04-.03-.02,0-.03-.01-.03-.02,0,0-.02-.01-.04-.01-.02,0,0-.03,0-.03,0,0,0-.02-.02-.02-.01,0-.02,0,0,0,.01,0,.01,0,0-.02-.01-.02,0-.02.01-.02v.02s0,0,.02,0c.01,0,0-.02-.01-.04-.02-.02,0-.01-.03-.02-.02-.01,0-.02-.01-.03,0,0,.01-.02,0-.03.02,0,.02,0,.03.02h.02s.01,0,.01,0c0,0,0,0,0,.02.01,0,.01,0,0,0,0,0,0,0,.02,0,0,.01,0,0,0-.01-.01-.01,0-.01.02,0,.02.01.01,0,0-.01-.01,0,0-.01,0-.03,0-.01.03,0,.03-.02h.02s.02-.01.02-.01c0-.01.03,0,.03,0h0s.02,0,.02,0c0,0,.03,0,.04,0,.01,0,.02,0,.02,0-.01,0,.02,0,.03.01,0,0,0,.03.02.03.02,0,.02-.01.05-.03.02-.01.02,0,0,.01-.02,0-.03.02-.04.03-.02.01,0,.01.03,0,.02-.01.03-.02.06-.03.02,0,0-.02.02-.03.02,0,0-.02.03-.03h.02s.02,0,.02,0h.02s.02,0,.02-.02c0,0,0,0-.04-.02-.03-.02-.07-.04-.08-.06-.01-.01,0,0,0-.01-.01,0,0,0,0-.02-.01-.02-.03-.03-.02-.03h-.01s0-.03.01-.03h0s0,0,0-.02c0-.02.02-.03.02-.05,0-.02.01,0,.01,0,0,0,.02,0,.02-.02,0-.01-.01,0,0-.03,0-.01,0-.02,0-.03,0-.01,0-.02,0-.03.01-.01,0,0,0-.02,0-.01-.02,0,0-.02.02,0,.01.01.01.02h.01s.02-.02.02-.02v-.03s0,0,0-.01c.04-.02,0,0,.01-.03.01-.02.03-.02.03-.03,0-.01.02,0,0-.02-.02-.02,0-.02.01,0,0,.01,0,.02.02.01.05-.02.03-.03.07-.03.03,0,.01-.02.07,0,.05,0,.05.01.05.01,0,0-.04,0-.06,0-.02,0-.03,0,0,0,.05.02-.05,0,0,.02h0s0,0,.03.01c.02.01.03,0,.04,0h.02s.03,0,.03,0c0,0-.01,0,.02.02-.04.02-.04.03-.06.04,0,0-.01.03,0,.02.07-.02.03.03.07.03.05,0,0,.04.01.05.1.04.05-.02.1-.03.02,0,.02,0,.03,0,0,0,0,0,.02-.02,0-.01.03,0,.05,0,.02,0,.03,0,.04,0h.01s0,0,0,0c0-.01.04,0,0-.02-.03,0-.05-.02-.07,0-.02,0-.03,0-.04,0,0,0-.02,0-.04,0,.03-.02-.04-.04-.05-.04-.01,0-.01-.01-.03,0-.02,0-.03-.01-.02-.02h0s0,0,.04,0c.03-.01.05,0,.03,0-.02,0-.06,0-.03,0,.02,0,.04,0,.05-.01.01,0,.02-.01.04-.01.04,0,.02.02.05,0,.02-.02.02-.01.03-.01,0,0,0,0,.03-.01.02-.02.02-.02.03-.01,0,0,.01,0,.02,0h.03c.11-.04.11-.03.08,0-.04.04-.07.03-.08.03-.01,0,0,0,.03.03.04.04.03.04.02.04-.01,0-.04,0-.05.03-.01.04-.03.04-.05.04,0,0-.01,0,0,.02.02.04.13.04.24.13.04.03.03,0,.13.06.06.04.07.02.09.05.01.03.03,0,.04.06,0,.03,0,.04,0,.05-.07.08-.12.07-.16.06-.02,0-.04-.01-.06,0-.05.02-.09.01-.11,0-.01,0-.02,0-.03,0-.04,0,0-.02-.06-.03-.07,0-.03-.04-.08-.03-.02,0-.04,0-.05-.02-.01-.01-.02-.03-.04-.01-.02.01-.04.01-.07,0-.03,0-.07,0-.1.01-.06.04-.1.01-.14.06-.02.02-.06.01-.1,0-.04-.01-.08-.02-.09,0-.02.04.05.02.11.04-.03,0-.13,0-.09.02.03.01-.08.02-.1,0h-.02s-.02,0-.02,0c-.01-.02-.04.02-.07.03-.03.01-.05,0-.03.02.02.04-.04.04.05.04-.06.02.02.03,0,.04-.01.01.03.02,0,.02-.02,0,.03.04,0,.04h-.01s0,.02-.01,0c-.01-.02-.04,0-.01.02.02.02-.01.06.01.05.03-.02.03,0,.05,0,.05.02,0,.06.03.06.03,0,.03.03.05.02.01,0,.02,0,.02.01,0,0,0,.02-.02.01-.02,0-.01.02-.01.02h.07s-.08,0-.06.03h.02s.03,0,.03,0h.06s.07,0,.05.01c-.02.02.05.07.06.05,0-.01.09-.01.07-.05-.01-.03.03-.03.07,0,.04.02.06.01.11.06.01.02.1,0,.1,0,0,0-.01-.02.05-.06.06-.04.04.01.1.01h.02s.02-.03.03,0c.03.05-.04.02-.01.06,0,.02-.04.02,0,.04.06.03-.03.01.04.13,0,.04-.03.03-.04.06,0,.03-.03.04-.03.08s-.02.03-.02.08c0,.05-.02.03-.02.09-.04.06-.08.05-.11.04-.01,0-.03,0-.04,0-.05,0-.07,0-.12-.03-.02,0-.03,0-.04,0,0,0-.01,0-.03,0,0,0-.09.01-.08.03.01.01-.03,0-.07.04-.04.03-.03-.02-.06-.02-.06,0,0-.04-.05-.01-.01,0-.04,0-.08-.03-.04-.02-.13-.03-.15-.02-.04.02-.07-.02-.08-.02-.01.03,0,.12,0,.12,0,0,0-.09,0-.12-.02,0,0-.03-.04-.02-.04,0-.03,0-.04,0,0,0,0-.01-.04-.01-.08,0,.03-.01-.07-.04-.07-.02-.08-.02-.08-.01h-.01c-.06,0,.04,0-.05-.01-.08,0-.08.02-.13.05-.05.03-.04.08-.02.08.04,0,.01.13-.05.13-.06,0-.03,0-.12-.06-.09-.06-.13-.04-.17-.05-.01,0-.02,0-.04,0-.03,0-.06,0-.08-.07,0-.04-.02-.04-.03-.04-.01,0-.02,0-.04-.02-.02-.02-.04-.02-.06-.02-.02,0-.03,0-.06-.01-.02-.02-.04-.01-.06,0-.02,0-.04.01-.07,0-.04-.02-.05-.02-.08-.04-.03-.02-.02-.03-.04-.03-.05-.02.04,0,0-.03-.04-.02,0,0-.02,0-.02.02-.09-.01-.07-.06.02-.04.05,0,.09-.06.04-.06,0-.06,0-.09,0-.03-.04-.02-.05-.08-.01-.06.02-.02.02-.05,0-.03,0,0,0-.03,0-.03-.02,0-.05,0-.06.02,0,0-.03-.01-.04-.01.03-.03,0-.03-.02,0-.01-.04-.06-.01-.05.03-.03,0-.1.04-.04-.01-.04-.01-.04,0,0,0,0,0-.01,0-.06-.03,0,0-.04,0h-.02s-.01-.03-.03,0c-.01.02-.03,0-.06.02-.02.01-.02,0-.02,0,0,0,0-.01-.03,0-.02,0-.04,0-.05,0-.02,0-.03,0-.05,0-.02,0-.03,0-.03,0,0,0,0,0-.02.01-.02.01-.02.01-.03,0,0,0-.03,0-.06,0-.1,0-.06.02-.1.02-.04,0-.07.06-.1.06-.03,0-.02.07-.08.02-.02-.02-.02,0-.02,0,0,0,0,.02-.03.01-.02,0-.03.01-.03.02,0,.01,0,.02-.02.02-.02,0-.03,0-.03,0,0,0,0,0-.03,0h-.03s-.03-.01-.03-.03c0-.01.01-.03,0-.01-.03.04-.04.03-.05.02h-.02s-.04,0-.05-.02c-.01,0-.03-.01-.04-.01-.02,0-.05-.02-.05-.03,0-.01-.02-.04-.05,0-.02.04-.04.03-.09.11-.1.2-.2.12-.22.2-.03.12-.05.05-.1.19-.03.08.06.07.04.11-.02.08-.14.12-.17.18-.03.07-.14,0-.19.09-.03.05-.03.03-.05.1-.04.14-.06-.01-.12.17-.04.13-.13.16-.16.28-.02.12-.05.11-.09.2-.02.05,0,.04,0,.03,0,0,.02-.01.01,0-.01.05-.01.07.01.07.02,0,.03.06.03.06,0,.02,0,.02-.02.06-.01.03-.02.04.01.03.02,0-.02.03-.02.03.07.09.03.15.04.2,0,.08-.05.08-.03.15-.03.05-.01.05-.06.12-.04.07-.04.06-.06.08-.02.02-.05.02-.01.04.04.01-.01,0,.03.03.04.02,0,0,.02.03.01.01.02,0,.02,0,0,0,.02-.01.04,0-.02,0-.05,0-.03.02.02.03-.02,0,0,.04.02.04,0,.05.03.04.03,0-.03-.03.08-.03-.1.02-.04.02-.08.04-.01,0-.02,0-.03,0,0,0,0,0,0,.02,0,.01-.01.06,0,.05.02-.02.03-.02.03-.01h.01s.03,0,.03,0c0,0,0,0,.02,0,.02,0,.02,0,.03,0,0,0,.01,0,.03,0h0s-.02,0-.02,0c-.02-.02-.02-.01-.03,0h-.02s-.03,0-.03,0c0,0,0,0-.02,0-.05,0,0,.01-.04.01s-.02.03,0,.04c.01.01,0,0,.04,0-.03.01-.04,0-.01.03.02.01.02,0,.03,0h.01s-.02,0,0,.01c0,0,.02,0,.04,0,.02,0,.04-.01.04,0,0,.01-.02,0-.07.02.02,0,0,.03.02.02.02,0,0-.03.05-.03-.03.02,0,.04-.01.03-.02,0-.02.02-.02.02.02,0-.01.01.03.03-.02.02.02.07.04.07,0,.02.04.04.03.05-.02.03.01.06.05.06-.03,0,.03.07.06.07,0,.02-.04.03-.01.03-.01.01.02.02,0,.02-.02,0,.03.03.01.02h0s0,.02,0,.01c-.02,0,0,.03.02.03l.02.03s-.02,0,.01.03c.02.01.03,0,.03,0h0s0,.01.02.01h0s.03.03-.02.02c-.01,0,0,.01.02.02.02.01.05.03.07.02.07.04-.01.02.03.04.04.02.03.05.07.05,0,.01-.02.03.05.07.07.03.04.06.08.07.04.01-.01.01.03.02.09.03.04.06.11.05,0,.01,0,.04.04.02.08-.02.12-.04.12-.1.03.07.06.02.17,0,.03,0,.06,0,.08,0,.01,0,.02,0,.02,0,0-.01-.02-.01-.03,0-.01,0-.02,0-.03,0,0,0,0,0,.02,0h.02s.02,0,.03,0c0,0,.02,0,.05,0,0,0,.04.02.07.02.07,0,.04.02.08.02s.01-.01.08-.02c.06,0,.08-.01.11-.04.03-.02.04-.02.02-.03h.02s.02.03.05-.03c.03,0,.06,0,.08-.02.02,0,.05,0,.03-.01-.02,0,.02-.01.02,0h0s.01,0,.03,0c.04,0,.04,0,.04,0,0,0,0,0,.04,0-.04.01.02.02.04.02.05,0,.11.04.1.06-.01.02.02,0,.02,0,0,0-.03.02-.02.02.01,0,0,.04.01.03.02,0,0-.03.03-.02-.03,0,0,.02-.02.03-.01.01-.03,0,0,.02.03.02,0,.01.02.03.04.03.07.05.08.04.01,0,.01,0,.02,0,0,0,0,0,.01,0,.01,0,.01,0,.02,0h.01s0-.02.02-.03c.02.04.05.02.04,0,.03.02.06,0,.04-.02,0,.01.03.01.04.02h0s.01.01.01,0c0-.03,0,.02.04.05.02.01.03,0,.03,0h0s.02,0,.02,0c0,0,.02,0,0,0-.03.02.04.03-.01.03s.02.01,0,.03c0,.02.03.03.01.07-.02.03,0,.05,0,.1,0,0-.03.03-.02.05.01.03-.04.05-.04.07,0,.02.01.02.03.01.01,0,.03,0,.05,0-.07.03,0,.07-.06.06-.03,0,.02.04.04.04.02,0,0,.02,0,.02-.05-.02-.04-.04-.05-.03-.01,0,0,.05-.02.08-.02.03,0,.06-.05.03-.01,0,0,.03.01.06.01.03.03.06.03.06.02,0,0,.03,0,.03-.02,0,.01.05.02.06.03.02,0,.01,0,.01,0,0,.08.08.08.09,0,.02.07.06.06.07-.03.02.03.02.01.03-.02.01.02,0,.07.1.01.02.02.03.04.03h.02s0,.02-.02.01c-.06-.01.02.04,0,.05-.01,0,.02.05,0,.05-.02,0,.01.02.01.03,0,0,.02.04.05.01.01-.01.02-.01.03-.01,0,0,.01,0,.03,0-.01.02-.05.03-.08.04-.03.01.03.03.04.1,0,.06.06.13.04.2-.03.1.01.05,0,.09-.02.07.08.13.04.25-.04.12-.04.04-.07.11-.04.09-.03,0-.08.11-.06.13-.01.32-.05.35-.04.03,0-.03-.02.17-.01.14.09.22.08.29,0,.11.17.34.15.38-.03.07.01.03-.01.11-.02.08.07.34.05.37-.01.02.02.1.05.15.01.02.03.03.04.04.03.02,0,.23.09.3.07.05.01.08.03.13.01.05,0,.04-.03.07.05.04,0,.06.03.08.05.04-.03.07.06.1,0,0-.02-.03,0-.04.01,0,.03,0,.05.03.03.02.06.05.11.01.03-.02.05-.02.06-.01,0,0,.01,0,.03,0,.03-.02.04,0,.07-.03.01-.02.03-.01.05,0,.01,0,.02,0,.03,0,.03-.01.07,0,.09,0,.04.02.04,0,.05,0,0,0,0-.02.03-.01.07.02.04-.04.11-.05.15-.02.17-.13.21-.16.04-.03.08-.14.13-.15.1-.03.18-.3.25-.31.07,0,.06-.03.12-.23.02-.07-.07-.08.1-.14.15-.06.18-.16.18-.17,0-.06.06-.07.04-.13-.01-.06,0-.09,0-.11-.03-.08,0-.11-.03-.12-.05-.02,0-.14.08-.18.06-.03.16-.19.25-.21.08-.01.05-.05.08-.05.05,0,.14-.08.17-.13.04-.07.03,0,.07-.08.05-.1.06-.08.03-.18-.03-.11.02-.13,0-.2-.02-.07.03-.09.02-.12,0-.04.02-.08,0-.12-.03-.04-.05-.04-.05-.09,0-.12-.07-.12-.03-.18.04-.06,0-.04.03-.08.05-.08-.12-.08-.05-.19.07-.1.02-.1.07-.15.02-.02.02,0,.03-.04,0-.05.04-.04.04-.1,0-.08.02-.04.02-.1,0-.09.06-.07.15-.16.02-.02.02-.02.06-.1.04-.08.11-.1.17-.19.06-.1.11-.08.2-.19.09-.11.17-.17.18-.25.01-.06.13-.09.13-.23,0-.1.11-.2.1-.27,0-.03,0,.02.04-.1.02-.06.01-.06,0-.06,0,0,0,0,0,0,.02-.06-.01-.1.01-.09.03,0-.03-.02-.01-.1.01-.04-.04-.03-.07-.03-.01,0-.11.08-.15.07-.03,0-.04,0-.04,0,0,0-.02,0-.05,0-.04,0-.05,0-.07.02-.02.01-.04.02-.09.02-.07,0-.07.01-.13.04-.06.02-.16-.09-.19-.11h0s-.01,0-.06,0c-.04,0,0,0,.02-.02.02-.01.05,0,.07-.05.01-.05-.04-.07-.08-.12,0,0,0-.01-.02-.01-.02,0,0-.03-.06-.07-.05-.04-.08-.13-.13-.13-.03,0-.02-.02-.07-.03-.05,0-.04-.08-.06-.05,0,.02-.03.02-.06-.11-.03-.12-.05-.11-.12-.24-.02-.04-.04-.06-.04-.04,0,0-.01,0-.02-.01,0-.01-.02-.02-.03-.02-.03.01-.03-.04-.05-.08,0-.02-.02-.14,0-.15.03-.02-.06-.09-.05-.14,0-.05-.02-.01-.09-.1-.04-.06.02,0-.04-.07-.06-.08.06-.02,0-.07-.05-.05-.09-.06-.1-.12-.02-.07-.06-.06-.14-.21-.04-.08.05-.01-.02-.08-.06-.06,0-.01-.04-.06-.04-.05-.05-.07-.08-.1-.04-.04.02-.04-.04-.1-.04-.04,0-.04-.03-.12.02.04.03.08.06.11.03.03.02.05.06.09.04.04.04.08.08.12.04.04.04.06.07.01.03-.05-.01-.04,0-.09.02-.05,0-.07.01-.11.04,0,.1.07.1.07,0,0-.06-.07-.1-.07,0,.02.03.02.01.05-.02.03.02.03,0,.08-.02.04.03,0,.04.06.02.07.08.08.07.1-.02.02.03.04.12.2.07.11-.01.02.05.13.02.03.07.02.1.06.02.03.04.03.04.05,0,.06.06.15.09.22.04.07-.04.02,0,.07.02.03-.02.03.07.1.16.12.11.16.18.22.07.07.07.07.11.15.05.08,0,.06.04.08.03.02-.02.02.01.04.03.19.05.15.05.17,0,.07.05.11.03.14-.02.03.01.05.03.08,0,.02.14.03.15,0,0-.02.01-.02.02-.02,0,0,.02,0,.04-.02.05-.05.14,0,.18-.06.03-.05.13,0,.17-.08.03-.05.2-.07.21-.1.02-.03.13-.03.1-.06-.06-.04.04-.08.08-.1.04-.02.03,0,.07-.03.03-.03.08,0,.13-.05.05-.04,0-.04.02-.06.02-.02.13,0,.11-.07-.01-.03.02-.1.09-.08.06.01.04,0,.01-.06-.03-.08.02-.17.04-.15.03.04.06-.14.08-.15.02,0,0-.04,0-.03M17.98,19.52s-.01,0-.01-.02c0-.02,0-.04-.05,0-.04.03-.02.03-.02.05,0,.02-.04.05-.06.1,0,.02-.01.02-.02,0,0,0-.01-.01-.03,0-.03.02.02.07,0,.07-.03,0,.01,0-.05.07-.03.04-.04.03-.04.02,0,0,0-.01,0,0-.02.03-.05.03-.05.08,0,.03-.03.02-.06.02-.03,0-.07,0-.09.03,0,.02-.02.02-.03.02-.01,0-.03,0-.04.04-.02.08-.06.07-.06.17,0,.1-.02.1,0,.17.01.08-.02.05-.04.13-.02.08-.06.02-.11.15-.05.13.04.12.02.25-.02.12.15.18.23.11.02-.02.1-.03.18-.17.06-.11.07-.18.09-.24.02-.07.04-.14.12-.28.08-.13.03-.18.12-.29.02-.03-.04-.07,0-.13h.03s.02.02.03,0c.02-.02-.03-.36-.04-.36M12.66,11.75h.01s0,.01,0,.01h0s0,0,0,0c.03,0,.01,0,0,0-.02,0,0,.02-.01.03,0,.01-.01,0,0,.02,0,0,0,.02-.01.04,0,.02,0,.02,0,0,0-.02.02-.03.02-.03h0s.03-.01.04-.03c-.01.02.02.02.02.02,0,0-.02,0-.03.01,0,.01.03.02.02.03-.01,0-.01.01-.02.02-.01.01,0,.02,0,.02h-.01s.02.02.02.02v-.02s.01,0,.02.01h.01s0-.02.02,0h.01s.01,0,.01,0h0s0,0,0,0h.03s-.02,0-.03.02c-.01.01-.01.02,0,.05.02.03,0,.01.01,0h0s.02,0,.02,0c.02,0,0,0,0,.02-.01.02.01.01.01.01,0,0-.02,0-.02.02,0,0,.02.02.03.01,0,.01-.01,0-.02,0h-.01s0,0,0,0c0,0,0,0-.02,0h-.03s-.03.01-.03,0c0,0,0-.03-.03-.01-.03.01.04,0,.02.02-.02,0,0,.02-.02.02-.02,0-.03.02-.02.01h0s0,0,0,0c0,0,.01,0,.03,0-.02.01,0,.01,0,.01h0s0,.01,0,.02c0,.02-.03.03-.05.03-.02,0-.03.01-.05.01-.02,0,0,.01,0,.02h.01s.01,0,.01,0c0,0,.02,0,.03,0h0s.01,0,.01,0h0s0,.02.01.02c.01,0,.02,0,.02,0,0,0,.01.02.04.02.02,0,.01-.01.03-.01.02,0,.01,0,.04-.02-.02,0-.01.02-.02.02l-.02.02s-.03,0-.04,0c-.01,0,0-.01-.05,0-.01,0,0,.02-.02.02-.02,0,0,.01-.01.02-.02,0-.02.01-.04.03-.01.01-.02.02-.04.02-.02,0,0,.01,0,0h.02s.01.01.01.01c.01,0,0-.02.01-.02.02,0,.02-.02.02,0h.02s.01,0,.01,0h.02s.02.02.02.02v-.03s.03,0,.05,0c.01,0,.03,0,.04,0h.01s.02,0,.02,0c.02,0,.03,0,.02-.01-.01,0,.02,0,.03,0,.01,0,.02,0,.01-.02,0-.01,0,0,.01,0h.02s0,0,0,0c0,0,0,0,.02,0,.01,0,.03,0,.05,0,.02,0,.03,0,.04,0h.02s.01-.01.04-.02c.02,0,0-.01.01-.02,0,0,0,0-.02,0h-.03s-.04,0-.04,0h.01s.02,0,.03-.01c.01,0-.02-.01,0-.02h0s0,0,.02,0c.01,0,0-.01,0-.01,0,0,.01,0,.03,0,.02-.01,0,0,.01-.02.02-.03-.03-.05-.05-.06-.02,0-.04,0-.05.01,0,.02-.01.02-.03,0-.01-.01-.01,0,0-.01.02-.01.02-.03,0-.04-.02,0-.02-.01-.04-.02.02,0,.03.02.04.01,0,0,0-.02-.02-.04-.02-.01.03,0,0-.02-.01,0-.02-.03-.06-.04-.01,0-.02,0-.02-.02,0-.02-.01-.02-.02-.05,0-.03-.01-.01-.03-.03h0s0,0-.02-.02c-.03-.02,0,0-.05,0-.02,0-.03,0-.04,0h0s.03,0,.04,0h.01s.01,0,.01,0c.01,0,0,0,0-.01,0-.01-.04,0-.04,0,0,0,0,0,.03,0,.02,0,.02-.01.04-.03.01-.02.02-.02.02-.03,0-.02.02-.02.02-.03,0-.02-.01-.02-.02-.02h-.02s-.02,0-.02,0c0,0,0,0-.02,0-.02,0-.04,0-.05,0-.01,0-.02,0-.02,0,0,0,0,0,0,0,.01,0,0,0,.01,0h-.02s.02-.02.02-.02c0,0,.03-.02.05-.03.02,0,0-.01,0-.02h-.02s-.03,0-.04,0c-.01,0-.03,0-.03,0h0s0,0,0,0c0,0,0-.02-.02-.01-.03.01,0,.02,0,.02h0s-.01.01-.01.01c-.01,0,0,.02,0,.02-.01,0,.02.02.02.02h-.02s-.01,0-.03,0c-.02,0,.02.02,0,.02-.01,0,.02.01,0,.02-.02,0,.04.02.01.02s0,0-.01,0c0,0-.01,0-.03.02-.01,0,0,0,.01,0,.01,0,.03,0,.02,0M12.29,12.13s.04,0,.04,0h-.02s-.02,0-.04.02c-.02,0,0,.01,0,0h0s.02,0,.02,0c.01,0,.04,0,.04,0,0,0-.02,0-.04.02-.02,0,0,.01.01,0h.02s.02,0,.02,0h-.01s-.01.01-.01.01h0s0,0,0,0c.01,0,.03,0,.04,0h.02s.02,0,.02,0h.01s.01,0,.01,0c.02,0,.01-.02.03-.01h.01s.01-.01.01-.01h.01s0,0,0,0c.01,0,0,0,.02,0,.02,0,.02,0,.03,0v-.03s0,.03,0,.03h0s.02,0,.02,0h.02s0,0,0,0c.01,0,0-.01,0-.02,0,0,0,0,.02-.02.01,0,0,0,0-.02v-.02s0-.02,0-.02c0,0-.02-.02,0-.02.01,0,0-.01,0-.01v-.02s-.02-.01-.02-.01c0,0,0-.01,0-.01h0s0,0,0,0h.02s.01-.01.01-.01h.02s0-.03,0-.03h-.02s-.01,0-.01,0h.01s0-.02,0-.02h-.01s0-.02,0-.02h0s-.01-.02-.01-.02h-.02s-.02,0-.03,0h-.02s0,0,.02,0c.01,0,0,0,0-.01-.01,0-.01,0-.02,0,0,0,0,.01,0,.02v-.02s-.01,0-.01,0h-.01s-.01,0-.01,0h-.01s0,0-.01.02c-.01,0,0,.01,0,.01-.01,0,0,0-.02,0-.02,0,0,0,0,0,0,0,.02,0,.03,0,.02,0,0,0,0,0,0,0,0,0-.02.01-.01,0,.01.02,0,.02-.01,0,0,0-.02,0h0s-.01,0-.01,0h-.04s-.01,0-.01,0h0s0,.03,0,.03c-.01,0-.02,0-.03,0h.01s.01.01.02.01c.01,0,.01,0,0,0s-.01,0,0,.01h0s-.01,0-.01,0c-.01,0,0,0,0,.01-.01,0,0,0,.01,0h0s.01.01.01.01h0s.02.01.04.01c.02,0,.02.01,0,.01-.02,0-.02,0-.03,0h0s-.02.02-.02.02c0,0,0,0-.01,0-.02,0-.02,0,0,0s.02,0,.03,0c.01,0,.02,0,.03-.01h0s0,0,0,0h.01s-.02,0-.03,0c-.01,0-.03,0-.04,0-.02,0,0,0-.02,0-.02,0,0,0,0,0h0s-.02,0-.02,0h-.01s-.01,0-.01,0c-.01,0-.03.02-.01.01h.02M12.57,11.97v-.02s0,.02,0,.02M14.52,13.56h0s-.01,0-.01,0h-.01s-.01.01-.02,0c-.01,0-.02,0-.03,0h-.02s-.02,0-.02,0h-.02s-.02,0-.03,0h-.02s-.02,0-.03,0c-.01,0-.02,0-.04.02-.02.02,0,.03.03.03.02,0,.03.02.05.03.02,0,.02.03.05.03.03,0,.05.01.05.02h.02s.02,0,.03.01c0,0,0-.01.02-.03.01-.02-.01-.03,0-.04.01,0,0-.02,0-.03.02-.01.02-.02.02-.05M13.85,11.7s0,0-.03,0c-.02,0-.02.01-.04.03h-.02s0,0,0,0h0s-.01,0-.01,0l-.02.02s0,0,.01.02c.01.01,0-.01.02-.03h.02s.01,0,.01,0c.01,0,0-.01.02,0,.01,0,.02,0,.03.02,0,.02,0,0,0-.01,0,0,.02-.02,0-.03,0-.01,0-.02,0-.02M13.89,11.9s-.01,0-.03,0h-.03s0,.02,0,.02h.02s.04.02.05.01c.01-.01,0,0,0-.02h-.01s0,0,0,0M13.92,11.87s0,.03.01.04c0,0,.02,0,.03,0h.02s-.03,0-.01.01c.02,0,.05.02.05,0,0-.01-.01-.02,0-.03.02,0-.02-.02,0-.03.02,0,.01-.02,0-.03,0-.02.01-.02,0-.02-.02,0-.02,0-.03.01h0s.02,0,.01.02c0,.01,0,0,0,0,0,0,0-.01,0,0,0,.02,0,0-.02,0,0,0-.03,0-.02,0,.01,0,0,0,0,.01-.02,0-.05,0-.04.02M13.85,13.31s.02.03,0,.04c-.01.01.02.02,0,.03-.01,0,0,.03,0,.06,0,.02.03.02.03.03h0s.02,0,.02,0c.02,0,0-.03,0-.03h.01s.02.02.02.02c.01,0,0-.03,0-.04v-.03s0-.02,0-.03c0-.01.02-.01,0-.03v-.04s-.02-.01-.02-.03c0-.01-.01,0-.02,0-.02,0-.01.01-.02.02-.01,0-.02,0-.03,0h0s0,.02,0,.02l.02.02M13.84,13.13s0,.03,0,.03c.01,0,0,.03,0,.03h0s0,.03.02.03h.02s0,.02,0,.02c0-.02,0-.03.01-.05,0-.02,0-.04,0-.06,0-.01,0-.03,0-.04,0-.03,0-.03-.01-.01h-.02s-.01,0-.01.02c0,0-.03,0-.02.01.01,0-.02.01,0,.02"/>
    </g>
  </g>
  <g>
    <line class="cls-7" x1="32.08" y1="57.01" x2="19.08" y2="70.01"/>
    <line class="cls-7" x1="32.06" y1="70.01" x2="19.09" y2="57.04"/>
  </g>
</svg>